<?xml version="1.0" encoding="UTF-8"?>
<svg id="Camada_1" data-name="Camada 1" xmlns="http://www.w3.org/2000/svg" viewBox="0 0 193.13 512">
  <defs>
    <style>
      .cls-1 {
        fill: #bb7652;
      }

      .cls-1, .cls-2, .cls-3, .cls-4, .cls-5 {
        stroke-width: 0px;
      }

      .cls-2 {
        fill: #2b3448;
      }

      .cls-3 {
        fill: #df895d;
      }

      .cls-4 {
        fill: #e79f74;
      }

      .cls-5 {
        fill: #e9d485;
      }
    </style>
  </defs>
  <path class="cls-5" d="M148.49,244.83c-34.83-.7-49.09,22.39-49.09,22.39-2.83,1.05-5.68,0-5.68,0,0,0-13.06-22.3-49.09-22.24.23-9.94.76-17.66,1.22-20.81,0,0,11.95,5.3,48.94,5.3s52.47-5.3,52.47-5.3c.44,3.12.99,10.76,1.22,20.67Z"/>
  <path class="cls-1" d="M113.25,61.31l.55,4.78h0c-12.01,14.31-35.74,11.08-35.74,11.08l1.69-14.78c3.59,3.61,8.13,7.02,9.62,7.84,2.36,1.28,6.56,1.37,6.56,1.37,0,0,4.2-.09,6.56-1.37,1.63-.87,7.02-4.98,10.7-8.98l.06.06Z"/>
  <path class="cls-4" d="M161.11,499.52s8.86,3.35,3.99,7.9c0,0-2.04,2.8-6.47,3.12-3.47.26-11.86.67-15.3.82-.99.06-1.98-.17-2.86-.61l-9.39-4.96s-8.77-2.19-10.29-4.17,2.71-20.08,2.71-20.08c0,0-1.2-3.26.17-9.62l-17.69-105.43s-1.49-9.53-1.6-14.31c-.12-4.75-4.98-84.97-4.98-84.97,0,0,14.25-23.09,49.09-22.39.38,16.32-.09,38.77-3.03,57.13-4.75,29.47-5.45,68.5-5.45,68.5,0,0,6.47,27.92,5.63,38.13-.85,10.2-1.78,71.24-2.04,74.44-.03,0,7.46,11.08,17.52,16.5Z"/>
  <path class="cls-4" d="M93.72,267.19s-4.9,80.22-4.98,84.97c-.12,4.78-1.6,14.31-1.6,14.31l-17.69,105.43c1.37,6.35.17,9.62.17,9.62,0,0,4.26,18.13,2.71,20.08-1.52,1.98-10.29,4.17-10.29,4.17l-9.39,4.96c-.85.47-1.84.67-2.86.61-3.47-.15-11.83-.55-15.33-.82-4.43-.32-6.47-3.12-6.47-3.12-4.84-4.55,3.99-7.9,3.99-7.9,10.03-5.42,17.52-16.53,17.52-16.53-.26-3.21-1.2-64.24-2.04-74.44s5.6-38.13,5.6-38.13c0,0-.67-39-5.42-68.5-2.97-18.31-3.41-40.69-3.03-57.01,36.06,0,49.11,22.3,49.11,22.3Z"/>
  <path class="cls-4" d="M190.58,258.06s3.29,24.95,2.39,27.2c-.9,2.22-2.74,3.88-2.74,3.88,0,0-.12,2.97-.32,3.88-.23.9-3.29,3.38-3.29,3.38,0,0-1.52,1.89-3.96,2.86-2.45.99-7.96,2.8-7.96,2.8l-5.8,3.88s-3.56-.85-1.57-3.96,5.22-7.43,5.22-7.43l1.46-14.81s-2.27.06-2.27,2.1-.7,9.21-1.69,10.44c-1.02,1.2-4.37,2.91-5.89,2.48s1.69-9.59.47-13.2c-1.25-3.61-.06-7.2.47-8.54s8.04-16.09,8.04-16.09c0,0-14.05-54.22-15.19-57.39-1.14-3.18-.7-11.13-.7-11.13l-11.8-39.03-4.2,29.29s4.81,37.08,6.03,45.47c0,0-15.48,5.3-52.47,5.3s-48.94-5.3-48.94-5.3c1.2-8.39,6.03-45.47,6.03-45.47l-4.2-29.29-11.8,39.03s.47,7.93-.7,11.13c-1.14,3.18-15.19,57.39-15.19,57.39,0,0,7.55,14.75,8.04,16.09s1.69,4.93.47,8.54c-1.25,3.61,1.98,12.74.47,13.2-1.52.44-4.9-1.28-5.89-2.48-1.02-1.2-1.69-8.39-1.69-10.44s-2.27-2.1-2.27-2.1l1.46,14.81s3.24,4.31,5.22,7.43-1.57,3.96-1.57,3.96l-5.8-3.88s-5.51-1.78-7.96-2.8c-2.45-.99-3.96-2.86-3.96-2.86,0,0-3.06-2.48-3.29-3.38s-.35-3.88-.35-3.88c0,0-1.81-1.63-2.71-3.88s2.39-27.2,2.39-27.2c0,0,5.1-52.73,6.79-60.16s5.22-19.24,5.22-19.24c0,0,7.49-60.16,12.01-74.65,4.55-14.49,24.51-15.89,24.51-15.89l26.99-10.93s23.7,3.24,35.74-11.08h0l1.25,11.08,26.99,10.93s19.97,1.4,24.51,15.89c4.52,14.49,12.01,74.65,12.01,74.65,0,0,3.53,11.8,5.22,19.24,1.69,7.46,6.79,60.16,6.79,60.16Z"/>
  <path class="cls-4" d="M117.68,49.86c.41-3.67.7-7.81.87-10.52,0,0,.99-1.87,2.3-2.68.29-.17.58-.32.9-.35,1.66-.23,2.83.96,2.71,5.13-.09,4.17-2.91,7.43-4.11,8.22-1.19.73-2.68.2-2.68.2Z"/>
  <path class="cls-4" d="M73.29,39.31h0c-.09-1.72-.15-2.83-.15-2.83,0,0,.03-5.04,2.1-11.37,2.07-6.3,6.27-7.96,8.63-7.7s4.98,1.52,12.07,1.52,9.68-1.25,12.04-1.52,6.56,1.37,8.63,7.7c2.07,6.3,2.1,11.37,2.1,11.37,0,0-.06,1.14-.15,2.86-.15,2.71-.47,6.85-.87,10.52-.29,2.59-.64,4.93-1.08,6.35-.44,1.46-1.75,3.26-3.44,5.1-3.67,3.99-9.07,8.1-10.7,8.98-2.36,1.28-6.56,1.37-6.56,1.37,0,0-4.2-.09-6.56-1.37-1.46-.82-6.03-4.23-9.62-7.84-2.19-2.19-3.99-4.46-4.52-6.24-.41-1.4-.79-3.76-1.08-6.35-.38-3.67-.67-7.87-.85-10.55Z"/>
  <path class="cls-4" d="M73.29,39.31c.17,2.68.47,6.88.9,10.55h0s-1.46.55-2.65-.23c-1.2-.76-4.02-4.05-4.11-8.22s1.08-5.36,2.74-5.13c.32.03.61.17.87.35,1.14.79,2.1,2.42,2.24,2.68h0Z"/>
  <path class="cls-2" d="M108.18,6.6c1.84.5,3.91,1.2,5.8,2.19,5.57,2.83,9.71,8.89,8.72,14.52-.82,4.55-1.57,11.02-1.84,13.35-1.28.82-2.3,2.68-2.3,2.68.12-1.72.15-2.86.15-2.86,0,0-.03-5.04-2.1-11.37-2.07-6.3-6.27-7.96-8.63-7.7s-4.98,1.52-12.04,1.52-9.71-1.25-12.07-1.52c-2.36-.26-6.56,1.37-8.63,7.7-2.07,6.3-2.1,11.37-2.1,11.37,0,0,.06,1.11.15,2.83-.15-.23-1.11-1.89-2.27-2.65-.26-2.33-1.02-8.8-1.84-13.35-1.02-5.63,3.15-11.69,8.72-14.52.2-.12.44-.2.64-.32.52-1.52,1.37-2.97,2.48-4.23,1.63-1.84,3.91-3.26,6.47-3.88,2.89-.7,6-.32,8.83.55s5.42,2.24,7.96,3.61c1.28.67,2.59,1.37,3.91,2.07Z"/>
  <path class="cls-1" d="M51.87,179.42c-.44,0-.82-.26-.87-.64-1.75-9.74-6.88-52.76-6.94-53.2-.06-.44.29-.82.79-.85.5-.06.93.26.96.7.06.44,5.19,43.43,6.91,53.11.09.41-.26.82-.73.87h-.12Z"/>
  <path class="cls-1" d="M47.29,145.46c-.29,0-.58-.15-.76-.38l-8.31-12.36c-.23-.38-.12-.85.32-1.05.41-.2.96-.09,1.2.26l8.31,12.36c.23.38.12.85-.32,1.05-.12.09-.29.12-.44.12Z"/>
  <path class="cls-1" d="M129.66,154.12c-.06,0-.12,0-.17-.03-24.92-4.4-68.82-.03-69.26,0-.5.06-.93-.26-.99-.67-.06-.44.29-.82.79-.85.44-.06,44.6-4.43,69.81,0,.47.09.79.5.7.9-.09.38-.47.64-.87.64Z"/>
  <path class="cls-1" d="M97.16,199.91h-.15c-1.69-.26-3.32-.99-4.55-2.04-.35-.29-.35-.79,0-1.08.35-.29.9-.29,1.25,0,.96.85,2.24,1.43,3.59,1.6.5.06.82.47.73.9-.06.35-.44.61-.87.61Z"/>
  <path class="cls-1" d="M18.4,302.83c-.26,0-.55-.12-.73-.32-.85-1.02-5.07-6.24-5.16-8.31-.06-1.49-1.57-8.8-2.36-12.45-.09-.41.23-.82.7-.9.5-.09.93.2,1.02.61.09.44,2.3,10.7,2.39,12.68.06,1.17,2.86,5.07,4.84,7.46.29.35.2.82-.2,1.08-.12.09-.32.15-.5.15Z"/>
  <path class="cls-1" d="M7.47,298.14c-.26,0-.52-.12-.7-.32-2.45-2.86-1.84-12.94-1.78-14.11.03-.44.44-.76.93-.73.5.03.85.38.82.82-.2,2.94-.32,11.05,1.43,13.09.29.35.2.82-.17,1.08-.15.12-.35.17-.52.17Z"/>
  <path class="cls-1" d="M2.87,289.92c-.47,0-.85-.32-.87-.7l-.55-6.09c-.03-.44.32-.79.82-.85.5-.03.9.29.96.7l.55,6.09c.03.44-.32.79-.82.85h-.09Z"/>
  <path class="cls-1" d="M73.99,371.8c-5.98,0-9.79-4.4-9.85-4.46-.29-.35-.2-.82.17-1.08s.93-.17,1.22.15c.2.26,5.3,6.09,12.85,2.89.44-.17.96-.03,1.17.35.2.38.03.85-.41,1.02-1.84.82-3.59,1.14-5.16,1.14Z"/>
  <path class="cls-1" d="M66.21,481.98c-.2,0-.41-.06-.58-.2-1.52-1.2-2.45-2.91-2.51-4.72-.03-.44.38-.79.85-.79.5,0,.9.32.9.76.06,1.34.76,2.71,1.92,3.61.35.29.38.79.06,1.08-.15.2-.38.26-.64.26Z"/>
  <path class="cls-1" d="M140.91,179.6h-.15c-.5-.06-.82-.47-.73-.87,1.72-9.71,6.88-52.7,6.91-53.11.06-.44.47-.73.96-.7.5.06.85.44.79.85-.06.44-5.19,43.46-6.94,53.2-.06.35-.41.64-.85.64Z"/>
  <path class="cls-1" d="M145.49,145.61c-.15,0-.32-.03-.44-.12-.41-.2-.55-.7-.32-1.05l8.31-12.36c.23-.38.79-.5,1.2-.26.41.2.55.7.32,1.05l-8.31,12.36c-.15.26-.47.38-.76.38Z"/>
  <path class="cls-1" d="M174.37,302.98c-.17,0-.35-.06-.52-.15-.41-.26-.5-.73-.2-1.08,1.98-2.39,4.78-6.3,4.84-7.46.09-1.98,2.3-12.24,2.39-12.68.09-.41.55-.7,1.02-.61s.79.5.7.9c-.79,3.64-2.3,10.96-2.36,12.45-.09,2.07-4.31,7.29-5.16,8.31-.15.2-.44.32-.7.32Z"/>
  <path class="cls-1" d="M185.31,298.29c-.17,0-.38-.06-.52-.15-.38-.26-.47-.73-.17-1.08,1.75-2.04,1.63-10.14,1.43-13.09-.03-.44.35-.79.82-.82.47-.06.9.29.93.73.09,1.14.67,11.25-1.78,14.11-.17.2-.44.29-.7.29Z"/>
  <path class="cls-1" d="M189.91,290.07h-.06c-.5-.03-.85-.41-.82-.85l.55-6.09c.03-.44.44-.73.96-.7.5.03.85.41.82.85l-.55,6.09c-.06.38-.44.7-.9.7Z"/>
  <path class="cls-1" d="M118.79,371.94c-1.6,0-3.32-.32-5.22-1.11-.44-.17-.61-.64-.41-1.02.2-.38.73-.55,1.17-.35,7.55,3.21,12.65-2.65,12.85-2.89.29-.35.85-.41,1.22-.15s.47.73.17,1.08c0,.03-3.82,4.43-9.79,4.43Z"/>
  <path class="cls-1" d="M126.57,482.15c-.23,0-.5-.09-.67-.26-.32-.32-.29-.82.06-1.08,1.14-.9,1.87-2.24,1.92-3.61.03-.44.5-.76.9-.76.5.03.87.38.85.79-.06,1.78-.99,3.5-2.51,4.72-.15.15-.35.2-.55.2Z"/>
  <path class="cls-1" d="M65.74,139.22c0,1.37-1.84,2.51-4.14,2.51s-4.14-1.11-4.14-2.51,1.84-2.51,4.14-2.51c2.3.03,4.14,1.14,4.14,2.51Z"/>
  <path class="cls-1" d="M130.68,139.22c0,1.37-1.84,2.51-4.14,2.51s-4.14-1.11-4.14-2.51,1.84-2.51,4.14-2.51,4.14,1.14,4.14,2.51Z"/>
  <path class="cls-1" d="M46.27,512c-.2,0-.41-.06-.55-.17-1.66-1.22-2.59-3.06-2.54-4.96.06-1.89,1.14-3.67,2.89-4.81.38-.26.93-.17,1.22.15.29.35.2.82-.17,1.08-1.28.85-2.1,2.22-2.16,3.61-.06,1.4.67,2.83,1.89,3.73.38.26.41.76.12,1.08-.17.2-.44.29-.7.29Z"/>
  <path class="cls-1" d="M39.45,511.39c-.26,0-.52-.09-.7-.29-.96-1.05-1.43-2.39-1.22-3.73.17-1.34.99-2.57,2.22-3.35.38-.26.93-.17,1.22.15.29.35.2.82-.17,1.08-.85.55-1.4,1.43-1.52,2.3-.12.9.2,1.87.85,2.57.32.32.26.82-.12,1.08-.17.15-.35.2-.55.2Z"/>
  <path class="cls-1" d="M35.63,511.04c-.17,0-.32-.03-.47-.12-1.05-.58-1.75-1.66-1.92-2.89-.15-1.17.17-2.3.47-3.06.06-.17.17-.47.41-.73.35-.35.85-.55,1.34-.5.5.06.82.47.73.87-.06.35-.38.58-.73.64-.03.06-.03.12-.06.15-.35.96-.47,1.75-.38,2.39.09.76.52,1.43,1.11,1.78.41.23.52.7.26,1.08-.17.26-.47.38-.76.38Z"/>
  <path class="cls-1" d="M29.77,509.87c-.35,0-.7-.2-.82-.5-.64-1.46-.64-3.15,0-4.61.44-.99,1.17-1.2,1.54-1.22.5-.03.9.26.96.7.06.41-.26.76-.7.85-.03.03-.09.12-.15.26-.5,1.11-.5,2.39,0,3.5.17.41-.06.85-.52.99-.12,0-.2.03-.32.03Z"/>
  <path class="cls-1" d="M147.82,511.27c-.15,0-.29-.03-.44-.12-.44-.2-.58-.67-.32-1.05.64-.96.76-2.19.38-3.24-.41-1.05-1.34-1.95-2.51-2.39-.44-.17-.64-.61-.47-1.02.2-.38.7-.58,1.17-.41,1.63.61,2.91,1.87,3.47,3.32s.38,3.15-.52,4.49c-.15.26-.47.41-.76.41Z"/>
  <path class="cls-1" d="M152.19,511.27c-.17,0-.38-.06-.52-.15-.38-.26-.47-.76-.17-1.08.64-.73.93-1.66.82-2.57s-.64-1.78-1.43-2.36c-.38-.26-.41-.76-.12-1.08.32-.32.87-.35,1.25-.09,1.14.85,1.89,2.07,2.04,3.38.17,1.28-.26,2.62-1.17,3.67-.17.15-.44.26-.7.26Z"/>
  <path class="cls-1" d="M156.51,510.78c-.17,0-.38-.06-.52-.15-.38-.26-.47-.73-.17-1.08.47-.58.7-1.31.61-2.01s-.5-1.37-1.11-1.84c-.38-.29-.41-.76-.09-1.08.32-.32.87-.35,1.25-.09.93.73,1.57,1.75,1.69,2.83.15,1.08-.2,2.22-.93,3.09-.17.2-.47.32-.73.32Z"/>
  <path class="cls-1" d="M162.8,509.17c-.06,0-.12,0-.17-.03-.47-.09-.79-.5-.7-.9.29-1.28-.61-2.68-1.98-3.15-.47-.15-.67-.61-.5-.99.17-.41.7-.58,1.14-.44,2.16.76,3.53,2.89,3.06,4.9-.06.38-.44.61-.85.61Z"/>
  <path class="cls-1" d="M97.95,50.44c.03.17-.23.35-.52.32-1.54-.15-5.74-.64-6.12-2.04-.35-1.31,3.18-7.05,4.78-9.59.17-.29.87-.23.9.09l.96,11.22Z"/>
  <path class="cls-2" d="M90.72,39.22c-.38,0-.7-.2-.85-.52-.03-.06-.79-1.69-4.2-1.69h-.03c-3.59,0-4.72,1.34-4.78,1.4-.29.35-.82.44-1.22.17-.38-.23-.5-.7-.23-1.05.06-.09,1.63-2.04,6.21-2.07h.03c4.72,0,5.8,2.62,5.86,2.71.17.41-.09.85-.55.99-.03.06-.15.06-.23.06Z"/>
  <path class="cls-2" d="M79.29,35.4c-.26,0-.52-.09-.7-.29-.32-.32-.23-.82.15-1.08,1.6-1.14,3.61-1.87,5.65-2.07s4.2.09,6.03.87c.44.17.64.64.41,1.02-.2.38-.73.55-1.17.38-1.57-.64-3.35-.9-5.07-.73s-3.41.79-4.75,1.75c-.17.09-.35.15-.55.15Z"/>
  <path class="cls-2" d="M87.13,36.36c.35.09.29.58.29.9,0,.96-.87,1.75-1.98,1.75s-2.01-.79-2.01-1.75c0-.32.09-.61.26-.87,0,0,1.95-.44,3.44-.03Z"/>
  <path class="cls-2" d="M101.62,39.19c-.09,0-.2,0-.29-.06-.47-.15-.7-.58-.52-.96.06-.12,1.14-2.74,5.86-2.77h.06c4.55,0,6.12,1.92,6.18,2.01.29.35.17.85-.23,1.08-.41.23-.93.15-1.22-.17-.06-.06-1.22-1.37-4.72-1.37h-.06c-3.44,0-4.17,1.66-4.2,1.72-.15.32-.5.52-.85.52Z"/>
  <path class="cls-2" d="M113.02,35.28c-.2,0-.38-.06-.55-.17-1.34-.93-3.03-1.54-4.75-1.72s-3.53.12-5.07.76c-.44.17-.96.03-1.2-.35-.2-.38-.03-.85.41-1.02,1.84-.79,3.99-1.11,6.03-.9s4.05.93,5.65,2.04c.38.26.44.76.15,1.08-.17.17-.41.29-.67.29Z"/>
  <path class="cls-2" d="M108.62,36.3c.26.17.26.55.26.87,0,.96-.87,1.75-1.98,1.75s-2.01-.79-2.01-1.75c0-.32.09-.64.29-.9,0,.03,2.59-.47,3.44.03Z"/>
  <path class="cls-3" d="M88.07,47.53c.12,1.66-2.16,3.15-5.07,3.32-2.91.17-5.39-1.05-5.51-2.71s2.16-3.15,5.07-3.32c2.91-.17,5.39,1.05,5.51,2.71Z"/>
  <path class="cls-3" d="M114.24,46.45c.12,1.66-2.16,3.15-5.07,3.32-2.91.17-5.39-1.05-5.51-2.71s2.16-3.15,5.07-3.32c2.91-.17,5.36,1.05,5.51,2.71Z"/>
  <path class="cls-1" d="M72.97,47.79c-.38,0-.73-.23-.85-.55-.73-2.27-1.81-4.46-3.21-6.47-.26-.38-.12-.85.29-1.05.41-.23.96-.12,1.22.26,1.49,2.13,2.62,4.43,3.41,6.85.15.41-.15.85-.61.96-.12-.03-.2,0-.26,0Z"/>
  <path class="cls-1" d="M119.61,47.47c-.06,0-.15,0-.2-.03-.47-.09-.76-.52-.64-.93.7-2.51,1.81-4.87,3.35-7.05.26-.35.79-.47,1.22-.26.41.23.55.7.29,1.05-1.43,2.07-2.51,4.28-3.15,6.62-.12.38-.5.61-.87.61Z"/>
  <path class="cls-2" d="M96.17,57.23c-1.54,0-2.65-.2-2.74-.23-.47-.09-.76-.5-.67-.93.12-.41.58-.67,1.05-.58.06,0,6.06,1.14,9.36-2.36.32-.32.87-.38,1.25-.09.38.26.44.76.12,1.08-2.45,2.59-5.95,3.12-8.37,3.12Z"/>
</svg>