<?xml version="1.0" encoding="UTF-8"?>
<svg id="Camada_1" data-name="Camada 1" xmlns="http://www.w3.org/2000/svg" viewBox="0 0 175.65 512">
  <defs>
    <style>
      .cls-1 {
        fill: #bb7652;
      }

      .cls-1, .cls-2, .cls-3, .cls-4, .cls-5 {
        stroke-width: 0px;
      }

      .cls-2 {
        fill: #2b3448;
      }

      .cls-3 {
        fill: #df895d;
      }

      .cls-4 {
        fill: #dd7470;
      }

      .cls-5 {
        fill: #e79f74;
      }
    </style>
  </defs>
  <path class="cls-5" d="M175.65,241.03v27.2c0,2.24-3.71,8.43-3.71,8.43,0,0-.32,5.42-1.68,6.84-1.36,1.41-11.43,9.25-11.43,9.25,0,0-3.83-2.71-1-6.22,2.8-3.51,6.13-10.22,6.13-10.22l-2.71-17.15s-5.57,9.64-8.01,11.85-6.22.5-6.22.5c0,0,5.07-12.14,6.22-14.56,1.15-2.42,2.06-13.29,5.51-14.47,0,0-16.5-56.19-16.97-59.82-.44-3.62-.41-7.51-.41-7.51l-6.13-14.35-.62,17.24s5.51,12.64,7.93,27.11c.71,4.18,1.38,12.58,1.94,22.95-6.42,5.6-24.31,17.97-56.63,17.97s-50.21-12.41-56.63-17.97c.56-10.37,1.27-18.77,1.94-22.95,2.42-14.44,7.93-27.11,7.93-27.11l-.62-17.24-6.13,14.35s.06,3.92-.41,7.51c-.44,3.59-16.97,59.82-16.97,59.82,3.48,1.15,4.36,12.05,5.51,14.47,1.15,2.42,6.22,14.56,6.22,14.56,0,0-3.77,1.71-6.22-.5s-8.04-11.85-8.04-11.85l-2.71,17.15s3.3,6.72,6.13,10.22-1,6.22-1,6.22c0,0-10.08-7.84-11.43-9.25-1.36-1.38-1.68-6.84-1.68-6.84,0,0-3.71-6.16-3.71-8.43v-27.2c0-.41,4.51-45.47,5.42-54.48.91-9.05,4.13-14.97,4.13-14.97,0,0,3.21-26.14,7.93-51.27s11.43-31.97,18.36-35.62c6.92-3.68,35.42-12.76,35.42-12.76,0,0,23.34,2.24,31.97-10.67l1.15,10.67s28.49,9.08,35.42,12.76c6.92,3.65,13.64,10.49,18.36,35.62s7.93,51.27,7.93,51.27c0,0,3.21,5.92,4.13,14.97.94,9.02,5.45,54.1,5.45,54.48Z"/>
  <path class="cls-1" d="M93.05,66.89c1.47-.88,6.45-5.04,9.81-9.08l.65,5.92c-8.63,12.88-32.24,8.22-32.24,8.22l1.36-12.52c3.21,3.48,7.1,6.69,8.37,7.45,2.18,1.3,6.01,1.38,6.01,1.38,0,0,3.86-.09,6.04-1.38Z"/>
  <path class="cls-5" d="M107.79,35.62c-.15,2.71-.41,6.92-.8,10.64,0,0,.44,23.57-19.95,22.04,0,0-2.36-.06-4.42-.71-15.91-3.92-15.53-21.33-15.53-21.33-.38-3.71-.65-7.9-.8-10.64-.09-1.74-.15-2.89-.15-2.89,0,0,.03-5.13,1.92-11.49,1.89-6.36,5.75-8.04,7.93-7.78,2.15.27,4.57,1.53,11.05,1.53s8.87-1.27,11.02-1.53c2.18-.27,6.04,1.38,7.93,7.78,1.89,6.36,1.92,11.49,1.92,11.49,0,0-.03,1.12-.12,2.89Z"/>
  <path class="cls-4" d="M144.47,228.07c.21,4.01.41,8.31.56,12.79-19.27,1.03-56.4,35.92-56.4,35.92h-1.59s-37.13-34.89-56.4-35.92c.15-4.48.35-8.78.56-12.79,6.42,5.6,24.31,17.97,56.63,17.97s50.21-12.38,56.63-17.97Z"/>
  <path class="cls-5" d="M152.16,505.37c0,1.5-.62,3.15-3.01,4.13-2.42.94-13.14,1.62-16.35,2-3.21.41-10.25-2.18-14.26-6.22,0,0-7.43,0-9.84-2.42s1.8-16.27,1.8-16.27c0,0-5.22-30.64-6.13-37.45-.91-6.78-4.98-66.24-4.66-75.11l-11.08-97.3s37.13-34.89,56.4-35.92c.35,9.84.53,20.51.5,30.59-.06,14.44-.65,27.67-2,35.77-3.83,23.04-10.84,60.05-10.84,60.05,0,0,5.04,31.2,4.51,48.97-.5,17.77-6.63,68.45-6.63,68.45,0,0,8.52,11.29,13.23,14.23,4.74,3.01,8.37,4.95,8.37,6.48Z"/>
  <path class="cls-5" d="M87.04,276.77l-11.08,97.3c.29,8.87-3.77,68.33-4.66,75.11-.91,6.78-6.13,37.45-6.13,37.45,0,0,4.21,13.85,1.8,16.27s-9.84,2.42-9.84,2.42c-4.01,4.07-11.05,6.63-14.26,6.22s-13.94-1.06-16.35-2c-2.42-.94-3.01-2.62-3.01-4.13s3.62-3.45,8.34-6.42c4.71-2.95,13.23-14.23,13.23-14.23,0,0-6.13-50.68-6.63-68.45s4.51-48.97,4.51-48.97c0,0-6.98-37.04-10.84-60.05-1.36-8.1-1.92-21.36-2-35.77-.06-10.11.15-20.74.5-30.59,19.3.97,56.43,35.86,56.43,35.86Z"/>
  <path class="cls-5" d="M64.65,46.03c-1.09-.77-3.68-4.1-3.77-8.31s.97-5.42,2.5-5.19c1.5.24,2.92,3.06,2.92,3.06.15,2.71.41,6.92.8,10.64,0,.03-1.36.59-2.45-.21Z"/>
  <path class="cls-5" d="M109.41,46.03c-1.09.77-2.45.24-2.45.24.38-3.71.65-7.93.8-10.64,0,0,1.38-2.83,2.89-3.06s2.56.97,2.5,5.19c-.06,4.18-2.65,7.51-3.74,8.28Z"/>
  <path class="cls-2" d="M87.25,0c26.96,0,23.43,32.56,23.43,32.56-1.5.24-2.89,3.06-2.89,3.06.09-1.74.15-2.89.15-2.89,0,0-.03-5.1-1.92-11.49-1.89-6.36-5.75-8.04-7.93-7.78s-4.57,1.53-11.05,1.53-8.87-1.27-11.05-1.53-6.01,1.38-7.93,7.78c-1.89,6.36-1.92,11.49-1.92,11.49,0,0,.03,1.15.15,2.89,0,0-1.38-2.83-2.92-3.06,0-.03-3.09-32.56,23.87-32.56Z"/>
  <path class="cls-1" d="M40.46,161.53c-.41,0-.74-.32-.77-.74-.12-1.62-2.59-39.66-2.59-42.2,0-.44.35-.8.8-.8s.8.35.8.8c0,2.5,2.56,41.69,2.59,42.11.03.44-.29.8-.74.83h-.09Z"/>
  <path class="cls-1" d="M39.04,139.55c-.24,0-.5-.12-.65-.35-2.36-3.51-5.36-10.81-5.48-11.14-.18-.41.03-.85.44-1.03.38-.18.85.03,1,.44.03.09,3.03,7.48,5.33,10.84.24.35.15.85-.21,1.09-.15.09-.29.15-.44.15Z"/>
  <path class="cls-1" d="M63.29,148.63c-11.52,0-18.24-4.57-18.65-4.86-.35-.24-.44-.74-.21-1.09s.74-.44,1.09-.21c.15.09,14.26,9.64,36.6.68.41-.15.85.03,1,.44s-.03.85-.44,1c-7.43,3.01-13.94,4.04-19.39,4.04Z"/>
  <path class="cls-1" d="M63.76,138.76c0,1.38-1.62,2.53-3.65,2.53s-3.65-1.12-3.65-2.53,1.62-2.53,3.65-2.53c2,.03,3.65,1.15,3.65,2.53Z"/>
  <path class="cls-1" d="M4.83,283.26c-.32,0-.62-.21-.74-.53-.62-1.86-1.09-5.8-1.12-5.98l-.53-7.78c-.03-.44.29-.8.74-.83s.8.29.83.74l.5,7.72h0s.47,3.92,1.06,5.63c.15.41-.09.85-.5,1-.06.03-.15.03-.24.03Z"/>
  <path class="cls-1" d="M86.45,211.01c-.35,0-.68-.24-.77-.59-.12-.41.15-.85.56-.94,2.09-.53,4.07-1.53,5.72-2.92.32-.27.83-.24,1.09.09s.24.83-.09,1.09c-1.83,1.53-4.04,2.65-6.34,3.21-.06.06-.12.06-.18.06Z"/>
  <path class="cls-1" d="M57.61,373.3c-3.48,0-6.98-1.5-9.28-4.1-.29-.32-.27-.83.06-1.09.32-.29.83-.27,1.09.06,2.39,2.65,6.19,4.04,9.72,3.45.41-.06.83.24.88.65s-.24.83-.65.88c-.59.09-1.21.15-1.83.15Z"/>
  <path class="cls-1" d="M60.14,492.7c-.21,0-.44-.09-.59-.27-.29-.32-.24-.83.09-1.09,1.44-1.27,2.45-3.06,2.74-4.95.06-.41.47-.71.88-.65.44.06.71.47.65.88-.35,2.27-1.53,4.42-3.27,5.89-.12.12-.32.18-.5.18Z"/>
  <path class="cls-1" d="M42.08,511.85c-.15,0-.27-.03-.38-.12-1-.56-1.65-1.71-1.83-3.09-.03-.27-.15-1.12.35-1.8.32-.44.8-.68,1.15-.83l2.86-1.33c.38-.18.85,0,1.03.38s0,.85-.38,1.03l-2.86,1.33c-.18.09-.44.21-.53.32-.06.09-.12.27-.06.68.12.91.5,1.62,1.06,1.94.38.21.5.71.29,1.06-.18.29-.44.41-.71.41Z"/>
  <path class="cls-1" d="M36.51,511.59c-.27,0-.53-.15-.68-.38-.65-1.15-1.27-2.42-.91-3.74.21-.85.83-1.62,1.71-2.15.71-.44,1.53-.71,2.24-.91.41-.12.85.12.97.5.12.41-.09.85-.5.97-.65.21-1.33.41-1.86.77-.32.21-.85.62-1,1.21-.21.8.24,1.68.77,2.59.21.38.09.85-.29,1.06-.18.06-.29.09-.44.09Z"/>
  <path class="cls-1" d="M32.53,510.85c-.24,0-.44-.09-.59-.29-.53-.65-1.15-1.38-1.47-2.33-.41-1.15-.21-2.36.5-3.12.38-.41.85-.68,1.3-.88l2.39-1.18c.38-.18.85-.03,1.06.35.18.38.03.85-.35,1.06l-2.39,1.18c-.32.18-.65.32-.83.53-.35.38-.35,1.06-.18,1.56.24.65.74,1.27,1.21,1.83.27.32.24.83-.12,1.09-.18.15-.35.21-.53.21Z"/>
  <path class="cls-1" d="M27.37,510.7c-.29,0-.56-.15-.71-.44-.35-.68-.71-1.38-.88-2.21-.24-.94-.15-1.86.18-2.62.35-.77.97-1.41,1.86-1.89.71-.38,1.47-.62,2.21-.85.41-.12.85.12.97.53.12.41-.12.85-.53.97-.65.21-1.33.38-1.89.71-.41.21-.91.59-1.18,1.18-.27.56-.18,1.21-.09,1.65.15.62.44,1.24.74,1.83.21.38.03.85-.35,1.06-.09.06-.21.09-.32.09Z"/>
  <path class="cls-1" d="M134.9,161.68h-.06c-.44-.03-.77-.41-.74-.83.03-.38,2.59-39.6,2.59-42.11,0-.44.35-.8.8-.8s.8.35.8.8c0,2.56-2.5,40.57-2.59,42.2-.03.41-.38.74-.8.74Z"/>
  <path class="cls-1" d="M136.31,139.7c-.15,0-.29-.03-.44-.15-.35-.24-.44-.74-.21-1.09,2.27-3.36,5.3-10.76,5.33-10.84.15-.41.62-.59,1.03-.44.41.15.59.62.44,1.03-.12.32-3.09,7.63-5.48,11.14-.18.24-.41.35-.68.35Z"/>
  <path class="cls-1" d="M112.09,148.77c-5.45,0-11.99-1.03-19.42-4.01-.41-.15-.59-.62-.44-1,.15-.41.62-.59,1-.44,22.34,8.99,36.45-.56,36.6-.68.35-.24.85-.15,1.09.21s.15.85-.21,1.09c-.38.27-7.1,4.83-18.62,4.83Z"/>
  <path class="cls-1" d="M170.52,283.4c-.09,0-.18,0-.24-.03-.41-.15-.62-.59-.5-1,.56-1.71,1.06-5.63,1.06-5.69l.5-7.69c.03-.44.41-.77.83-.74.44.03.77.41.74.83l-.5,7.72c-.03.21-.5,4.15-1.12,6.01-.15.38-.44.59-.77.59Z"/>
  <path class="cls-1" d="M88.9,211.15c-.06,0-.12,0-.18-.03-2.33-.59-4.51-1.71-6.34-3.21-.32-.27-.38-.77-.09-1.09.27-.32.77-.38,1.09-.09,1.65,1.38,3.62,2.39,5.72,2.92.41.12.68.53.56.94-.09.32-.41.56-.77.56Z"/>
  <path class="cls-1" d="M117.78,373.45c-.62,0-1.24-.06-1.86-.15-.41-.06-.71-.47-.65-.88.06-.44.47-.71.88-.65,3.54.59,7.34-.8,9.72-3.45.29-.32.77-.35,1.09-.06.32.29.35.8.06,1.09-2.27,2.56-5.78,4.1-9.25,4.1Z"/>
  <path class="cls-1" d="M115.21,492.85c-.18,0-.35-.06-.5-.18-1.71-1.5-2.92-3.65-3.24-5.89-.06-.41.24-.83.65-.88s.83.24.88.65c.29,1.89,1.3,3.71,2.74,4.95.32.29.35.77.09,1.09-.18.18-.38.27-.62.27Z"/>
  <path class="cls-1" d="M133.27,512c-.27,0-.53-.15-.68-.38-.21-.38-.09-.85.29-1.06.56-.32.94-1.03,1.06-1.94.06-.41,0-.59-.06-.68-.09-.12-.32-.24-.53-.32l-2.86-1.33c-.38-.18-.56-.65-.38-1.03s.65-.56,1.03-.38l2.86,1.33c.35.15.83.38,1.15.83.32.44.44,1.03.35,1.8-.18,1.41-.85,2.53-1.83,3.09-.15.06-.27.09-.41.09Z"/>
  <path class="cls-1" d="M138.84,511.71c-.12,0-.27-.03-.38-.09-.38-.21-.5-.68-.29-1.06.5-.88.97-1.8.77-2.59-.15-.62-.71-1.03-1-1.21-.56-.35-1.24-.56-1.89-.74-.41-.12-.65-.56-.5-.97.12-.41.56-.65.97-.5.71.21,1.5.47,2.24.91.88.56,1.47,1.33,1.71,2.15.38,1.47-.44,2.89-.91,3.74-.18.24-.44.35-.71.35Z"/>
  <path class="cls-1" d="M142.85,511c-.18,0-.35-.06-.5-.18-.32-.27-.38-.77-.12-1.09.47-.59.97-1.18,1.21-1.83.18-.5.18-1.18-.18-1.56-.21-.21-.53-.38-.83-.53l-2.39-1.18c-.38-.18-.53-.65-.35-1.06.18-.38.68-.56,1.06-.35l2.39,1.18c.41.21.91.44,1.3.88.71.77.88,1.97.5,3.12-.32.91-.94,1.68-1.47,2.33-.18.15-.41.27-.62.27Z"/>
  <path class="cls-1" d="M147.98,510.82c-.12,0-.24-.03-.35-.09-.38-.21-.53-.68-.35-1.06.29-.59.59-1.21.74-1.83.09-.44.18-1.06-.09-1.65-.27-.56-.8-.94-1.18-1.18-.56-.32-1.21-.5-1.89-.71-.41-.12-.65-.56-.53-.97s.56-.65.97-.53c.74.21,1.47.44,2.21.85.85.47,1.5,1.15,1.86,1.89.35.77.41,1.68.18,2.62-.18.8-.56,1.56-.88,2.21-.12.29-.38.44-.68.44Z"/>
  <path class="cls-1" d="M119.48,138.76c0,1.38-1.62,2.53-3.65,2.53s-3.65-1.12-3.65-2.53,1.62-2.53,3.65-2.53c2.03.03,3.65,1.15,3.65,2.53Z"/>
  <path class="cls-1" d="M88.37,47.76c.03.21-.21.35-.47.32-1.38-.15-5.19-.68-5.54-2.12-.29-1.36,2.86-7.28,4.33-9.9.18-.29.77-.24.8.09l.88,11.61Z"/>
  <path class="cls-2" d="M81.8,36.18c-.32,0-.62-.21-.74-.53-.03-.06-.71-1.77-3.8-1.77h-.03c-3.24,0-4.27,1.38-4.33,1.44-.27.35-.74.44-1.09.18-.35-.24-.44-.71-.21-1.06.06-.09,1.47-2.09,5.6-2.12,4.33-.09,5.27,2.68,5.3,2.8.15.41-.06.85-.47,1-.06.03-.15.06-.24.06Z"/>
  <path class="cls-2" d="M71.48,32.21c-.24,0-.44-.09-.62-.29-.27-.32-.21-.83.12-1.09,1.44-1.18,3.24-1.92,5.1-2.15,1.83-.21,3.77.09,5.45.91.38.18.56.65.35,1.03-.18.38-.65.56-1.03.38-1.41-.68-3.06-.94-4.6-.77-1.56.18-3.06.83-4.3,1.8-.12.12-.29.18-.47.18Z"/>
  <path class="cls-2" d="M78.59,33.21c.29.09.27.59.27.94,0,1-.8,1.8-1.8,1.83-1,0-1.8-.8-1.83-1.8,0-.32.09-.62.24-.88,0-.03,1.77-.47,3.12-.09Z"/>
  <path class="cls-2" d="M91.67,36.13c-.09,0-.18,0-.27-.06-.41-.15-.62-.59-.47-.97.03-.12,1-2.83,5.3-2.83s5.57,2,5.63,2.06c.24.35.15.85-.21,1.09-.35.24-.83.15-1.09-.18-.06-.09-1.15-1.36-4.33-1.41-3.12,0-3.8,1.71-3.83,1.8-.12.29-.41.5-.74.5Z"/>
  <path class="cls-2" d="M101.95,32.09c-.18,0-.35-.06-.47-.18-1.24-.97-2.77-1.59-4.3-1.77-1.56-.18-3.18.12-4.6.8-.38.18-.85.03-1.03-.35-.18-.38-.03-.85.35-1.03,1.68-.83,3.59-1.15,5.45-.94s3.65.94,5.1,2.09c.32.27.38.77.12,1.09-.15.21-.38.29-.62.29Z"/>
  <path class="cls-2" d="M98,33.18c.24.18.24.56.24.88,0,1-.8,1.8-1.8,1.83-1,0-1.8-.8-1.83-1.8,0-.35.09-.65.27-.94,0,0,2.36-.5,3.12.03Z"/>
  <path class="cls-3" d="M79.41,44.76c.12,1.71-1.94,3.24-4.57,3.42-2.65.18-4.86-1.09-4.98-2.8s1.94-3.24,4.57-3.42c2.65-.18,4.86,1.09,4.98,2.8Z"/>
  <path class="cls-3" d="M103.07,43.64c.12,1.71-1.94,3.24-4.57,3.42-2.65.18-4.86-1.09-4.98-2.8s1.94-3.24,4.57-3.42c2.65-.18,4.86,1.09,4.98,2.8Z"/>
  <path class="cls-1" d="M65.77,44.99c-.35,0-.65-.24-.77-.56-.68-2.36-1.65-4.6-2.92-6.69-.24-.38-.12-.85.27-1.06.35-.24.85-.12,1.06.27,1.36,2.21,2.39,4.6,3.09,7.07.12.41-.12.85-.53.97-.09,0-.15,0-.21,0Z"/>
  <path class="cls-1" d="M107.9,44.67c-.06,0-.12,0-.18-.03-.41-.09-.68-.53-.59-.94.62-2.59,1.65-5.04,3.03-7.28.24-.38.71-.47,1.06-.27.35.24.47.71.27,1.06-1.3,2.12-2.24,4.42-2.83,6.84-.09.38-.41.62-.77.62Z"/>
  <path class="cls-2" d="M86.75,54.78c-1.38,0-2.39-.21-2.48-.24-.41-.09-.68-.5-.59-.94.09-.41.53-.68.94-.59.06,0,5.48,1.18,8.49-2.42.27-.32.77-.38,1.09-.09.32.27.38.77.09,1.09-2.21,2.62-5.36,3.18-7.54,3.18Z"/>
</svg>