<?xml version="1.0" encoding="UTF-8"?>
<svg id="Camada_1" data-name="Camada 1" xmlns="http://www.w3.org/2000/svg" viewBox="0 0 209.83 512">
  <defs>
    <style>
      .cls-1 {
        fill: #bb7652;
      }

      .cls-1, .cls-2, .cls-3, .cls-4, .cls-5 {
        stroke-width: 0px;
      }

      .cls-2 {
        fill: #2b3448;
      }

      .cls-3 {
        fill: #df895d;
      }

      .cls-4 {
        fill: #ce5950;
      }

      .cls-5 {
        fill: #e79f74;
      }
    </style>
  </defs>
  <path class="cls-1" d="M126.11,66.8c-5.01,4.32-10.96,6.7-16.83,7.97-13.55,2.91-26.7-.37-26.7-.37l2.04-13.58c3.91,4.34,10.56,9.18,12.46,10.13,2.56,1.29,7.11,1.41,7.11,1.41,0,0,2.13-.06,4.29-.52,1.01-.2,1.98-.49,2.79-.89,2.1-1.09,10.13-6.93,13.69-11.62l1.15,7.48Z"/>
  <path class="cls-2" d="M77.93,13.75c-.55-1.35-.89-2.79-.78-4.26.17-1.9,1.15-3.8,2.91-4.86,1.73-1.06,3.94-1.24,6.04-1.47,6.53-.72,12.89-2.24,19.42-2.91,4.72-.49,9.69-.43,13.95,1.41,3.68,1.58,6.59,4.55,7.91,8.03,2.22.35,4.08,1.93,5.06,3.74,1.06,2.07,1.21,4.4,1.18,6.67-.03,5.44-.78,10.85-1.52,16.22h-.03c-1.78.26-3.42,3.11-3.42,3.11.12-1.75.17-2.91.17-2.91,0,0-.03-5.15-2.27-11.56s-6.79-8.11-9.32-7.82c-2.56.29-5.41,1.55-13.03,1.55s-10.47-1.27-13.03-1.55c-2.56-.26-7.08,1.41-9.32,7.82-2.22,6.42-2.27,11.56-2.27,11.56,0,0,.06,1.15.17,2.91,0,0-1.64-2.85-3.42-3.11-.49-.09-.95-.03-1.35.17-.75-5.47-1.35-10.93-.83-16.4.14-1.35.35-2.76,1.04-4,.55-1.04,1.52-1.96,2.76-2.36Z"/>
  <path class="cls-5" d="M104.57,72.35c-.12.03-.23.03-.37.03-.26,0-.49,0-.75-.03-28.48-.55-23.7-32.88-23.7-32.88-.12-1.75-.14-2.91-.14-2.91,0,0,.03-5.15,2.24-11.59,2.24-6.42,6.79-8.08,9.35-7.82,2.56.29,5.41,1.55,13.03,1.55s10.44-1.27,13-1.55c2.53-.26,7.08,1.41,9.35,7.82,2.22,6.44,2.24,11.59,2.24,11.59,0,0-.06,1.15-.14,2.91-.03-.03,4.8,32.59-24.11,32.88Z"/>
  <path class="cls-4" d="M106.12,279.27l-2.42.03s-6.88-2.16-16.4-9.52c-9.52-7.34-56.76-21.66-56.76-21.66,2.56-14.35,5.03-30.9,5.03-30.9,0,0,12.02,28.82,68.61,29.52,57.85-.23,69.99-29.54,69.99-29.54,0,0,2.5,16.54,5.03,30.9,0,0-47.21,14.33-56.73,21.66-9.49,7.36-16.37,9.52-16.37,9.52Z"/>
  <path class="cls-5" d="M128.65,39.44s1.64-2.85,3.42-3.11h.03c1.75-.23,3.02,1.01,2.91,5.24-.12,4.23-3.16,7.57-4.43,8.37-1.29.78-2.88.23-2.88.23h0c.43-3.74.78-8,.95-10.73Z"/>
  <path class="cls-5" d="M80.69,50.17s-1.58.55-2.88-.23c-1.27-.81-4.34-4.11-4.43-8.37-.09-3.08.55-4.57,1.58-5.06.4-.2.83-.23,1.35-.17,1.78.26,3.42,3.11,3.42,3.11.17,2.73.49,6.99.95,10.73h0Z"/>
  <path class="cls-5" d="M33.4,205.89c-3.6,14.99-13.64,41.8-13.64,41.8,0,0,6.85,8.57,9.03,13.29.37.83.63,1.55.66,2.07.2,3.48,4.55,16.97,4.55,16.97,0,0-.26,4-4.46,1.67-4.23-2.3-9.35-12.92-9.35-12.92l-2.5,13.38s6.76,9.95,6.96,13.46c.2,3.48-4.14,3.22-4.14,3.22-.29,1.18-2.01,1.87-3.31.66-1.27-1.21-10.36-8.37-11.25-10.79-.89-2.45-1.32-3.54-1.32-3.54,0,0-3.34-4.26-4.32-6.62-.95-2.36.55-28.88.55-28.88,0,0,.69-24.39.03-37.63-.66-13.23,7.25-32.62,7.25-32.62,0,0,4.26-32.62,3.48-52.7-.78-20.08,8.6-29.98,24.08-34.87,15.45-4.89,46.89-17.43,46.89-17.43,0,0,13.12,3.28,26.7.37,5.87-1.24,11.82-3.65,16.83-7.97l1.12,7.57s31.44,12.54,46.89,17.43c15.45,4.89,24.85,14.79,24.08,34.87s3.48,52.73,3.48,52.73c0,0,7.91,19.39,7.25,32.62-.66,13.2.03,37.63.03,37.63,0,0,1.5,26.52.55,28.88s-4.32,6.62-4.32,6.62c0,0-.4,1.09-1.32,3.51-.92,2.45-9.98,9.58-11.28,10.82-1.27,1.21-3.02.52-3.31-.66,0,0-4.34.26-4.14-3.22.2-3.48,6.96-13.43,6.96-13.43l-2.5-13.38s-5.15,10.62-9.35,12.92c-4.23,2.3-4.46-1.7-4.46-1.7,0,0,4.34-13.49,4.55-16.97.03-.52.26-1.24.66-2.07,2.19-4.72,9.03-13.29,9.03-13.29,0,0-10.01-26.81-13.64-41.77-1.38,7.39-2.19,11.33-2.19,11.33,0,0-12.14,35.38-69.99,35.64-56.59-.69-68.61-35.61-68.61-35.61,0,0-.81-4-2.22-11.39Z"/>
  <path class="cls-5" d="M104.91,282.21c-1.93,16.97-8.66,76.95-8.66,79.86,0,3.37-3.31,10.27-3.31,10.27-.23,4.11-12.63,102.24-12.63,102.24,1.38,3.11.12,8.63.12,8.63,0,0,5.7,10.18,4.86,14.3-.83,4.11-9.09,4.6-19.25,6.47s-13.35,7.25-17.75,7.25-22.93-2.56-23.42-5.87c-.49-3.34,4.52-4.26,5.75-5.49,1.21-1.21,19.42-16.37,20.19-19.3s-.86-19.02-1.32-25.49-7.28-62.88-7.28-71.92,3.54-21.75,3.54-21.75c0,0-6.16-27.13-11.25-42.12-5.09-14.99-5.67-58.37-5.67-58.37.26-3.6.92-8.11,1.75-12.86,0,0,47.24,14.33,56.76,21.69,8,6.18,15.36,7.62,17.49,7.91-.26.03-.4.06-.4.06,0,0,.14,1.67.46,4.49Z"/>
  <path class="cls-5" d="M184.97,505.35c-.49,3.34-18.99,5.9-23.42,5.9s-11.05-5.41-21.2-7.25c-10.15-1.87-14.96-2.33-15.79-6.44s4.86-14.3,4.86-14.3c0,0-1.29-5.55.12-8.6,0,0-12.4-98.12-12.63-102.24,0,0-3.31-6.9-3.31-10.27,0-2.91-6.73-62.88-8.66-79.86.32-2.82.49-4.43.49-4.43,0,0-.2-.03-.6-.06,1.81-.23,9.41-1.55,17.69-7.94,9.52-7.34,56.73-21.66,56.73-21.66.83,4.75,1.52,9.26,1.78,12.86,0,0-.58,43.35-5.67,58.34-5.09,14.99-11.25,42.12-11.25,42.12,0,0,3.54,12.74,3.54,21.75s-6.85,65.45-7.31,71.89c-.43,6.47-2.1,22.52-1.32,25.49.78,2.93,18.99,18.07,20.22,19.3,1.21,1.15,6.21,2.07,5.72,5.41Z"/>
  <path class="cls-1" d="M45.62,161.96c-.29,0-.55-.12-.72-.35-6.04-7.88-6.9-34.55-6.93-35.67,0-.43.37-.78.83-.78h.03c.46,0,.83.32.86.75,0,.26.89,27.36,6.65,34.87.26.35.17.83-.23,1.06-.17.06-.35.12-.49.12Z"/>
  <path class="cls-1" d="M39.76,139.35c-.29,0-.58-.12-.72-.35l-5.41-7.68c-.26-.35-.12-.83.29-1.06s.92-.12,1.18.23l5.41,7.68c.26.35.12.83-.29,1.06-.14.09-.32.12-.46.12Z"/>
  <path class="cls-1" d="M33.4,206.64c-.43,0-.81-.32-.86-.69-2.24-24.94,9.9-49.25,10.01-49.51.2-.37.72-.55,1.15-.37.43.17.63.63.43,1.01-.12.23-12.08,24.19-9.87,48.76.03.43-.32.78-.78.83-.03-.03-.06-.03-.09-.03Z"/>
  <path class="cls-1" d="M137.16,157.53c-.09,0-.17,0-.26-.03-34.06-9.23-62.37-.12-62.65-.03-.43.14-.95-.06-1.09-.46-.17-.4.06-.83.52-.98.29-.09,29.11-9.41,63.75-.03.46.12.72.55.58.95-.14.37-.46.58-.83.58Z"/>
  <path class="cls-1" d="M107.16,220.5c-.14,0-.29-.03-.43-.12-1.67-.83-3.16-1.98-4.37-3.31-.29-.32-.23-.81.14-1.06.37-.26.92-.2,1.21.12,1.06,1.18,2.39,2.19,3.88,2.93.4.2.55.66.32,1.04-.17.26-.46.4-.75.4Z"/>
  <ellipse class="cls-1" cx="57.36" cy="146.02" rx="4.03" ry="2.47"/>
  <path class="cls-1" d="M31.79,283.16c-.14,0-.29,0-.43-.03-1.73-.14-3.39-1.12-4.57-2.68-.26-.35-.14-.83.23-1.06.4-.23.92-.14,1.18.2.89,1.18,2.07,1.9,3.31,2.01,1.15.12,2.56-.52,2.76-1.58.17-.89-.43-1.78-1.06-2.76l-.29-.43c-1.9-2.96-2.59-6.36-3.28-9.61-.14-.69-.29-1.41-.46-2.1-.78-3.39-2.1-7.59-5.49-10.13-.37-.26-.4-.75-.12-1.06.32-.32.86-.37,1.21-.09,3.8,2.85,5.24,7.36,6.07,10.99.17.69.32,1.41.46,2.1.66,3.14,1.35,6.39,3.11,9.15l.26.4c.72,1.12,1.55,2.36,1.27,3.8-.29,1.64-2.16,2.88-4.14,2.88Z"/>
  <path class="cls-1" d="M19.93,269.81c-.2,0-.43-.06-.6-.2l-4.63-3.94c-.35-.29-.35-.78-.03-1.06.32-.32.86-.32,1.21-.03l4.63,3.94c.35.29.35.78.03,1.09-.17.12-.4.2-.6.2Z"/>
  <path class="cls-1" d="M20.86,299.5c-.23,0-.43-.06-.6-.23-2.82-2.45-5.75-4.95-8.2-7.82-2.65-3.14-6.9-9.44-5.55-16.54.09-.4.55-.69.98-.63.46.06.78.46.69.89-1.27,6.53,2.73,12.43,5.21,15.36,2.36,2.76,5.24,5.26,8.03,7.65.35.29.35.78.03,1.06-.12.2-.35.26-.58.26Z"/>
  <path class="cls-1" d="M10.41,294.23c-.2,0-.37-.06-.55-.17-3.34-2.42-4.86-5.95-5.58-8.49-.86-3.16-.95-6.44-1.01-9.58,0-.43.37-.78.83-.78h.03c.46,0,.86.32.86.75.09,3.08.14,6.27.98,9.26.63,2.3,2.01,5.49,4.98,7.65.37.26.43.75.12,1.06-.17.17-.4.29-.66.29Z"/>
  <path class="cls-1" d="M76.46,375.27c-5.47,0-14.41-1.84-18.38-5.15-.35-.29-.37-.78-.03-1.06.32-.32.86-.32,1.21-.03,4.8,4,15.48,5.67,21.89,4.23.46-.12.92.14,1.04.55.12.4-.17.83-.63.92-1.64.37-3.37.55-5.09.55Z"/>
  <path class="cls-1" d="M74.1,488.5c-.23,0-.46-.09-.63-.26-.32-.32-.29-.81.06-1.06,1.75-1.41,3.31-3.02,4.66-4.75.26-.35.81-.43,1.21-.2.4.23.49.72.23,1.06-1.44,1.81-3.08,3.51-4.92,5.01-.17.14-.4.2-.6.2Z"/>
  <path class="cls-1" d="M46.03,511.6c-.17,0-.35-.06-.49-.14-1.15-.72-1.29-2.07-.83-3.05.35-.78,1.04-1.44,2.13-2.07.26-.14.52-.29.78-.43.49-.26.98-.52,1.35-.81.37-.26.92-.23,1.21.09.32.32.26.81-.12,1.06-.52.37-1.06.66-1.58.95-.26.14-.49.26-.72.4-.78.46-1.27.89-1.47,1.35s-.12,1.04.26,1.24c.37.23.49.72.2,1.06-.17.23-.43.35-.72.35Z"/>
  <path class="cls-1" d="M41.08,511.25c-.26,0-.52-.12-.69-.29-.86-1.01-1.27-2.33-1.04-3.6.23-1.24,1.04-2.42,2.22-3.14.29-.17.58-.32.89-.46.55-.26,1.01-.49,1.24-.81.26-.35.81-.43,1.18-.2.4.23.49.72.23,1.06-.49.63-1.21.98-1.84,1.29-.26.12-.52.23-.75.37-.78.49-1.35,1.27-1.5,2.13-.14.83.12,1.75.69,2.42.29.35.23.81-.14,1.06-.12.09-.29.14-.49.14Z"/>
  <path class="cls-1" d="M34.86,509.84c-.23,0-.46-.09-.6-.23-.81-.75-1.27-1.75-1.21-2.79.03-1.04.58-2.01,1.44-2.7.66-.52,1.41-.81,2.16-1.09.66-.26,1.29-.52,1.75-.89.35-.29.89-.29,1.21.03.32.32.32.78-.03,1.09-.66.58-1.5.89-2.27,1.21-.63.26-1.27.49-1.7.83-.52.4-.83,1.01-.86,1.64-.03.6.26,1.24.72,1.7.32.32.32.78-.03,1.06-.14.09-.35.14-.58.14Z"/>
  <path class="cls-1" d="M29.46,508.58h-.12l-.23-.03c-.26-.03-.49-.17-.63-.37-.6-.92-.78-2.04-.52-3.11.26-1.04,1.01-1.98,1.98-2.59.4-.23.83-.43,1.27-.6.52-.2,1.01-.43,1.35-.72s.89-.29,1.21,0c.35.29.35.78,0,1.06-.55.49-1.24.78-1.84,1.01-.35.14-.72.29-1.04.49-.63.37-1.12.98-1.29,1.67-.14.58-.09,1.18.17,1.7.35.14.55.46.49.81,0,.4-.37.69-.81.69Z"/>
  <path class="cls-1" d="M164.95,162.36c-.17,0-.35-.03-.49-.14-.4-.23-.49-.72-.23-1.06,5.75-7.51,6.65-34.58,6.65-34.87,0-.4.4-.75.86-.75h.03c.46,0,.83.37.83.78-.03,1.12-.89,27.79-6.93,35.67-.17.26-.43.37-.72.37Z"/>
  <path class="cls-1" d="M170.82,139.75c-.14,0-.32-.03-.46-.12-.4-.23-.52-.69-.29-1.06l5.41-7.68c.26-.35.78-.46,1.18-.23.4.23.52.69.29,1.06l-5.41,7.68c-.14.23-.43.35-.72.35Z"/>
  <path class="cls-1" d="M177.15,207.07h-.06c-.46-.03-.83-.4-.78-.83,2.22-24.54-9.75-48.5-9.87-48.76-.2-.37,0-.83.43-1.01s.95,0,1.15.37c.12.23,12.28,24.54,10.01,49.51-.06.4-.43.72-.89.72Z"/>
  <path class="cls-1" d="M149.21,146.43c0,1.35,1.78,2.47,4.03,2.47s4.03-1.09,4.03-2.47-1.78-2.47-4.03-2.47c-2.24,0-4.03,1.12-4.03,2.47Z"/>
  <path class="cls-1" d="M178.27,282.04c-2.01,0-3.85-1.21-4.2-2.85-.29-1.44.55-2.68,1.27-3.8l.26-.4c1.75-2.76,2.42-5.98,3.08-9.15.14-.72.29-1.41.46-2.1.83-3.62,2.27-8.14,6.07-10.99.37-.26.92-.23,1.21.09.32.32.26.81-.12,1.06-3.39,2.56-4.72,6.76-5.49,10.13-.14.69-.32,1.38-.46,2.1-.69,3.25-1.38,6.65-3.28,9.61l-.29.43c-.63.98-1.24,1.87-1.06,2.76.2,1.06,1.61,1.7,2.76,1.58,1.21-.12,2.45-.86,3.31-2.01.26-.35.81-.43,1.18-.2.4.23.52.72.23,1.06-1.15,1.55-2.82,2.53-4.57,2.68h-.35Z"/>
  <path class="cls-1" d="M190.12,268.69c-.23,0-.46-.09-.63-.23-.32-.32-.32-.78.03-1.06l4.63-3.94c.35-.29.89-.29,1.21.03s.32.78-.03,1.09l-4.63,3.94c-.14.09-.35.17-.58.17Z"/>
  <path class="cls-1" d="M189.2,298.4c-.23,0-.46-.09-.6-.23-.32-.32-.32-.78.03-1.06,2.79-2.39,5.67-4.89,8.03-7.65,2.47-2.93,6.47-8.83,5.21-15.36-.09-.4.23-.81.69-.89.46-.06.92.2.98.63,1.35,7.11-2.88,13.41-5.55,16.54-2.45,2.88-5.35,5.38-8.2,7.82-.14.12-.37.2-.58.2Z"/>
  <path class="cls-1" d="M199.64,293.11c-.26,0-.49-.09-.66-.29-.29-.32-.26-.81.12-1.06,2.99-2.16,4.34-5.35,4.98-7.65.83-3.02.89-6.18.98-9.26,0-.4.4-.75.86-.75h.03c.49,0,.86.35.83.78-.09,3.16-.14,6.42-1.01,9.58-.69,2.53-2.22,6.04-5.55,8.49-.2.12-.37.17-.58.17Z"/>
  <path class="cls-1" d="M134.11,375.67c-1.73,0-3.45-.17-5.09-.55-.46-.12-.75-.52-.63-.92.12-.4.58-.66,1.04-.55,6.39,1.44,17.09-.23,21.89-4.23.35-.29.89-.29,1.21.03s.32.78-.03,1.06c-4,3.31-12.92,5.15-18.38,5.15Z"/>
  <path class="cls-1" d="M136.47,488.9c-.2,0-.4-.06-.58-.2-1.84-1.5-3.51-3.16-4.92-5.01-.26-.35-.17-.83.23-1.06.4-.23.92-.14,1.21.2,1.35,1.73,2.91,3.31,4.66,4.75.35.29.37.78.06,1.06-.2.17-.43.26-.66.26Z"/>
  <path class="cls-1" d="M164.55,512c-.26,0-.55-.12-.69-.32-.29-.35-.17-.81.2-1.06.35-.23.46-.78.26-1.24-.2-.46-.69-.89-1.47-1.35-.23-.14-.49-.26-.72-.4-.55-.29-1.09-.58-1.58-.95-.37-.26-.4-.75-.12-1.06.32-.32.86-.35,1.21-.09.4.29.86.55,1.38.81.26.14.52.29.78.43,1.09.63,1.75,1.29,2.13,2.07.43.98.29,2.33-.83,3.05-.2.06-.37.12-.55.12Z"/>
  <path class="cls-1" d="M169.49,511.65c-.17,0-.37-.06-.52-.17-.37-.26-.43-.75-.14-1.06.58-.66.86-1.58.72-2.42s-.72-1.64-1.5-2.13c-.23-.14-.49-.26-.75-.37-.63-.32-1.35-.66-1.84-1.29-.26-.35-.17-.83.23-1.06s.92-.14,1.18.2c.26.35.72.55,1.24.81.32.14.6.29.89.46,1.18.72,2.01,1.9,2.22,3.14.23,1.27-.17,2.56-1.04,3.6-.2.2-.46.32-.69.32Z"/>
  <path class="cls-1" d="M175.71,510.25c-.2,0-.43-.06-.6-.2-.35-.29-.35-.78-.03-1.06.49-.43.75-1.06.72-1.7-.03-.6-.35-1.24-.86-1.64-.46-.35-1.06-.6-1.7-.83-.78-.32-1.58-.6-2.27-1.21-.35-.29-.35-.78-.03-1.06.35-.32.86-.32,1.21-.03.46.4,1.09.63,1.75.89.75.29,1.5.58,2.16,1.09.86.69,1.38,1.67,1.44,2.7.03,1.04-.4,2.04-1.21,2.79-.14.2-.37.26-.58.26Z"/>
  <path class="cls-1" d="M181.09,508.98c-.43,0-.78-.29-.86-.66-.06-.35.14-.66.49-.81.26-.55.32-1.15.17-1.7-.17-.66-.63-1.27-1.29-1.67-.32-.2-.69-.35-1.04-.49-.6-.26-1.29-.52-1.84-1.01-.35-.29-.35-.78,0-1.06.35-.29.89-.29,1.21,0,.35.29.83.49,1.35.72.43.17.86.35,1.27.6,1.01.6,1.73,1.52,1.98,2.59.26,1.04.09,2.19-.52,3.11-.14.2-.37.35-.63.37l-.23.03s0-.03-.06-.03ZM181.32,508.17h0Z"/>
  <path class="cls-1" d="M106.03,51.98c.03.2-.26.37-.55.35-1.64-.14-6.13-.72-6.53-2.22-.37-1.44,3.39-7.62,5.09-10.38.2-.32.92-.23.95.12l1.04,12.14Z"/>
  <path class="cls-2" d="M98.3,39.79c-.35,0-.69-.2-.81-.52-.03-.06-.86-1.87-4.55-1.87h-.03c-3.85,0-5.12,1.47-5.15,1.52-.29.35-.81.43-1.18.17-.37-.23-.49-.69-.23-1.04.06-.09,1.73-2.19,6.56-2.19h.06c4.98,0,6.13,2.79,6.16,2.91.14.4-.09.83-.52.98-.14.03-.23.03-.32.03Z"/>
  <path class="cls-2" d="M86.1,35.64c-.26,0-.49-.09-.66-.29-.29-.32-.23-.81.14-1.06,1.7-1.21,3.83-2.01,5.98-2.24,2.16-.23,4.43.12,6.42.95.43.17.6.63.4,1.01-.2.37-.72.55-1.15.37-1.67-.72-3.62-1.01-5.47-.81-1.84.2-3.65.86-5.12,1.9-.17.12-.35.17-.55.17Z"/>
  <path class="cls-2" d="M94.5,36.74c.35.09.32.6.32.98,0,1.04-.95,1.9-2.13,1.9s-2.13-.83-2.13-1.9c0-.35.09-.66.29-.95-.06.03,2.04-.43,3.65-.03Z"/>
  <path class="cls-2" d="M109.92,39.76c-.09,0-.2,0-.29-.06-.43-.14-.69-.58-.52-.95.06-.12,1.18-2.93,6.18-2.93h.06c4.8,0,6.47,2.07,6.53,2.16.26.35.17.83-.23,1.06-.37.23-.92.14-1.18-.17-.06-.09-1.32-1.5-5.12-1.5h-.06c-3.71,0-4.55,1.84-4.57,1.93-.12.26-.43.46-.81.46Z"/>
  <path class="cls-2" d="M122.09,35.53c-.2,0-.37-.06-.55-.17-1.47-1.04-3.28-1.7-5.12-1.87-1.84-.17-3.8.12-5.47.83-.43.17-.95.03-1.15-.35-.2-.37-.03-.83.4-1.01,1.98-.86,4.2-1.21,6.39-.98,2.16.2,4.29.98,6.01,2.19.37.26.43.75.14,1.06-.14.17-.4.29-.66.29Z"/>
  <path class="cls-2" d="M117.4,36.71c.29.17.29.6.29.95,0,1.04-.95,1.9-2.13,1.9s-2.13-.83-2.13-1.9c0-.35.12-.69.29-.98,0,0,2.79-.52,3.68.03Z"/>
  <path class="cls-3" d="M95.45,48.85c.14,1.81-2.3,3.39-5.41,3.6-3.11.17-5.75-1.12-5.9-2.93s2.3-3.39,5.41-3.6c3.14-.17,5.78,1.12,5.9,2.93Z"/>
  <path class="cls-3" d="M123.41,47.67c.14,1.81-2.3,3.39-5.41,3.6-3.11.17-5.75-1.12-5.9-2.93s2.3-3.39,5.41-3.6c3.11-.17,5.75,1.12,5.9,2.93Z"/>
  <path class="cls-1" d="M79.34,49.05c-.37,0-.72-.23-.83-.55-.78-2.47-1.96-4.83-3.45-7.02-.26-.37-.12-.83.29-1.04.4-.23.95-.12,1.18.26,1.58,2.3,2.82,4.8,3.62,7.39.12.4-.14.83-.6.95-.06-.03-.12,0-.2,0Z"/>
  <path class="cls-1" d="M129.11,48.71c-.06,0-.14,0-.2-.03-.46-.09-.75-.52-.63-.92.75-2.7,1.93-5.26,3.57-7.62.26-.37.78-.46,1.18-.26.4.23.52.69.29,1.04-1.52,2.24-2.68,4.66-3.37,7.19-.09.37-.43.6-.83.6Z"/>
  <path class="cls-2" d="M104.14,59.26c-1.64,0-2.79-.23-2.93-.26-.46-.09-.75-.49-.63-.92.12-.4.58-.66,1.04-.58.06,0,6.5,1.24,10.1-2.56.32-.32.83-.37,1.21-.09.37.26.4.75.12,1.06-2.65,2.79-6.33,3.34-8.89,3.34Z"/>
</svg>