<?xml version="1.0" encoding="UTF-8"?>
<svg id="Camada_1" data-name="Camada 1" xmlns="http://www.w3.org/2000/svg" viewBox="0 0 186.19 512">
  <defs>
    <style>
      .cls-1 {
        fill: #bb7652;
      }

      .cls-1, .cls-2, .cls-3, .cls-4, .cls-5 {
        stroke-width: 0px;
      }

      .cls-2 {
        fill: #2b3448;
      }

      .cls-3 {
        fill: #e06a43;
      }

      .cls-4 {
        fill: #df895d;
      }

      .cls-5 {
        fill: #e79f74;
      }
    </style>
  </defs>
  <path class="cls-1" d="M111.92,66.8c-4.43,4.32-9.72,6.7-14.93,7.97-12.02,2.91-23.68-.37-23.68-.37l1.81-13.58c3.45,4.34,9.38,9.18,11.05,10.13,2.27,1.29,6.33,1.41,6.33,1.41,0,0,1.9-.06,3.83-.52.89-.2,1.75-.49,2.47-.89,1.87-1.09,8.98-6.93,12.14-11.62l.98,7.48Z"/>
  <path class="cls-2" d="M69.17,13.75c-.49-1.35-.78-2.79-.69-4.26.14-1.9,1.04-3.8,2.59-4.86s3.51-1.24,5.35-1.47c5.78-.72,11.45-2.24,17.23-2.91,4.17-.49,8.6-.43,12.37,1.41,3.28,1.58,5.84,4.55,7.02,8.03,1.96.35,3.62,1.93,4.49,3.74.95,2.07,1.06,4.4,1.06,6.67-.03,5.44-.69,10.85-1.35,16.22h-.03c-1.58.26-3.02,3.11-3.02,3.11.09-1.75.14-2.91.14-2.91,0,0-.03-5.15-2.01-11.56s-6.01-8.11-8.28-7.82-4.78,1.55-11.56,1.55-9.29-1.27-11.56-1.55c-2.27-.26-6.3,1.41-8.28,7.82s-2.01,11.56-2.01,11.56c0,0,.06,1.15.14,2.91,0,0-1.44-2.85-3.02-3.11-.43-.09-.83-.03-1.21.17-.66-5.47-1.21-10.93-.75-16.4.12-1.35.29-2.76.92-4,.52-1.04,1.38-1.96,2.47-2.36Z"/>
  <path class="cls-5" d="M92.79,72.35c-.12.03-.2.03-.32.03-.23,0-.43,0-.66-.03-25.29-.55-21.03-32.88-21.03-32.88-.09-1.75-.14-2.91-.14-2.91,0,0,.03-5.15,1.98-11.59,1.98-6.42,6.01-8.08,8.28-7.82,2.27.29,4.8,1.55,11.56,1.55s9.26-1.27,11.54-1.55c2.24-.26,6.27,1.41,8.28,7.82,1.96,6.44,1.98,11.59,1.98,11.59,0,0-.06,1.15-.14,2.91.03-.03,4.31,32.59-21.35,32.88Z"/>
  <path class="cls-3" d="M94.17,279.27l-2.16.03s-6.1-2.16-14.56-9.52c-8.46-7.34-50.34-21.66-50.34-21.66,2.27-14.35,4.49-30.9,4.49-30.9,0,0,10.67,28.82,60.9,29.52,51.32-.23,62.11-29.54,62.11-29.54,0,0,2.22,16.54,4.46,30.9,0,0-41.88,14.33-50.34,21.66-8.46,7.36-14.56,9.52-14.56,9.52Z"/>
  <path class="cls-5" d="M114.17,39.44s1.44-2.85,3.02-3.11h.03c1.55-.23,2.68,1.01,2.59,5.24s-2.82,7.57-3.94,8.37c-1.15.78-2.56.23-2.56.23h0c.4-3.74.69-8,.86-10.73Z"/>
  <path class="cls-5" d="M71.62,50.17s-1.41.55-2.56-.23c-1.12-.81-3.85-4.11-3.94-8.37-.09-3.08.49-4.57,1.41-5.06.35-.2.75-.23,1.21-.17,1.58.26,3.02,3.11,3.02,3.11.17,2.73.46,6.99.86,10.73h0Z"/>
  <path class="cls-5" d="M29.65,205.89c-3.19,14.99-12.08,41.8-12.08,41.8,0,0,6.07,8.57,8.03,13.29.35.83.55,1.55.58,2.07.17,3.48,4.03,16.97,4.03,16.97,0,0-.23,4-3.97,1.67-3.74-2.3-8.31-12.92-8.31-12.92l-2.22,13.38s5.98,9.95,6.18,13.46c.17,3.48-3.68,3.22-3.68,3.22-.26,1.18-1.78,1.87-2.93.66-1.12-1.21-9.18-8.37-9.98-10.79-.81-2.45-1.18-3.54-1.18-3.54,0,0-2.96-4.26-3.83-6.62-.83-2.36.49-28.88.49-28.88,0,0,.63-24.39.03-37.63-.58-13.23,6.42-32.62,6.42-32.62,0,0,3.77-32.62,3.11-52.7-.69-20.08,7.65-29.98,21.35-34.87,13.69-4.89,41.63-17.43,41.63-17.43,0,0,11.65,3.28,23.68.37,5.21-1.24,10.5-3.65,14.93-7.97l1.01,7.57s27.9,12.54,41.63,17.43c13.72,4.89,22.04,14.79,21.35,34.87-.69,20.08,3.11,52.73,3.11,52.73,0,0,7.02,19.39,6.42,32.62-.6,13.2.03,37.63.03,37.63,0,0,1.32,26.52.49,28.88-.83,2.36-3.83,6.62-3.83,6.62,0,0-.37,1.09-1.18,3.51-.81,2.45-8.86,9.58-10.01,10.82-1.12,1.21-2.68.52-2.93-.66,0,0-3.85.26-3.68-3.22.17-3.48,6.18-13.43,6.18-13.43l-2.22-13.38s-4.55,10.62-8.31,12.92c-3.74,2.3-3.97-1.7-3.97-1.7,0,0,3.85-13.49,4.03-16.97.03-.52.23-1.24.58-2.07,1.93-4.72,8.03-13.29,8.03-13.29,0,0-8.89-26.81-12.08-41.77-1.24,7.39-1.96,11.33-1.96,11.33,0,0-10.76,35.38-62.11,35.64-50.2-.69-60.9-35.61-60.9-35.61,0,0-.66-4-1.9-11.39Z"/>
  <path class="cls-5" d="M93.11,282.21c-1.7,16.97-7.68,76.95-7.68,79.86,0,3.37-2.93,10.27-2.93,10.27-.2,4.11-11.22,102.24-11.22,102.24,1.21,3.11.09,8.63.09,8.63,0,0,5.06,10.18,4.32,14.3-.72,4.11-8.05,4.6-17.06,6.47s-11.85,7.25-15.76,7.25-20.34-2.56-20.77-5.87,4-4.26,5.09-5.49c1.09-1.21,17.23-16.37,17.92-19.3.69-2.93-.78-19.02-1.18-25.49s-6.47-62.88-6.47-71.92,3.14-21.75,3.14-21.75c0,0-5.47-27.13-9.98-42.12-4.52-14.99-5.01-58.37-5.01-58.37.23-3.6.81-8.11,1.55-12.86,0,0,41.91,14.33,50.37,21.69,7.11,6.18,13.64,7.62,15.51,7.91-.23.03-.35.06-.35.06,0,0,.14,1.67.43,4.49Z"/>
  <path class="cls-5" d="M164.13,505.35c-.43,3.34-16.86,5.9-20.77,5.9s-9.81-5.41-18.81-7.25c-9-1.87-13.26-2.33-14.01-6.44-.72-4.11,4.32-14.3,4.32-14.3,0,0-1.15-5.55.09-8.6,0,0-10.99-98.12-11.22-102.24,0,0-2.93-6.9-2.93-10.27,0-2.91-5.98-62.88-7.68-79.86.29-2.82.43-4.43.43-4.43,0,0-.17-.03-.55-.06,1.61-.23,8.34-1.55,15.71-7.94,8.46-7.34,50.34-21.66,50.34-21.66.75,4.75,1.35,9.26,1.58,12.86,0,0-.52,43.35-5.01,58.34-4.52,14.99-9.98,42.12-9.98,42.12,0,0,3.14,12.74,3.14,21.75s-6.1,65.45-6.47,71.89c-.37,6.47-1.87,22.52-1.18,25.49.69,2.93,16.86,18.07,17.95,19.3,1.06,1.15,5.49,2.07,5.06,5.41Z"/>
  <path class="cls-1" d="M40.49,161.96c-.23,0-.49-.12-.63-.35-5.35-7.88-6.13-34.55-6.16-35.67,0-.43.32-.78.75-.78h.03c.4,0,.75.32.78.75,0,.26.78,27.36,5.9,34.87.23.35.14.83-.2,1.06-.17.06-.32.12-.46.12Z"/>
  <path class="cls-1" d="M35.29,139.35c-.26,0-.49-.12-.63-.35l-4.8-7.68c-.23-.35-.12-.83.23-1.06s.83-.12,1.06.23l4.8,7.68c.23.35.12.83-.23,1.06-.14.09-.29.12-.43.12Z"/>
  <path class="cls-1" d="M29.65,206.64c-.4,0-.72-.32-.75-.69-2.01-24.94,8.77-49.25,8.89-49.51.17-.37.63-.55,1.01-.37.37.17.55.63.37,1.01-.12.23-10.73,24.19-8.77,48.76.03.43-.29.78-.69.83,0-.03-.03-.03-.06-.03Z"/>
  <path class="cls-1" d="M121.73,157.53c-.09,0-.14,0-.23-.03-30.23-9.23-55.35-.12-55.61-.03-.4.14-.83-.06-.98-.46-.14-.4.06-.83.46-.98.26-.09,25.83-9.41,56.59-.03.4.12.63.55.52.95-.14.37-.43.58-.75.58Z"/>
  <path class="cls-1" d="M95.09,220.5c-.14,0-.26-.03-.37-.12-1.47-.83-2.82-1.98-3.88-3.31-.26-.32-.2-.81.12-1.06.35-.26.81-.2,1.06.12.95,1.18,2.13,2.19,3.42,2.93.37.2.49.66.29,1.04-.12.26-.37.4-.63.4Z"/>
  <ellipse class="cls-1" cx="50.91" cy="146.02" rx="3.57" ry="2.47"/>
  <path class="cls-1" d="M28.21,283.16c-.12,0-.26,0-.37-.03-1.52-.14-3.02-1.12-4.06-2.68-.23-.35-.14-.83.2-1.06s.83-.14,1.06.2c.78,1.18,1.84,1.9,2.93,2.01,1.01.12,2.27-.52,2.45-1.58.14-.89-.37-1.78-.95-2.76l-.23-.43c-1.67-2.96-2.3-6.36-2.91-9.61-.14-.69-.26-1.41-.4-2.1-.69-3.39-1.84-7.59-4.89-10.13-.32-.26-.37-.75-.09-1.06.26-.32.75-.37,1.06-.09,3.39,2.85,4.66,7.36,5.38,10.99.14.69.26,1.41.4,2.1.58,3.14,1.18,6.39,2.73,9.15l.23.4c.63,1.12,1.38,2.36,1.12,3.8-.23,1.64-1.9,2.88-3.68,2.88Z"/>
  <path class="cls-1" d="M17.68,269.81c-.2,0-.37-.06-.52-.2l-4.11-3.94c-.32-.29-.32-.78-.03-1.06.29-.32.78-.32,1.06-.03l4.11,3.94c.32.29.32.78.03,1.09-.14.12-.35.2-.55.2Z"/>
  <path class="cls-1" d="M18.51,299.5c-.2,0-.37-.06-.52-.23-2.5-2.45-5.12-4.95-7.28-7.82-2.36-3.14-6.13-9.44-4.92-16.54.09-.4.49-.69.89-.63.4.06.69.46.63.89-1.12,6.53,2.42,12.43,4.63,15.36,2.1,2.76,4.63,5.26,7.11,7.65.32.29.32.78.03,1.06-.17.2-.37.26-.58.26Z"/>
  <path class="cls-1" d="M9.25,294.23c-.17,0-.35-.06-.49-.17-2.96-2.42-4.32-5.95-4.95-8.49-.78-3.16-.83-6.44-.89-9.58,0-.43.32-.78.75-.78h.03c.4,0,.75.32.78.75.06,3.08.14,6.27.86,9.26.55,2.3,1.78,5.49,4.43,7.65.32.26.37.75.12,1.06-.2.17-.4.29-.63.29Z"/>
  <path class="cls-1" d="M67.88,375.27c-4.86,0-12.77-1.84-16.31-5.15-.32-.29-.32-.78-.03-1.06.29-.32.78-.32,1.06-.03,4.26,4,13.75,5.67,19.42,4.23.4-.12.83.14.92.55.12.4-.14.83-.55.92-1.47.37-2.99.55-4.52.55Z"/>
  <path class="cls-1" d="M65.78,488.5c-.2,0-.4-.09-.58-.26-.29-.32-.26-.81.06-1.06,1.55-1.41,2.93-3.02,4.14-4.75.23-.35.72-.43,1.06-.2.35.23.43.72.2,1.06-1.27,1.81-2.73,3.51-4.37,5.01-.14.14-.35.2-.52.2Z"/>
  <path class="cls-1" d="M40.87,511.6c-.14,0-.32-.06-.43-.14-1.01-.72-1.15-2.07-.75-3.05.32-.78.92-1.44,1.87-2.07.23-.14.46-.29.69-.43.43-.26.86-.52,1.21-.81.32-.26.81-.23,1.06.09s.23.81-.09,1.06c-.46.37-.95.66-1.41.95-.23.14-.43.26-.66.4-.69.46-1.12.89-1.29,1.35-.2.46-.09,1.04.23,1.24.35.23.43.72.17,1.06-.14.23-.37.35-.6.35Z"/>
  <path class="cls-1" d="M36.46,511.25c-.23,0-.46-.12-.6-.29-.78-1.01-1.12-2.33-.92-3.6.2-1.24.92-2.42,1.96-3.14.26-.17.52-.32.78-.46.46-.26.89-.49,1.09-.81.23-.35.72-.43,1.06-.2.35.23.43.72.2,1.06-.43.63-1.06.98-1.64,1.29-.23.12-.46.23-.66.37-.69.49-1.21,1.27-1.32,2.13-.14.83.12,1.75.63,2.42.26.35.2.81-.14,1.06-.09.09-.26.14-.43.14Z"/>
  <path class="cls-1" d="M30.97,509.84c-.2,0-.4-.09-.55-.23-.72-.75-1.12-1.75-1.06-2.79.03-1.04.49-2.01,1.27-2.7.58-.52,1.27-.81,1.93-1.09.6-.26,1.15-.52,1.55-.89.32-.29.78-.29,1.09.03.29.32.29.78-.03,1.09-.6.58-1.32.89-2.01,1.21-.58.26-1.12.49-1.52.83-.46.4-.75,1.01-.78,1.64-.03.6.23,1.24.66,1.7.29.32.29.78-.03,1.06-.14.09-.35.14-.52.14Z"/>
  <path class="cls-1" d="M26.17,508.58h-.12l-.2-.03c-.23-.03-.43-.17-.55-.37-.55-.92-.69-2.04-.46-3.11.23-1.04.89-1.98,1.78-2.59.35-.23.75-.43,1.12-.6.46-.2.89-.43,1.21-.72.29-.29.78-.29,1.06,0s.29.78,0,1.06c-.49.49-1.09.78-1.64,1.01-.32.14-.63.29-.92.49-.58.37-.98.98-1.15,1.67-.14.58-.09,1.18.14,1.7.29.14.49.46.43.81-.03.4-.35.69-.72.69Z"/>
  <path class="cls-1" d="M146.38,162.36c-.14,0-.29-.03-.43-.14-.35-.23-.43-.72-.2-1.06,5.09-7.51,5.9-34.58,5.9-34.87,0-.4.35-.75.78-.75h.03c.43,0,.75.37.75.78-.03,1.12-.81,27.79-6.16,35.67-.17.26-.4.37-.66.37Z"/>
  <path class="cls-1" d="M151.59,139.75c-.14,0-.29-.03-.4-.12-.35-.23-.46-.69-.23-1.06l4.78-7.68c.23-.35.69-.46,1.06-.23.35.23.46.69.23,1.06l-4.78,7.68c-.14.23-.4.35-.66.35Z"/>
  <path class="cls-1" d="M157.23,207.07h-.06c-.43-.03-.72-.4-.69-.83,1.98-24.54-8.66-48.5-8.77-48.76-.17-.37,0-.83.37-1.01s.83,0,1.01.37c.12.23,10.9,24.54,8.89,49.51-.03.4-.37.72-.75.72Z"/>
  <path class="cls-1" d="M132.4,146.43c0,1.35,1.58,2.47,3.57,2.47s3.57-1.09,3.57-2.47-1.58-2.47-3.57-2.47-3.57,1.12-3.57,2.47Z"/>
  <path class="cls-1" d="M158.18,282.04c-1.81,0-3.42-1.21-3.71-2.85-.26-1.44.46-2.68,1.12-3.8l.23-.4c1.55-2.76,2.16-5.98,2.73-9.15.14-.72.26-1.41.4-2.1.72-3.62,2.01-8.14,5.38-10.99.32-.26.81-.23,1.06.09s.23.81-.09,1.06c-3.02,2.56-4.2,6.76-4.89,10.13-.14.69-.26,1.38-.4,2.1-.6,3.25-1.24,6.65-2.91,9.61l-.23.43c-.58.98-1.09,1.87-.95,2.76.2,1.06,1.44,1.7,2.45,1.58,1.06-.12,2.16-.86,2.93-2.01.23-.35.72-.43,1.06-.2s.46.72.2,1.06c-1.04,1.55-2.5,2.53-4.06,2.68h-.35Z"/>
  <path class="cls-1" d="M168.74,268.69c-.2,0-.4-.09-.55-.23-.29-.32-.29-.78.03-1.06l4.11-3.94c.32-.29.78-.29,1.06.03s.29.78-.03,1.09l-4.11,3.94c-.14.09-.35.17-.52.17Z"/>
  <path class="cls-1" d="M167.9,298.4c-.2,0-.4-.09-.55-.23-.29-.32-.29-.78.03-1.06,2.47-2.39,5.03-4.89,7.11-7.65,2.22-2.93,5.75-8.83,4.63-15.36-.06-.4.2-.81.63-.89.4-.06.81.2.89.63,1.21,7.11-2.56,13.41-4.92,16.54-2.16,2.88-4.75,5.38-7.28,7.82-.17.12-.37.2-.55.2Z"/>
  <path class="cls-1" d="M177.17,293.11c-.23,0-.43-.09-.6-.29-.26-.32-.23-.81.12-1.06,2.65-2.16,3.85-5.35,4.43-7.65.72-3.02.81-6.18.86-9.26,0-.4.35-.75.78-.75h.03c.43,0,.75.35.75.78-.06,3.16-.14,6.42-.89,9.58-.6,2.53-1.96,6.04-4.95,8.49-.17.12-.35.17-.52.17Z"/>
  <path class="cls-1" d="M119,375.67c-1.52,0-3.05-.17-4.55-.55-.4-.12-.66-.52-.55-.92.12-.4.52-.66.92-.55,5.67,1.44,15.16-.23,19.42-4.23.32-.29.78-.29,1.06.03s.29.78-.03,1.06c-3.48,3.31-11.42,5.15-16.28,5.15Z"/>
  <path class="cls-1" d="M121.1,488.9c-.17,0-.37-.06-.52-.2-1.64-1.5-3.11-3.16-4.37-5.01-.23-.35-.14-.83.2-1.06s.81-.14,1.06.2c1.21,1.73,2.59,3.31,4.14,4.75.32.29.35.78.06,1.06-.17.17-.37.26-.58.26Z"/>
  <path class="cls-1" d="M146.01,512c-.23,0-.46-.12-.63-.32-.23-.35-.17-.81.17-1.06.32-.23.4-.78.23-1.24-.2-.46-.6-.89-1.29-1.35-.2-.14-.43-.26-.63-.4-.46-.29-.95-.58-1.41-.95-.32-.26-.37-.75-.09-1.06.26-.32.75-.35,1.06-.09.35.29.78.55,1.21.81.23.14.46.29.69.43.98.63,1.55,1.29,1.87,2.07.4.98.26,2.33-.75,3.05-.11.06-.26.12-.43.12Z"/>
  <path class="cls-1" d="M150.41,511.65c-.17,0-.32-.06-.46-.17-.35-.26-.4-.75-.14-1.06.52-.66.75-1.58.63-2.42-.14-.83-.63-1.64-1.32-2.13-.2-.14-.43-.26-.66-.37-.58-.32-1.21-.66-1.64-1.29-.23-.35-.14-.83.2-1.06s.83-.14,1.06.2c.23.35.63.55,1.09.81.26.14.55.29.78.46,1.04.72,1.78,1.9,1.96,3.14.2,1.27-.14,2.56-.92,3.6-.14.2-.35.32-.58.32Z"/>
  <path class="cls-1" d="M155.91,510.25c-.2,0-.37-.06-.52-.2-.32-.29-.32-.78-.03-1.06.43-.43.66-1.06.66-1.7-.03-.6-.32-1.24-.78-1.64-.4-.35-.95-.6-1.5-.83-.69-.32-1.41-.6-2.01-1.21-.32-.29-.32-.78-.03-1.06.29-.32.78-.32,1.06-.03.4.4.98.63,1.55.89.66.29,1.32.58,1.93,1.09.78.69,1.24,1.67,1.27,2.7s-.35,2.04-1.06,2.79c-.14.2-.35.26-.55.26Z"/>
  <path class="cls-1" d="M160.71,508.98c-.37,0-.69-.29-.75-.66-.06-.35.14-.66.43-.81.23-.55.29-1.15.14-1.7-.14-.66-.58-1.27-1.15-1.67-.29-.2-.6-.35-.92-.49-.55-.26-1.15-.52-1.64-1.01-.29-.29-.29-.78,0-1.06.29-.29.78-.29,1.09,0,.29.29.75.49,1.21.72.37.17.75.35,1.12.6.89.6,1.52,1.52,1.78,2.59.23,1.04.06,2.19-.46,3.11-.12.2-.32.35-.55.37l-.2.03s-.09-.03-.12-.03ZM160.91,508.17h0Z"/>
  <path class="cls-1" d="M94.09,51.98c.03.2-.23.37-.49.35-1.44-.14-5.44-.72-5.78-2.22-.32-1.44,2.99-7.62,4.52-10.38.17-.32.81-.23.83.12l.92,12.14Z"/>
  <path class="cls-2" d="M87.24,39.79c-.32,0-.6-.2-.72-.52-.03-.06-.75-1.87-4.03-1.87h-.03c-3.42,0-4.55,1.47-4.57,1.52-.26.35-.72.43-1.06.17-.35-.23-.43-.69-.2-1.04.06-.09,1.52-2.19,5.84-2.19h.03c4.4,0,5.44,2.79,5.47,2.91.14.4-.06.83-.46.98-.09.03-.17.03-.26.03Z"/>
  <path class="cls-2" d="M76.42,35.64c-.23,0-.43-.09-.6-.29-.26-.32-.2-.81.12-1.06,1.5-1.21,3.39-2.01,5.32-2.24,1.93-.23,3.94.12,5.7.95.37.17.55.63.37,1.01-.17.37-.63.55-1.01.37-1.5-.72-3.22-1.01-4.86-.81s-3.25.86-4.55,1.9c-.17.12-.35.17-.49.17Z"/>
  <path class="cls-2" d="M83.84,36.74c.32.09.26.6.29.98,0,1.04-.83,1.9-1.9,1.9s-1.9-.83-1.9-1.9c0-.35.09-.66.26-.95,0,.03,1.84-.43,3.25-.03Z"/>
  <path class="cls-2" d="M97.57,39.76c-.09,0-.17,0-.26-.06-.4-.14-.6-.58-.46-.95.03-.12,1.06-2.93,5.49-2.93h.06c4.26,0,5.72,2.07,5.78,2.16.23.35.14.83-.2,1.06-.35.23-.81.14-1.06-.17-.06-.09-1.18-1.5-4.55-1.5h-.06c-3.31,0-4.03,1.84-4.06,1.93-.09.26-.4.46-.69.46Z"/>
  <path class="cls-2" d="M108.35,35.53c-.17,0-.35-.06-.46-.17-1.29-1.04-2.91-1.7-4.55-1.87-1.64-.17-3.37.12-4.83.83-.37.17-.83.03-1.01-.35-.17-.37-.03-.83.35-1.01,1.75-.86,3.71-1.21,5.67-.98,1.93.2,3.83.98,5.32,2.19.32.26.37.75.12,1.06-.17.17-.37.29-.6.29Z"/>
  <path class="cls-2" d="M104.18,36.71c.26.17.26.6.26.95,0,1.04-.83,1.9-1.9,1.9s-1.9-.83-1.9-1.9c0-.35.09-.69.26-.98.03,0,2.5-.52,3.28.03Z"/>
  <path class="cls-4" d="M84.71,48.85c.12,1.81-2.04,3.39-4.8,3.6-2.76.17-5.09-1.12-5.24-2.93-.12-1.81,2.04-3.39,4.8-3.6,2.79-.17,5.12,1.12,5.24,2.93Z"/>
  <path class="cls-4" d="M109.5,47.67c.12,1.81-2.04,3.39-4.8,3.6-2.76.17-5.09-1.12-5.24-2.93-.12-1.81,2.04-3.39,4.8-3.6,2.79-.17,5.12,1.12,5.24,2.93Z"/>
  <path class="cls-1" d="M70.41,49.05c-.35,0-.63-.23-.75-.55-.69-2.47-1.73-4.83-3.05-7.02-.23-.37-.12-.83.26-1.04.37-.23.83-.12,1.04.26,1.41,2.3,2.5,4.8,3.22,7.39.12.4-.12.83-.52.95-.06-.03-.14,0-.2,0Z"/>
  <path class="cls-1" d="M114.6,48.71c-.06,0-.12,0-.17-.03-.4-.09-.66-.52-.58-.92.66-2.7,1.73-5.26,3.16-7.62.23-.37.69-.46,1.04-.26.35.23.46.69.26,1.04-1.35,2.24-2.36,4.66-2.99,7.19-.06.37-.37.6-.72.6Z"/>
  <path class="cls-2" d="M92.42,59.26c-1.44,0-2.47-.23-2.59-.26-.4-.09-.66-.49-.58-.92.09-.4.52-.66.92-.58.06,0,5.78,1.24,8.95-2.56.26-.32.75-.37,1.06-.09.32.26.37.75.09,1.06-2.3,2.79-5.58,3.34-7.85,3.34Z"/>
</svg>