<?xml version="1.0" encoding="UTF-8"?>
<svg id="Camada_1" data-name="Camada 1" xmlns="http://www.w3.org/2000/svg" viewBox="0 0 166.79 512">
  <defs>
    <style>
      .cls-1 {
        fill: #bb7652;
      }

      .cls-1, .cls-2, .cls-3, .cls-4, .cls-5 {
        stroke-width: 0px;
      }

      .cls-2 {
        fill: #2b3448;
      }

      .cls-3 {
        fill: #df895d;
      }

      .cls-4 {
        fill: #8cc9a5;
      }

      .cls-5 {
        fill: #e79f74;
      }
    </style>
  </defs>
  <path class="cls-4" d="M128.17,235.26c.61,6.09,1.05,11.31,1.08,14.51-16.99,3.58-44.62,32.99-44.62,32.99h-2.48s-27.63-29.41-44.62-32.99c.06-3.23.5-8.42,1.08-14.51,4.49,1.63,15.88,3.85,44.76,3.85s40.31-2.19,44.79-3.85Z"/>
  <path class="cls-1" d="M99.32,64.62c-10.14,15.45-33.78,10.23-33.78,10.23l2.39-12.5c3.21,4.05,8.04,8.25,9.5,9.15,2.07,1.28,5.74,1.37,5.74,1.37,0,0,3.67-.12,5.74-1.37,1.49-.93,6.67-5.45,9.88-9.65l.52,2.77Z"/>
  <path class="cls-5" d="M64.14,51.1s-1.28.55-2.33-.2-3.53-4.05-3.58-8.22c-.03-2.59.32-4.05.99-4.72.38-.41.85-.52,1.4-.41,1.46.23,2.77,3.06,2.77,3.06.12,2.65.38,6.82.76,10.49Z"/>
  <path class="cls-5" d="M107.07,37.87c.7.61,1.14,2.07,1.08,4.81-.09,4.17-2.56,7.43-3.58,8.22-1.05.76-2.33.2-2.33.2.35-3.67.61-7.84.76-10.52h0c.17-.32,1.4-2.8,2.77-3.03.5-.12.93-.03,1.31.32Z"/>
  <path class="cls-5" d="M67.93,62.35c-1.4-1.75-2.48-3.5-2.86-4.9-.35-1.4-.7-3.76-.93-6.35-.35-3.64-.61-7.81-.76-10.52-.09-1.72-.15-2.86-.15-2.86,0,0,.03-5.04,1.84-11.37,1.81-6.29,5.48-7.96,7.55-7.69,2.07.26,4.37,1.52,10.55,1.52s8.48-1.25,10.55-1.52c2.07-.26,5.74,1.37,7.55,7.69,1.81,6.29,1.84,11.37,1.84,11.37,0,0-.03,1.11-.12,2.83h0c-.15,2.68-.41,6.88-.76,10.52-.26,2.59-.58,4.95-.93,6.35-.32,1.28-1.25,2.83-2.48,4.4-3.21,4.2-8.39,8.71-9.88,9.65-2.07,1.28-5.74,1.37-5.74,1.37,0,0-3.67-.12-5.74-1.37-1.49-.87-6.32-5.07-9.53-9.12Z"/>
  <path class="cls-5" d="M166.79,257.99c0,1.78-.99,5.95-.99,5.95,0,0,.41,18.51.5,22.03.09,3.53-4.46,8.74-4.46,8.74,0,0-1.4,7.52-2.13,9.27-.76,1.75-9.24,7.55-10.05,8.1s-1.92-1.63-1.92-1.63l-2.97,2.91s-3.35-.44-1.49-5.22,6.56-10.35,6.56-10.35l1.34-12.56s-4.17,5.54-5.74,9.53-3.09,6.27-3.79,6.27-2.8-1.02-2.45-5.13c.32-4.14,4.08-12.36,4.08-12.36,0,0-.03-7.61,1.34-12.36,1.37-4.78,7.29-13.03,7.29-13.03,0,0-12.47-37.83-15.27-46.37-2.77-8.54-2.19-25-2.19-25l-7.55-32.96-4.78,32.35s4.05,29.26,6.06,49.16c-4.49,1.63-15.91,3.85-44.76,3.85s-40.28-2.21-44.76-3.85c2.01-19.9,6.06-49.16,6.06-49.16l-4.78-32.35-7.55,32.96s.58,16.47-2.19,25c-2.8,8.54-15.27,46.37-15.27,46.37,0,0,5.92,8.25,7.29,13.03s1.34,12.36,1.34,12.36c0,0,3.76,8.22,4.08,12.36.35,4.14-1.75,5.13-2.45,5.13s-2.21-2.27-3.79-6.27c-1.57-3.99-5.74-9.53-5.74-9.53l1.34,12.56s4.69,5.57,6.56,10.35-1.49,5.22-1.49,5.22l-2.97-2.91s-1.11,2.19-1.95,1.63c-.82-.55-9.3-6.35-10.05-8.1-.73-1.75-2.13-9.27-2.13-9.27,0,0-4.58-5.22-4.46-8.74.09-3.53.5-22.03.5-22.03,0,0-.99-4.17-.99-5.95s4.37-42.87,4.17-48.23,5.16-23.64,5.16-23.64c0,0,5.22-69.01,6.85-78.89,1.63-9.88,10.03-17.28,17.57-19.56s31.77-12.79,31.77-12.79c0,0,23.64,5.22,33.78-10.23l1.95,10.23s24.22,10.52,31.77,12.79,15.94,9.68,17.57,19.56c1.63,9.88,6.85,78.89,6.85,78.89,0,0,5.36,18.27,5.16,23.64-.17,5.33,4.2,46.43,4.2,48.23Z"/>
  <path class="cls-5" d="M82.18,282.79l-15.45,90.52s.9,17.66-1.19,31.36c-2.07,13.7-13.49,69.89-13.49,69.89.5,2.48.64,7.93.64,7.93,0,0,2.91,12.65,2.54,15.24s-11.16,5.13-11.16,5.13c-1.89,2.39-8.42,5.74-8.42,5.74,0,0-4.17,3.09-9.01,2.91s-15.74-.76-17.25-2.16c-1.54-1.43-2.56-1.98-2.62-4.08-.03-2.13,11.19-8.22,12.82-9.97,1.6-1.75,14.46-16.47,14.46-16.47,0,0-1.14-84.43-1.43-90.23s1.43-23.23,1.43-23.23c-3.61-26.78,3.44-102.03,3.53-115.15v-.44c16.99,3.58,44.62,32.99,44.62,32.99Z"/>
  <path class="cls-5" d="M147.26,495.27c1.6,1.75,12.85,7.84,12.79,9.97-.03,2.13-1.08,2.68-2.59,4.08-1.52,1.43-12.42,1.98-17.25,2.16-4.84.17-9.01-2.91-9.01-2.91,0,0-6.5-3.35-8.42-5.74,0,0-10.78-2.54-11.16-5.13s2.54-15.24,2.54-15.24c0,0,.15-5.45.64-7.93,0,0-11.42-56.19-13.49-69.89-2.07-13.7-1.19-31.36-1.19-31.36l-15.45-90.52s27.63-29.41,44.62-32.99v.44c.09,13.11,7.14,88.33,3.53,115.15,0,0,1.75,17.43,1.46,23.23s-1.46,90.23-1.46,90.23c0,0,12.85,14.72,14.46,16.47Z"/>
  <path class="cls-2" d="M63.88,9.13c.35-2.3,1.17-4.55,2.39-6.53.7-1.14,1.66-2.27,2.97-2.54,1.11-.23,2.24.17,3.35.5,3.79,1.11,7.84,1.02,11.77,1.05,3.96.03,8.01.17,11.69,1.66,3.58,1.46,6.79,4.46,7.49,8.28,1.02.29,1.95,1.02,2.54,1.92,1.02,1.57,1.17,3.53,1.22,5.39.26,6.32,0,12.71-.29,19.03-.35-.32-.82-.41-1.31-.32-1.37.23-2.59,2.71-2.77,3.03.09-1.72.12-2.83.12-2.83,0,0-.03-5.04-1.84-11.37-1.81-6.29-5.48-7.96-7.55-7.69-2.07.26-4.37,1.52-10.55,1.52s-8.48-1.25-10.55-1.52c-2.07-.26-5.74,1.37-7.55,7.69-1.81,6.29-1.84,11.37-1.84,11.37,0,0,.03,1.14.15,2.86,0,0-1.34-2.8-2.77-3.06-.55-.09-1.02.03-1.4.41-.47-5.62-.87-11.28-.58-16.9.12-2.42.38-4.9,1.28-7.11.85-2.01,2.21-3.82,4.02-4.84Z"/>
  <path class="cls-1" d="M44.71,186.88c-.38,0-.7-.26-.76-.64l-7.14-43.22-7.61-15.82c-.17-.38-.03-.85.35-1.02.38-.17.85-.03,1.02.35l7.64,15.91c.03.06.06.15.06.2l7.14,43.34c.06.41-.2.82-.64.87.03.03,0,.03-.06.03Z"/>
  <path class="cls-1" d="M57.91,161c-.29,0-.58-.17-.7-.47-.17-.38.03-.85.41-1.02.76-.32,18.45-7.69,25.88-6.91,7.31.79,26.67,5.39,27.48,5.57.41.09.67.52.58.93s-.52.67-.93.58c-.2-.06-20.08-4.75-27.31-5.54-7.05-.76-24.95,6.7-25.12,6.79-.09.03-.2.06-.29.06Z"/>
  <path class="cls-1" d="M5.01,295.47c-.38,0-.7-.26-.76-.64l-1.19-6.85c-.09-.41.2-.82.64-.9.41-.09.82.2.9.64l1.19,6.85c.09.41-.2.82-.64.9h-.15Z"/>
  <path class="cls-1" d="M19.12,311.2c-.17,0-.38-.06-.52-.2-.76-.7-7.49-6.79-8.51-8.57-1.02-1.81-3.03-13.14-3.26-14.46-.09-.41.2-.82.64-.9.41-.09.82.2.9.64.85,4.75,2.42,12.76,3.09,13.93.67,1.19,5.27,5.57,8.22,8.19.32.29.35.79.06,1.08-.17.2-.41.29-.61.29Z"/>
  <path class="cls-1" d="M41.76,372.29c-3.09,0-6.15-1.72-7.64-4.46-.2-.38-.06-.85.29-1.05.38-.2.85-.06,1.05.29,1.43,2.59,4.58,4.08,7.49,3.53.44-.09.82.2.9.61s-.2.82-.61.9c-.5.12-.99.17-1.49.17Z"/>
  <path class="cls-1" d="M22.56,512c-.09,0-.17,0-.26-.03-.85-.29-1.46-1.05-1.78-2.13-.38-1.28-.26-2.71.32-3.91s1.6-2.19,2.86-2.71c.38-.17.85.03,1.02.41.17.38-.03.85-.41,1.02-.87.38-1.63,1.08-2.04,1.95s-.5,1.89-.23,2.83c.17.58.47.99.82,1.11.41.15.61.58.47.99-.15.26-.44.47-.76.47Z"/>
  <path class="cls-1" d="M16.96,511.36h-.06c-.61-.03-1.14-.41-1.54-1.08-.55-.93-.76-2.1-.55-3.18.2-1.08.85-2.07,1.72-2.71.35-.26.82-.17,1.08.17s.17.82-.17,1.08c-.58.41-.99,1.08-1.14,1.78s0,1.46.35,2.07c.15.26.29.35.32.35.44.03.76.41.73.82.03.38-.32.7-.73.7Z"/>
  <path class="cls-1" d="M13.23,510.78h-.03c-.44-.03-.85-.23-1.11-.64-.2-.29-.32-.61-.38-.85-.41-1.54-.09-3.26.79-4.6.23-.35.73-.44,1.08-.2.35.23.44.73.2,1.08-.64.96-.87,2.21-.58,3.35.03.09.06.23.12.32.44.03.73.38.7.82,0,.41-.35.73-.79.73Z"/>
  <path class="cls-1" d="M9.82,510.22c-.2,0-.41-.09-.58-.26-.85-.93-1.28-2.24-1.11-3.53.15-1.25.87-2.42,1.92-3.15.35-.23.85-.15,1.08.2.23.35.15.85-.2,1.08-.7.47-1.17,1.22-1.25,2.04s.17,1.66.73,2.27c.29.32.26.82-.06,1.08-.17.2-.35.26-.52.26Z"/>
  <path class="cls-1" d="M48.26,481.57c-.17,0-.32-.06-.47-.17-1.08-.85-2.01-1.87-2.74-3.03-.23-.35-.12-.85.23-1.08s.85-.12,1.08.23c.64,1.02,1.46,1.89,2.42,2.65.35.26.41.76.15,1.08-.2.23-.44.32-.67.32Z"/>
  <path class="cls-1" d="M56.8,141.97c0,1.37-1.6,2.51-3.61,2.51s-3.61-1.11-3.61-2.51,1.6-2.51,3.61-2.51,3.61,1.14,3.61,2.51Z"/>
  <path class="cls-1" d="M117.24,141.97c0,1.37-1.6,2.51-3.61,2.51s-3.61-1.11-3.61-2.51,1.6-2.51,3.61-2.51c2.01.03,3.61,1.14,3.61,2.51Z"/>
  <path class="cls-1" d="M83.7,211.27c-.17,0-.35-.06-.5-.17-1.28-1.11-2.42-2.39-3.35-3.82-.23-.35-.15-.85.2-1.08.35-.23.85-.15,1.08.2.85,1.31,1.89,2.48,3.09,3.5.32.29.35.76.09,1.08-.2.2-.41.29-.61.29Z"/>
  <path class="cls-1" d="M122.11,186.88h-.12c-.41-.06-.73-.44-.67-.87l5.83-43.34c0-.09.03-.15.06-.23l7.64-15.91c.17-.38.64-.55,1.02-.35.38.17.55.64.35,1.02l-7.61,15.82-5.83,43.22c.06.38-.29.64-.67.64Z"/>
  <path class="cls-1" d="M160.52,295.47h-.15c-.41-.06-.7-.47-.64-.9l1.19-6.85c.09-.41.47-.73.9-.64.41.06.7.47.64.9l-1.19,6.85c-.06.38-.38.64-.76.64Z"/>
  <path class="cls-1" d="M146.39,311.2c-.2,0-.41-.09-.58-.26-.29-.32-.26-.82.06-1.08,2.91-2.65,7.52-6.99,8.22-8.19.67-1.17,2.24-9.18,3.09-13.93.09-.41.47-.7.9-.64.41.09.7.47.64.9-.23,1.28-2.24,12.65-3.26,14.46-1.02,1.81-7.75,7.9-8.51,8.57-.17.12-.35.17-.55.17Z"/>
  <path class="cls-1" d="M123.77,372.29c-.5,0-.99-.06-1.49-.15-.41-.09-.7-.5-.61-.9s.47-.7.9-.61c2.91.55,6.06-.93,7.49-3.53.2-.38.67-.52,1.05-.29.38.2.52.67.29,1.05-1.49,2.68-4.55,4.43-7.64,4.43Z"/>
  <path class="cls-1" d="M142.98,512c-.32,0-.61-.2-.73-.52-.15-.41.06-.85.47-.99.35-.12.64-.52.82-1.11.26-.93.17-1.95-.23-2.83s-1.17-1.57-2.04-1.95c-.41-.17-.58-.61-.41-1.02s.61-.58,1.02-.41c1.22.52,2.27,1.52,2.86,2.71.58,1.19.7,2.62.32,3.91-.32,1.08-.96,1.84-1.78,2.13-.15.06-.2.09-.29.09Z"/>
  <path class="cls-1" d="M148.54,511.36c-.41,0-.73-.32-.76-.73-.03-.44.29-.79.73-.82.03,0,.17-.09.32-.35.38-.61.5-1.37.35-2.07s-.55-1.34-1.14-1.78c-.35-.26-.41-.73-.17-1.08.26-.35.73-.41,1.08-.17.87.64,1.52,1.63,1.72,2.71.2,1.08,0,2.21-.55,3.18-.41.67-.93,1.05-1.54,1.08t-.03.03Z"/>
  <path class="cls-1" d="M152.27,510.78c-.41,0-.76-.32-.76-.73-.03-.41.29-.76.67-.79.06-.09.09-.23.12-.32.29-1.14.09-2.39-.58-3.35-.23-.35-.15-.85.2-1.08.35-.23.85-.15,1.08.2.9,1.34,1.19,3.06.79,4.6-.06.23-.15.55-.38.85-.26.38-.67.61-1.11.61t-.03,0Z"/>
  <path class="cls-1" d="M155.71,510.22c-.17,0-.38-.06-.52-.2-.32-.29-.35-.79-.06-1.08.55-.61.82-1.46.73-2.27s-.58-1.57-1.25-2.04c-.35-.23-.44-.73-.2-1.08.23-.35.73-.44,1.08-.2,1.05.7,1.78,1.87,1.92,3.15.15,1.25-.26,2.56-1.11,3.53-.17.12-.38.2-.58.2Z"/>
  <path class="cls-1" d="M117.24,481.57c-.23,0-.47-.09-.61-.29-.26-.32-.2-.82.15-1.08.93-.73,1.75-1.63,2.42-2.65.23-.35.7-.47,1.08-.23.35.23.47.7.23,1.08-.76,1.17-1.66,2.19-2.74,3.03-.17.12-.35.15-.52.15Z"/>
  <path class="cls-1" d="M84.92,52.53c.03.17-.2.35-.47.32-1.34-.15-5.04-.64-5.36-2.04-.29-1.31,2.77-7.05,4.2-9.59.15-.29.76-.23.79.09l.85,11.22Z"/>
  <path class="cls-2" d="M78.57,41.31c-.32,0-.61-.2-.73-.52-.03-.06-.7-1.69-3.67-1.69h-.03c-3.12,0-4.14,1.34-4.17,1.4-.26.35-.73.44-1.08.17-.35-.23-.44-.7-.2-1.05.06-.09,1.43-2.04,5.45-2.07h.03c4.11,0,5.07,2.62,5.13,2.71.15.41-.06.85-.47.99-.09.06-.17.06-.26.06Z"/>
  <path class="cls-2" d="M68.57,37.49c-.23,0-.44-.09-.61-.29-.26-.32-.2-.82.12-1.08,1.4-1.14,3.15-1.87,4.95-2.07,1.78-.2,3.67.09,5.27.87.38.17.55.64.38,1.02-.17.38-.64.55-1.02.38-1.37-.64-2.94-.9-4.43-.73-1.49.17-2.97.79-4.14,1.75-.17.09-.35.15-.52.15Z"/>
  <path class="cls-2" d="M75.45,38.42c.29.09.26.58.26.9,0,.96-.79,1.75-1.75,1.75s-1.75-.79-1.75-1.75c0-.32.09-.61.23-.87,0,.03,1.69-.41,3-.03Z"/>
  <path class="cls-2" d="M88.13,41.28c-.09,0-.17,0-.26-.06-.41-.15-.61-.58-.47-.96.03-.12.99-2.74,5.13-2.77,3.96,0,5.39,1.92,5.45,2.01.23.35.15.85-.2,1.08-.35.23-.82.15-1.08-.17-.06-.09-1.14-1.4-4.2-1.37-3,0-3.67,1.66-3.67,1.72-.09.32-.41.52-.7.52Z"/>
  <path class="cls-2" d="M98.1,37.37c-.17,0-.35-.06-.47-.17-1.19-.93-2.65-1.54-4.17-1.72-1.49-.17-3.09.12-4.43.76-.38.17-.85.03-1.02-.35-.17-.38-.03-.85.35-1.02,1.63-.79,3.5-1.11,5.27-.9s3.56.93,4.95,2.04c.32.26.38.76.12,1.08-.17.17-.38.29-.61.29Z"/>
  <path class="cls-2" d="M94.25,38.39c.23.17.23.55.23.87,0,.96-.79,1.75-1.75,1.75s-1.75-.79-1.75-1.75c0-.32.09-.64.23-.9,0,0,2.3-.5,3.03.03Z"/>
  <path class="cls-3" d="M76.27,49.61c.12,1.66-1.87,3.15-4.43,3.32-2.56.17-4.72-1.05-4.84-2.71-.12-1.66,1.87-3.15,4.43-3.32s4.72,1.05,4.84,2.71Z"/>
  <path class="cls-3" d="M99.17,48.51c.12,1.66-1.87,3.15-4.43,3.32-2.56.17-4.72-1.05-4.84-2.71-.12-1.66,1.87-3.15,4.43-3.32,2.56-.15,4.72,1.05,4.84,2.71Z"/>
  <path class="cls-1" d="M63.04,49.87c-.35,0-.64-.23-.76-.55-.64-2.27-1.57-4.46-2.83-6.47-.23-.38-.12-.85.26-1.05.38-.23.85-.12,1.05.26,1.31,2.13,2.3,4.46,2.97,6.85.12.41-.12.85-.52.96-.03-.03-.09,0-.17,0Z"/>
  <path class="cls-1" d="M103.87,49.55c-.06,0-.12,0-.17-.03-.41-.09-.67-.52-.58-.93.61-2.51,1.6-4.87,2.94-7.05.23-.38.7-.47,1.05-.26.38.23.47.7.26,1.05-1.25,2.04-2.19,4.28-2.74,6.62-.12.38-.41.61-.76.61Z"/>
  <path class="cls-2" d="M83.35,59.32c-1.34,0-2.3-.2-2.42-.23-.41-.09-.67-.5-.58-.93.09-.41.5-.67.93-.58.06,0,5.3,1.14,8.19-2.36.26-.32.76-.38,1.08-.09.32.26.38.76.09,1.08-2.1,2.59-5.16,3.12-7.29,3.12Z"/>
</svg>