<?xml version="1.0" encoding="utf-8"?>
<!-- Generator: Adobe Illustrator 28.1.0, SVG Export Plug-In . SVG Version: 6.00 Build 0)  -->
<svg version="1.1" id="Camada_1" xmlns="http://www.w3.org/2000/svg" xmlns:xlink="http://www.w3.org/1999/xlink" x="0px" y="0px"
	 viewBox="0 0 140.21 512" style="enable-background:new 0 0 140.21 512;" xml:space="preserve">
<style type="text/css">
	.st0{fill:#96C6DC;}
	.st1{fill:#BA7552;}
	.st2{fill:#E79E73;}
	.st3{fill:#2B3448;}
	.st4{fill:#DF895D;}
</style>
<g>
	<path class="st0" d="M107.79,244.83c-25.3-0.7-35.65,22.39-35.65,22.39c-2.04,1.05-4.14,0-4.14,0s-9.47-22.3-35.65-22.24
		c0.17-9.94,0.55-17.66,0.87-20.81c0,0,8.69,5.3,35.53,5.3s38.13-5.3,38.13-5.3C107.21,227.28,107.62,234.92,107.79,244.83z"/>
	<path class="st1" d="M82.2,61.31l0.41,4.78l0,0C73.89,80.4,56.67,77.17,56.67,77.17l1.22-14.78c2.59,3.61,5.92,7.02,6.97,7.84
		c1.72,1.28,4.78,1.37,4.78,1.37s3.06-0.09,4.75-1.37c1.2-0.87,5.1-4.98,7.78-8.98v0.06H82.2z"/>
	<path class="st2" d="M116.94,499.52c0,0,6.41,3.35,2.91,7.9c0,0-1.49,2.8-4.69,3.12c-2.51,0.26-8.6,0.67-11.11,0.82
		c-0.73,0.06-1.46-0.17-2.07-0.61l-6.82-4.96c0,0-6.35-2.19-7.46-4.17c-1.11-1.98,1.98-20.08,1.98-20.08s-0.87-3.26,0.12-9.62
		L76.95,366.49c0,0-1.08-9.53-1.17-14.31c-0.09-4.75-3.61-84.97-3.61-84.97s10.35-23.09,35.65-22.39
		c0.26,16.32-0.06,38.77-2.22,57.13c-3.47,29.47-3.96,68.5-3.96,68.5s4.69,27.92,4.08,38.13s-1.31,71.24-1.49,74.44
		C104.24,483.03,109.66,494.1,116.94,499.52z"/>
	<path class="st2" d="M68,267.19c0,0-3.56,80.22-3.61,84.97c-0.09,4.78-1.17,14.31-1.17,14.31L50.37,471.89
		c0.99,6.35,0.12,9.62,0.12,9.62s3.09,18.13,1.98,20.08c-1.11,1.98-7.46,4.17-7.46,4.17l-6.82,4.96c-0.61,0.47-1.34,0.67-2.07,0.61
		c-2.51-0.15-8.6-0.55-11.13-0.82c-3.21-0.32-4.69-3.12-4.69-3.12c-3.53-4.55,2.91-7.9,2.91-7.9c7.29-5.42,12.74-16.53,12.74-16.53
		c-0.17-3.21-0.87-64.24-1.49-74.44c-0.61-10.2,4.08-38.13,4.08-38.13s-0.5-39-3.93-68.5c-2.16-18.3-2.48-40.69-2.22-57.01
		C58.53,244.89,68,267.19,68,267.19z"/>
	<path class="st2" d="M138.37,258.06c0,0,2.39,24.95,1.72,27.2c-0.67,2.22-1.98,3.88-1.98,3.88s-0.09,2.97-0.23,3.88
		c-0.17,0.9-2.39,3.38-2.39,3.38s-1.11,1.89-2.89,2.86c-1.78,0.99-5.77,2.8-5.77,2.8l-4.2,3.88c0,0-2.59-0.85-1.14-3.96
		c1.43-3.12,3.79-7.43,3.79-7.43l1.08-14.81c0,0-1.63,0.06-1.63,2.1c0,2.04-0.5,9.21-1.22,10.43c-0.73,1.2-3.18,2.91-4.28,2.48
		s1.22-9.59,0.32-13.2c-0.9-3.61,0-7.2,0.32-8.54c0.38-1.34,5.86-16.09,5.86-16.09s-10.2-54.22-11.02-57.39
		c-0.82-3.18-0.5-11.13-0.5-11.13l-8.57-39.03l-3.06,29.29c0,0,3.5,37.08,4.37,45.47c0,0-11.25,5.3-38.13,5.3s-35.53-5.3-35.53-5.3
		c0.87-8.39,4.37-45.47,4.37-45.47l-3.06-29.29l-8.57,39.03c0,0,0.32,7.93-0.5,11.13c-0.82,3.18-11.02,57.39-11.02,57.39
		s5.48,14.75,5.86,16.09c0.38,1.34,1.22,4.93,0.32,8.54c-0.9,3.61,1.43,12.74,0.32,13.2c-1.11,0.44-3.56-1.28-4.28-2.48
		c-0.76-1.2-1.22-8.39-1.22-10.44c0-2.04-1.63-2.1-1.63-2.1l1.08,14.81c0,0,2.36,4.31,3.79,7.43c1.43,3.12-1.14,3.96-1.14,3.96
		l-4.2-3.88c0,0-3.99-1.78-5.77-2.8c-1.78-0.99-2.89-2.86-2.89-2.86s-2.22-2.48-2.39-3.38c-0.15-0.9-0.26-3.88-0.26-3.88
		s-1.31-1.63-1.98-3.88s1.72-27.2,1.72-27.2s3.7-52.73,4.96-60.16c1.22-7.43,3.79-19.24,3.79-19.24S16,118.5,19.3,104.01
		s17.81-15.89,17.81-15.89L56.7,77.2c0,0,17.23,3.24,25.94-11.08l0,0l0.9,11.08l19.59,10.93c0,0,14.49,1.4,17.81,15.89
		c3.29,14.49,8.72,74.65,8.72,74.65s2.57,11.8,3.79,19.24C134.64,205.36,138.37,258.06,138.37,258.06z"/>
	<path class="st2" d="M88.87,49.86c0.38-3.67,0.64-7.81,0.76-10.52c0,0,0.87-1.87,2.04-2.68c0.26-0.17,0.52-0.32,0.79-0.35
		c1.46-0.23,2.48,0.96,2.42,5.13c-0.09,4.17-2.59,7.43-3.64,8.22C90.19,50.38,88.87,49.86,88.87,49.86z"/>
	<path class="st2" d="M49.58,39.31L49.58,39.31c-0.09-1.72-0.12-2.83-0.12-2.83s0-5.04,1.87-11.37c1.81-6.3,5.54-7.96,7.64-7.7
		c2.1,0.26,4.43,1.52,10.67,1.52s8.57-1.25,10.67-1.52c2.1-0.26,5.83,1.37,7.64,7.7c1.81,6.3,1.87,11.37,1.87,11.37
		s0,1.14-0.15,2.86c-0.15,2.71-0.41,6.85-0.76,10.52c-0.26,2.59-0.58,4.93-0.93,6.35c-0.38,1.46-1.57,3.26-3.03,5.1
		c-3.26,3.99-8.02,8.1-9.47,8.98c-2.1,1.28-5.8,1.37-5.8,1.37s-3.73-0.09-5.83-1.37c-1.31-0.82-5.33-4.23-8.51-7.84
		c-1.92-2.19-3.53-4.46-3.99-6.24c-0.38-1.4-0.7-3.76-0.93-6.35C49.99,46.18,49.73,41.99,49.58,39.31z"/>
	<path class="st2" d="M49.58,39.31c0.15,2.68,0.41,6.88,0.79,10.55l0,0c0,0-1.31,0.55-2.36-0.23c-1.05-0.76-3.56-4.05-3.64-8.22
		c-0.09-4.17,0.96-5.36,2.42-5.13c0.26,0,0.52,0.17,0.79,0.35C48.59,37.41,49.44,39.04,49.58,39.31
		C49.58,39.31,49.58,39.31,49.58,39.31z"/>
	<path class="st3" d="M80.45,6.6c1.63,0.5,3.44,1.2,5.13,2.19c4.93,2.83,8.6,8.89,7.7,14.52c-0.73,4.55-1.4,11.02-1.63,13.35
		c-1.14,0.82-2.04,2.68-2.04,2.68c0.09-1.72,0.15-2.86,0.15-2.86s0-5.04-1.87-11.37c-1.84-6.3-5.57-7.96-7.64-7.7
		c-2.1,0.26-4.43,1.52-10.67,1.52c-6.24,0-8.57-1.25-10.67-1.52c-2.1-0.26-5.83,1.37-7.64,7.7c-1.84,6.3-1.87,11.37-1.87,11.37
		s0,1.11,0.12,2.83c-0.12-0.23-0.96-1.89-2.01-2.65c-0.23-2.33-0.9-8.8-1.63-13.35c-0.9-5.63,2.8-11.69,7.7-14.52
		c0.17-0.12,0.38-0.2,0.58-0.32c0.47-1.52,1.2-2.97,2.19-4.23c1.43-1.84,3.44-3.26,5.71-3.88c2.57-0.7,5.3-0.32,7.81,0.55
		c2.51,0.87,4.78,2.24,7.05,3.61C78.15,5.2,79.28,5.9,80.45,6.6z"/>
	<path class="st1" d="M37.6,179.42c-0.32,0-0.58-0.26-0.64-0.64c-1.25-9.74-4.98-52.76-5.04-53.2c0-0.44,0.2-0.82,0.58-0.85
		c0.35-0.06,0.67,0.26,0.7,0.7c0,0.44,3.76,43.43,5.01,53.11c0.06,0.41-0.17,0.82-0.52,0.87C37.69,179.42,37.6,179.42,37.6,179.42z"
		/>
	<path class="st1" d="M34.28,145.46c-0.23,0-0.44-0.15-0.55-0.38l-6.03-12.36c-0.17-0.38-0.09-0.85,0.23-1.05
		c0.32-0.2,0.7-0.09,0.87,0.26l6.03,12.36c0.17,0.38,0.09,0.85-0.23,1.05C34.51,145.43,34.4,145.46,34.28,145.46z"/>
	<path class="st1" d="M94.12,154.12c0,0-0.09,0-0.12-0.03c-18.1-4.4-49.96-0.03-50.28,0c-0.35,0.06-0.67-0.26-0.7-0.67
		c0-0.44,0.2-0.82,0.55-0.85c0.32-0.06,32.38-4.43,50.69,0c0.35,0.09,0.58,0.5,0.5,0.9C94.68,153.86,94.41,154.12,94.12,154.12z"/>
	<path class="st1" d="M70.51,199.91h-0.12c-1.22-0.26-2.42-0.99-3.29-2.04c-0.26-0.29-0.26-0.79,0-1.08c0.26-0.29,0.67-0.29,0.9,0
		c0.7,0.85,1.63,1.43,2.59,1.6c0.35,0.06,0.58,0.47,0.52,0.9C71.12,199.65,70.8,199.91,70.51,199.91z"/>
	<path class="st1" d="M13.32,302.83c-0.2,0-0.41-0.12-0.52-0.32c-0.61-1.02-3.67-6.24-3.73-8.31c-0.06-1.49-1.14-8.8-1.72-12.45
		c-0.06-0.41,0.17-0.82,0.52-0.9c0.35-0.09,0.67,0.2,0.76,0.61c0.06,0.44,1.69,10.7,1.75,12.68c0,1.17,2.07,5.07,3.5,7.46
		c0.2,0.35,0.15,0.82-0.15,1.08C13.59,302.77,13.44,302.83,13.32,302.83z"/>
	<path class="st1" d="M5.37,298.14c-0.2,0-0.38-0.12-0.52-0.32c-1.78-2.86-1.34-12.94-1.28-14.11c0.03-0.44,0.32-0.76,0.67-0.73
		s0.61,0.38,0.61,0.82c-0.15,2.94-0.23,11.05,1.02,13.09c0.2,0.35,0.15,0.82-0.12,1.08C5.63,298.08,5.51,298.14,5.37,298.14z"/>
	<path class="st1" d="M2.01,289.92c-0.32,0-0.61-0.32-0.64-0.7l-0.41-6.09c-0.03-0.44,0.23-0.79,0.58-0.85c0.38,0,0.67,0.29,0.7,0.7
		l0.41,6.09c0.03,0.44-0.23,0.79-0.58,0.85H2.01z"/>
	<path class="st1" d="M53.66,371.8c-4.34,0-7.11-4.4-7.14-4.46c-0.2-0.35-0.15-0.82,0.15-1.08c0.29-0.26,0.7-0.17,0.9,0.15
		c0.15,0.26,3.85,6.09,9.33,2.89c0.32-0.17,0.7,0,0.85,0.35c0.15,0.38,0,0.85-0.29,1.02C56.08,371.48,54.83,371.8,53.66,371.8z"/>
	<path class="st1" d="M48.04,481.98c-0.15,0-0.32-0.06-0.44-0.2c-1.11-1.2-1.78-2.91-1.81-4.72c0-0.44,0.26-0.79,0.61-0.79
		s0.64,0.32,0.67,0.76c0,1.34,0.55,2.71,1.4,3.61c0.26,0.29,0.29,0.79,0.06,1.08C48.39,481.92,48.21,481.98,48.04,481.98
		L48.04,481.98z"/>
	<path class="st1" d="M102.28,179.6h-0.09c-0.35-0.06-0.58-0.47-0.52-0.87c1.25-9.71,4.98-52.7,5.01-53.11c0-0.44,0.35-0.73,0.7-0.7
		c0.35,0.06,0.61,0.44,0.58,0.85c0,0.44-3.76,43.46-5.04,53.2C102.87,179.3,102.6,179.6,102.28,179.6z"/>
	<path class="st1" d="M105.61,145.61c0,0-0.23-0.03-0.32-0.12c-0.29-0.2-0.41-0.7-0.23-1.05l6.03-12.36
		c0.17-0.38,0.58-0.5,0.87-0.26c0.29,0.2,0.41,0.7,0.23,1.05l-6.03,12.36C106.04,145.49,105.81,145.61,105.61,145.61z"/>
	<path class="st1" d="M126.59,302.98c0,0-0.26-0.06-0.38-0.15c-0.29-0.26-0.35-0.73-0.15-1.08c1.43-2.39,3.47-6.3,3.5-7.46
		c0.06-1.98,1.66-12.24,1.75-12.68c0.06-0.41,0.41-0.7,0.76-0.61c0.35,0.09,0.58,0.5,0.52,0.9c-0.58,3.64-1.66,10.96-1.72,12.45
		c-0.06,2.07-3.12,7.29-3.73,8.31C126.97,302.86,126.77,302.98,126.59,302.98z"/>
	<path class="st1" d="M134.52,298.29c-0.15,0-0.26-0.06-0.38-0.15c-0.29-0.26-0.35-0.73-0.12-1.08c1.25-2.04,1.17-10.14,1.02-13.09
		c0-0.44,0.26-0.79,0.61-0.82c0.35-0.06,0.67,0.29,0.67,0.73c0.06,1.14,0.5,11.25-1.28,14.11
		C134.9,298.2,134.72,298.29,134.52,298.29z"/>
	<path class="st1" d="M137.87,290.07h-0.06c-0.35,0-0.61-0.41-0.58-0.85l0.41-6.09c0-0.44,0.32-0.73,0.7-0.7
		c0.35,0,0.61,0.41,0.58,0.85l-0.41,6.09C138.51,289.75,138.19,290.07,137.87,290.07z"/>
	<path class="st1" d="M86.22,371.94c-1.17,0-2.42-0.32-3.79-1.11c-0.32-0.17-0.47-0.64-0.29-1.02c0.15-0.38,0.52-0.55,0.85-0.35
		c5.48,3.21,9.18-2.65,9.33-2.89c0.2-0.35,0.61-0.41,0.9-0.15c0.29,0.26,0.35,0.73,0.15,1.08
		C93.36,367.54,90.57,371.94,86.22,371.94L86.22,371.94z"/>
	<path class="st1" d="M91.85,482.15c-0.17,0-0.35-0.09-0.47-0.26c-0.23-0.32-0.2-0.82,0.06-1.08c0.85-0.9,1.37-2.24,1.4-3.61
		c0-0.44,0.35-0.76,0.67-0.76c0.35,0,0.64,0.38,0.61,0.79c-0.06,1.78-0.7,3.5-1.81,4.72C92.17,482.09,92.02,482.15,91.85,482.15
		L91.85,482.15z"/>
	<path class="st1" d="M47.69,139.22c0,1.37-1.34,2.51-3,2.51s-3-1.11-3-2.51s1.34-2.51,3-2.51S47.69,137.85,47.69,139.22z"/>
	<path class="st1" d="M94.85,139.22c0,1.37-1.34,2.51-3,2.51c-1.66,0-3-1.11-3-2.51s1.34-2.51,3-2.51
		C93.51,136.72,94.85,137.85,94.85,139.22z"/>
	<path class="st1" d="M33.55,512c-0.15,0-0.29-0.06-0.41-0.17c-1.2-1.22-1.89-3.06-1.84-4.96c0.06-1.89,0.82-3.67,2.1-4.81
		c0.29-0.26,0.7-0.17,0.9,0.15c0.2,0.35,0.15,0.82-0.15,1.08c-0.93,0.85-1.54,2.22-1.57,3.61c0,1.4,0.5,2.83,1.37,3.73
		c0.26,0.26,0.32,0.76,0.09,1.08C33.93,511.91,33.73,512,33.55,512L33.55,512z"/>
	<path class="st1" d="M28.6,511.39c-0.17,0-0.38-0.09-0.5-0.29c-0.7-1.05-1.02-2.39-0.9-3.73c0.15-1.34,0.73-2.57,1.6-3.35
		c0.29-0.26,0.7-0.17,0.9,0.15c0.2,0.35,0.15,0.82-0.12,1.08c-0.61,0.55-1.02,1.43-1.11,2.3c-0.09,0.9,0.15,1.87,0.61,2.57
		c0.23,0.32,0.17,0.82-0.09,1.08C28.89,511.33,28.74,511.39,28.6,511.39z"/>
	<path class="st1" d="M25.83,511.04c0,0-0.23,0-0.35-0.12c-0.76-0.58-1.28-1.66-1.4-2.89c-0.12-1.17,0.15-2.3,0.32-3.06
		c0.06-0.17,0.12-0.47,0.29-0.73c0.23-0.35,0.61-0.55,0.96-0.5c0.35,0.06,0.58,0.47,0.52,0.87c-0.06,0.35-0.26,0.58-0.52,0.64
		c0,0.06,0,0.12,0,0.15c-0.26,0.96-0.35,1.75-0.29,2.39c0.09,0.76,0.38,1.43,0.82,1.78c0.29,0.23,0.38,0.7,0.2,1.08
		c-0.12,0.26-0.32,0.38-0.52,0.38L25.83,511.04z"/>
	<path class="st1" d="M21.57,509.87c-0.26,0-0.5-0.2-0.61-0.5c-0.47-1.46-0.47-3.15,0-4.61c0.32-0.99,0.85-1.2,1.14-1.22
		c0.35,0,0.67,0.26,0.7,0.7c0,0.41-0.2,0.76-0.52,0.85c0,0-0.06,0.12-0.12,0.26c-0.35,1.11-0.35,2.39,0,3.5
		c0.12,0.41,0,0.85-0.38,0.99C21.72,509.84,21.63,509.87,21.57,509.87L21.57,509.87z"/>
	<path class="st1" d="M107.3,511.27c0,0-0.2,0-0.32-0.12c-0.32-0.2-0.41-0.67-0.23-1.05c0.47-0.96,0.55-2.19,0.26-3.24
		c-0.29-1.05-0.96-1.95-1.81-2.39c-0.32-0.17-0.47-0.61-0.32-1.02c0.15-0.38,0.52-0.58,0.85-0.41c1.17,0.61,2.13,1.87,2.51,3.32
		c0.41,1.46,0.26,3.15-0.38,4.49C107.73,511.13,107.53,511.27,107.3,511.27L107.3,511.27z"/>
	<path class="st1" d="M110.47,511.27c-0.15,0-0.26-0.06-0.38-0.15c-0.29-0.26-0.32-0.76-0.12-1.08c0.47-0.73,0.67-1.66,0.58-2.57
		s-0.47-1.78-1.05-2.36c-0.26-0.26-0.29-0.76-0.09-1.08c0.23-0.32,0.64-0.35,0.9-0.09c0.82,0.85,1.37,2.07,1.49,3.38
		c0.12,1.28-0.2,2.62-0.85,3.67C110.85,511.15,110.68,511.27,110.47,511.27z"/>
	<path class="st1" d="M113.59,510.78c-0.15,0-0.26-0.06-0.38-0.15c-0.29-0.26-0.35-0.73-0.15-1.08c0.35-0.58,0.52-1.31,0.44-2.01
		c-0.06-0.7-0.35-1.37-0.82-1.84c-0.26-0.29-0.29-0.76-0.06-1.08s0.64-0.35,0.9-0.09c0.7,0.73,1.14,1.75,1.22,2.83
		s-0.15,2.22-0.7,3.09C114,510.66,113.8,510.78,113.59,510.78z"/>
	<path class="st1" d="M118.17,509.17c0,0-0.09,0-0.12,0c-0.35-0.09-0.58-0.5-0.5-0.9c0.2-1.28-0.44-2.68-1.43-3.15
		c-0.32-0.15-0.5-0.61-0.35-0.99c0.12-0.41,0.5-0.58,0.85-0.44c1.57,0.76,2.57,2.89,2.22,4.9c-0.09,0.38-0.35,0.61-0.67,0.61V509.17
		z"/>
	<path class="st1" d="M71.41,50.44c0,0.17-0.2,0.35-0.47,0.32c-1.37-0.15-5.1-0.64-5.42-2.04c-0.29-1.31,2.8-7.05,4.23-9.59
		c0.15-0.29,0.76-0.23,0.79,0.09L71.41,50.44z"/>
	<path class="st3" d="M65,39.22c-0.32,0-0.61-0.2-0.73-0.52c0-0.06-0.7-1.69-3.7-1.69l0,0c-3.18,0-4.17,1.34-4.23,1.4
		c-0.26,0.35-0.73,0.44-1.08,0.17c-0.35-0.23-0.44-0.7-0.2-1.05c0.06-0.09,1.46-2.04,5.51-2.07l0,0c4.17,0,5.13,2.62,5.19,2.71
		c0.15,0.41-0.06,0.85-0.47,0.99C65.18,39.22,65.09,39.22,65,39.22z"/>
	<path class="st3" d="M54.89,35.4c-0.23,0-0.47-0.09-0.61-0.29c-0.26-0.32-0.2-0.82,0.12-1.08c1.43-1.14,3.21-1.87,4.98-2.07
		c1.81-0.2,3.7,0.09,5.33,0.87c0.38,0.17,0.55,0.64,0.38,1.02s-0.64,0.55-1.05,0.38c-1.37-0.64-2.97-0.9-4.49-0.73
		c-1.52,0.17-3,0.79-4.2,1.75C55.24,35.34,55.06,35.4,54.89,35.4z"/>
	<path class="st3" d="M61.83,36.36c0.29,0.09,0.26,0.58,0.26,0.9c0,0.96-0.79,1.75-1.78,1.75s-1.78-0.79-1.78-1.75
		c0-0.32,0.09-0.61,0.23-0.87C58.79,36.39,60.51,35.95,61.83,36.36z"/>
	<path class="st3" d="M74.65,39.19c0,0-0.17,0-0.26-0.06c-0.41-0.15-0.61-0.58-0.47-0.96c0-0.12,0.99-2.74,5.19-2.77h0.06
		c4.02,0,5.42,1.92,5.48,2.01c0.23,0.35,0.15,0.85-0.2,1.08c-0.35,0.23-0.85,0.15-1.08-0.17c-0.06-0.06-1.08-1.37-4.2-1.37l0,0
		c-3.03,0-3.7,1.66-3.73,1.72c-0.15,0.32-0.44,0.52-0.76,0.52L74.65,39.19z"/>
	<path class="st3" d="M84.74,35.28c-0.17,0-0.35-0.06-0.5-0.17c-1.2-0.93-2.68-1.54-4.2-1.72c-1.52-0.17-3.12,0.12-4.49,0.76
		c-0.38,0.17-0.85,0-1.05-0.35c-0.17-0.38,0-0.85,0.35-1.02c1.63-0.79,3.53-1.11,5.33-0.9c1.81,0.2,3.59,0.93,5.01,2.04
		c0.35,0.26,0.41,0.76,0.12,1.08C85.17,35.17,84.97,35.28,84.74,35.28z"/>
	<path class="st3" d="M80.83,36.3c0.23,0.17,0.23,0.55,0.23,0.87c0,0.96-0.79,1.75-1.78,1.75s-1.78-0.79-1.78-1.75
		c0-0.32,0.09-0.64,0.26-0.9C77.8,36.3,80.1,35.81,80.83,36.3z"/>
	<path class="st4" d="M62.64,47.53c0.12,1.66-1.89,3.15-4.49,3.32c-2.59,0.17-4.78-1.05-4.87-2.71c-0.12-1.66,1.89-3.15,4.49-3.32
		C60.34,44.64,62.52,45.86,62.64,47.53z"/>
	<path class="st4" d="M85.81,46.45c0.12,1.66-1.89,3.15-4.49,3.32c-2.59,0.17-4.78-1.05-4.87-2.71c-0.12-1.66,1.89-3.15,4.49-3.32
		C83.51,43.56,85.7,44.79,85.81,46.45z"/>
	<path class="st1" d="M49.26,47.79c-0.35,0-0.64-0.23-0.76-0.55c-0.64-2.27-1.6-4.46-2.86-6.47c-0.23-0.38-0.12-0.85,0.26-1.05
		c0.38-0.23,0.85-0.12,1.08,0.26c1.31,2.13,2.33,4.43,3.03,6.85c0.12,0.41-0.12,0.85-0.55,0.96C49.41,47.76,49.35,47.79,49.26,47.79
		z"/>
	<path class="st1" d="M90.57,47.47c0,0-0.12,0-0.17,0c-0.41-0.09-0.67-0.52-0.58-0.93c0.61-2.51,1.6-4.87,2.97-7.05
		c0.23-0.35,0.7-0.47,1.08-0.26c0.38,0.23,0.5,0.7,0.26,1.05c-1.28,2.07-2.22,4.28-2.77,6.62c-0.12,0.38-0.44,0.61-0.79,0.61
		L90.57,47.47z"/>
	<path class="st3" d="M69.84,57.23c-1.37,0-2.33-0.2-2.45-0.23c-0.41-0.09-0.67-0.5-0.58-0.93c0.09-0.41,0.52-0.67,0.93-0.58
		c0.06,0,5.36,1.14,8.31-2.36c0.26-0.32,0.76-0.38,1.11-0.09c0.32,0.26,0.38,0.76,0.09,1.08C75.06,56.71,71.97,57.23,69.84,57.23z"
		/>
</g>
</svg>
