<svg width="309" height="309" viewBox="0 0 309 309" fill="none" xmlns="http://www.w3.org/2000/svg">
<path d="M73.8176 147.955C65.9712 161.504 61.4848 177.222 61.4848 193.997H4.7872V193.69C4.7872 193.37 4.7872 193.05 4.7936 192.73C5.0176 166.112 12.2432 141.171 24.7168 119.629L73.8176 147.955Z" fill="#7FC8DF"/>
<path d="M107.558 114.24C93.6448 122.278 82.0416 133.85 73.952 147.718C73.9072 147.795 73.8624 147.872 73.8176 147.949L24.7168 119.622V119.616C24.7616 119.539 24.8064 119.469 24.8512 119.386C37.9072 96.9216 56.6976 78.1888 79.2064 65.1776L107.558 114.24Z" fill="#34DEAB"/>
<path d="M228.083 65.1904L199.738 114.246C199.686 114.214 199.648 114.195 199.597 114.17C186.074 106.381 170.381 101.926 153.645 101.926V45.28C180.71 45.28 206.08 52.5056 227.949 65.1136C227.987 65.1328 228.038 65.1648 228.083 65.1904Z" fill="#FF9E7E"/>
<path d="M282.579 119.622L233.472 147.955C233.427 147.878 233.382 147.802 233.338 147.725C225.248 133.856 213.645 122.285 199.738 114.246L228.083 65.1904C250.598 78.2016 269.382 96.9344 282.445 119.398C282.49 119.475 282.534 119.546 282.579 119.622Z" fill="#FA7570"/>
<path d="M302.502 193.683V193.99H245.811C245.811 177.216 241.325 161.498 233.472 147.949L282.579 119.622C295.053 141.165 302.272 166.106 302.496 192.723C302.502 193.05 302.502 193.363 302.502 193.683Z" fill="#EC574E"/>
<path d="M155.206 45.2864H152.077V102.24H155.206V45.2864Z" fill="white"/>
<path d="M200.947 115.264L198.24 113.702L226.72 64.416L229.44 65.9648L229.306 66.2016L200.947 115.264Z" fill="white"/>
<path d="M73.1712 149.395L23.936 120.992L25.4848 118.272L25.6256 118.355L74.7328 146.682L73.1712 149.395Z" fill="white"/>
<path d="M106.336 115.264L77.8432 65.9648L80.5632 64.416L80.6976 64.6528L109.05 113.702L106.336 115.264Z" fill="white"/>
<path d="M234.118 149.395L232.557 146.682L281.805 118.278L283.354 120.992L283.219 121.069L234.118 149.395Z" fill="white"/>
<path d="M303.283 194.003H301.715C301.715 167.994 294.861 142.413 281.901 120.026C268.902 97.5808 250.157 78.8544 227.693 65.8688C205.286 52.9152 179.68 46.0672 153.645 46.0672C127.61 46.0672 102.003 52.9152 79.5968 65.8688C57.1264 78.8544 38.3808 97.5808 25.3888 120.026C12.4224 142.413 5.568 167.987 5.568 194.003H4C4 167.718 10.9248 141.862 24.0256 119.245C37.1584 96.5632 56.1024 77.6384 78.8096 64.5184C101.453 51.4304 127.328 44.512 153.638 44.512C179.949 44.512 205.824 51.4304 228.467 64.5184C251.174 77.6384 270.112 96.5632 283.251 119.245C296.358 141.862 303.283 167.718 303.283 194.003Z" fill="#5E3B3B"/>
<path d="M158.49 40.7808V101.818C156.883 101.734 155.27 101.69 153.645 101.69C136.774 101.69 120.96 106.195 107.334 114.074C106.432 114.598 105.536 115.136 104.646 115.686L74.3616 63.2832C74.4128 63.2512 74.464 63.2256 74.5088 63.1936C99.232 48.9472 127.904 40.7808 158.49 40.7808Z" fill="#F1D581"/>
<g opacity="0.54">
<path d="M158.49 101.818C156.883 101.734 155.27 101.69 153.645 101.69C136.774 101.69 120.96 106.195 107.334 114.074C106.432 114.598 105.536 115.136 104.646 115.686L74.6112 63.7184L74.5088 63.1936L158.49 101.818Z" fill="#F1D581"/>
</g>
<path d="M104.371 116.787L73.2928 63.0144L74.1056 62.528C99.6736 47.7888 128.845 40 158.49 40H159.27V102.643L158.445 102.598C156.832 102.515 155.213 102.477 153.638 102.477C137.485 102.477 121.606 106.72 107.718 114.758C106.778 115.302 105.907 115.827 105.056 116.358L104.371 116.787ZM75.4304 63.5776L104.922 114.605C105.574 114.208 106.246 113.805 106.944 113.402C121.069 105.229 137.222 100.915 153.651 100.915C154.982 100.915 156.352 100.947 157.715 101.005V41.5744C128.813 41.7024 100.39 49.3056 75.4304 63.5776Z" fill="#5E3B3B"/>
<path d="M236.09 193.997H234.522C234.522 179.776 230.778 165.792 223.693 153.555L223.565 153.344C216.474 141.171 206.278 131.002 194.08 123.942C194.048 123.923 194.022 123.91 193.997 123.898C181.747 116.838 167.802 113.12 153.632 113.12C139.462 113.12 125.517 116.838 113.306 123.878L113.171 123.955C100.986 131.008 90.7904 141.171 83.6928 153.357L83.5776 153.555C76.4928 165.805 72.7488 179.789 72.7488 194.003H71.1808C71.1808 179.507 74.9952 165.254 82.2144 152.774L82.3296 152.576C89.568 140.147 99.9616 129.779 112.397 122.586L112.531 122.509C124.966 115.341 139.181 111.552 153.626 111.552C168.07 111.552 182.285 115.341 194.733 122.515C194.752 122.522 194.803 122.554 194.867 122.586C207.29 129.779 217.683 140.141 224.915 152.557L225.043 152.774C232.269 165.242 236.09 179.494 236.09 193.997Z" fill="#5E3B3B"/>
<path d="M153.728 112.339H152.16V122.189H153.728V112.339Z" fill="#5E3B3B"/>
<path d="M95.7531 135.696L94.6443 136.805L101.962 144.123L103.071 143.014L95.7531 135.696Z" fill="#5E3B3B"/>
<path d="M210.124 135.698L203.507 142.314L204.616 143.423L211.232 136.807L210.124 135.698Z" fill="#5E3B3B"/>
<path d="M86.6944 167.942L76.9856 164L77.568 162.547L78.1568 162.784L87.2832 166.49L86.6944 167.942Z" fill="#5E3B3B"/>
<path d="M182.934 118.03L179.332 126.901L180.784 127.491L184.387 118.62L182.934 118.03Z" fill="#5E3B3B"/>
<path d="M124.378 128.39L120.442 119.072L121.882 118.47L121.984 118.707L125.818 127.782L124.378 128.39Z" fill="#5E3B3B"/>
<path d="M227.856 161.487L219.396 165.062L220.007 166.506L228.466 162.931L227.856 161.487Z" fill="#5E3B3B"/>
<path d="M82.9312 181.376L72.5952 179.392L72.8832 177.856L73.5488 177.978L83.2256 179.84L82.9312 181.376Z" fill="#5E3B3B"/>
<path d="M167.524 113.65L165.698 123.185L167.238 123.48L169.064 113.945L167.524 113.65Z" fill="#5E3B3B"/>
<path d="M107.747 125.966L106.45 126.846L112.197 135.32L113.495 134.44L107.747 125.966Z" fill="#5E3B3B"/>
<path d="M220.079 147.497L212.41 152.699L213.29 153.997L220.959 148.795L220.079 147.497Z" fill="#5E3B3B"/>
<path d="M84.8428 148.908L83.9901 150.224L92.75 155.9L93.6027 154.585L84.8428 148.908Z" fill="#5E3B3B"/>
<path d="M196.704 125.043L191.557 132.987L192.874 133.84L198.02 125.895L196.704 125.043Z" fill="#5E3B3B"/>
<path d="M137.21 124.064L135.13 114.304L136.659 113.965L136.685 114.093L138.746 123.738L137.21 124.064Z" fill="#5E3B3B"/>
<path d="M232.638 176.172L223.694 178.084L224.022 179.617L232.965 177.705L232.638 176.172Z" fill="#5E3B3B"/>
<path d="M215.674 193.395H91.616V194.963H215.674V193.395Z" fill="#5E3B3B"/>
<path d="M150.778 194.278L162.24 191.008L158.906 182.656L141.222 138.406C140.608 137.011 139.002 137.466 139.219 138.982L147.181 183.667L149.05 194.144L150.778 194.278Z" fill="#EC574E"/>
<path d="M150.995 195.034L150.566 193.53L161.19 190.496L140.493 138.694C140.371 138.413 140.198 138.33 140.122 138.349C140.045 138.368 139.942 138.528 139.994 138.867L149.818 194.003L148.275 194.278L138.445 139.11C138.259 137.837 138.963 137.05 139.686 136.838C140.416 136.627 141.427 136.928 141.926 138.08L163.277 191.514L150.995 195.034Z" fill="#5E3B3B"/>
<path d="M168.09 194.182C168.09 189.274 165.331 185.005 161.28 182.842C159.488 181.882 157.427 181.338 155.251 181.338C150.758 181.338 146.803 183.648 144.525 187.142C143.194 189.158 142.419 191.578 142.419 194.176H168.09V194.182Z" fill="#5E3B3B"/>
<path d="M111.364 225.815V266H100.192V225.815H111.364Z" fill="#503C3C"/>
<path d="M164.637 225.815V266H153.465V243.827L145.884 266H136.536L128.898 243.656V266H117.726V225.815H131.235L141.324 251.921L151.185 225.815H164.637Z" fill="#503C3C"/>
<path d="M169.629 245.822C169.629 241.87 170.446 238.355 172.08 235.277C173.752 232.161 176.108 229.748 179.148 228.038C182.188 226.29 185.684 225.416 189.636 225.416C194.652 225.416 198.87 226.765 202.29 229.463C205.71 232.123 207.914 235.752 208.902 240.35H196.875C196.153 238.83 195.146 237.671 193.854 236.873C192.6 236.075 191.137 235.676 189.465 235.676C186.881 235.676 184.81 236.607 183.252 238.469C181.732 240.293 180.972 242.744 180.972 245.822C180.972 248.938 181.732 251.427 183.252 253.289C184.81 255.113 186.881 256.025 189.465 256.025C191.137 256.025 192.6 255.626 193.854 254.828C195.146 254.03 196.153 252.871 196.875 251.351H208.902C207.914 255.949 205.71 259.597 202.29 262.295C198.87 264.955 194.652 266.285 189.636 266.285C185.684 266.285 182.188 265.43 179.148 263.72C176.108 261.972 173.752 259.559 172.08 256.481C170.446 253.365 169.629 249.812 169.629 245.822Z" fill="#503C3C"/>
</svg>
