<?xml version="1.0" encoding="UTF-8"?>
<svg id="Camada_1" data-name="Camada 1" xmlns="http://www.w3.org/2000/svg" viewBox="0 0 164.84 512">
  <defs>
    <style>
      .cls-1 {
        fill: #bb7652;
      }

      .cls-1, .cls-2, .cls-3, .cls-4, .cls-5 {
        stroke-width: 0px;
      }

      .cls-2 {
        fill: #2b3448;
      }

      .cls-3 {
        fill: #df895d;
      }

      .cls-4 {
        fill: #8cc9a5;
      }

      .cls-5 {
        fill: #e79f74;
      }
    </style>
  </defs>
  <path class="cls-1" d="M86.29,63.58c3.42,4.59,8.17,8.75,14.3,8.97.18.03.34.03.52.03h0c.15,0,.34,0,.52-.03,4.22-.15,7.8-2.16,10.72-4.9l.4,3.73c-10.39,8.91-27.92,5.98-27.92,5.98l1.45-13.78Z"/>
  <path class="cls-5" d="M97.63,427.87c-3.33,17.75-7.55,41.05-7.43,44.44.06,1.36.28,4.22.52,7.77.55,8.17,1.14,20.09-.43,26.32-.55,2.16-1.39,3.67-2.53,4.07-5.98,2.06-18.61.12-21.14-2.19s-.06-13.78,1.82-18.68c1.85-4.9,2.96-15.35,2.96-15.35,0,0,0-54.39-.52-80.43s12.11-33.25,12.11-33.25c-25.67-59.17-30.39-95.23-30.76-112.36,0,0,35.78,3.08,54.21,23.58,0,0,6.78,80.43,5.86,87.77-.89,7.33-10.76,47.67-10.76,47.67,0,0-1.76,9.18-3.91,20.65Z"/>
  <path class="cls-5" d="M131.62,89.8c7.52,3.61,15.07,7.86,17.5,11.22,5.33,7.4,14.27,84.04,14.27,84.04l.25,56.89s1.2,15.62,1.2,17.54-7.74,11.96-8.07,13.07-2.43,7.89-7.4,9.86c3.17-19.82,5.55-38.49,4.99-47.64-.37-6.19-2.13-12.88-4.53-19.41-1.76-4.78-3.85-9.43-6.04-13.78v-.03l-5.64-25.52-6.07-25.33c2.5-4.72,4.75-10.35,4.72-15.29-.09-11-13.44-49.37-13.44-49.37,2.53,1.08,5.39,2.37,8.26,3.76Z"/>
  <path class="cls-5" d="M154.39,233.23c.55,9.12-1.82,29.65-4.99,49.43-5.27,32.97-12.79,68.97-12.79,68.97,0,0,2.47,26.87.77,39.38-1.66,12.51-24.07,72.91-24.07,72.91,0,0,4.31,33.28,1.82,38.95-2.5,5.67-19.75,6.32-24.84,3.79,1.57-6.23.99-18.15.43-26.32,0-.15,6.16-17.84,6.16-17.84l.71-34.36c2.13-11.46,3.91-20.62,3.91-20.62,0,0,9.86-40.34,10.76-47.67.89-7.33-5.86-89.59-5.86-89.59,9.18-27.7,47.98-37.04,47.98-37.04Z"/>
  <path class="cls-4" d="M149.86,215.35c2.4,6.53,4.16,13.22,4.53,19.41,0,0-38.77,9.34-47.92,37.04-18.43-20.49-54.21-23.58-54.21-23.58-.15-8.01.62-11.9.68-12.11,2.4-1.05,3.98-2.19,3.98-2.19,0,0,5.36,2.53,9.74,2.65,4.35.12,6.13-2.53,6.13-2.53,0,0,4.19,2.62,5.86.52s.18-2.9.18-2.9c0,0,.99.15,1.23-.71,0,0,42.25,5.55,69.37-15.41l.43-.22Z"/>
  <path class="cls-5" d="M149.83,215.35l-.43.18c-27.12,20.96-69.37,15.41-69.37,15.41.25-.86-24.44.46-25.89-.46-.22-.12-.18-.52,0-1.05v-15.47c3.64-22.13,6.69-24.87,6.69-24.87l-5.55-23.08s31.99-13.34,70.97-2.65l3.91,15.22s7.12,9.98,13.65,23.02l.03.03c2.13,4.28,4.22,8.94,5.98,13.71Z"/>
  <path class="cls-4" d="M136.77,135.41c.03,4.96-2.22,10.6-4.72,15.29-3.05,5.76-6.47,10.14-6.47,10.14l.62,2.47c-38.98-10.69-70.94,2.65-70.94,2.65l-6.32-26.38c25.46-.03,15.59-56.24,15.44-57.1h0c1.48-.43,2.93-.8,4.35-1.2.06.83,3.45,40.12,32.36,39.35,29.03-.77,17.26-36.27,17.1-36.77,1.45.59,3.2,1.33,5.15,2.16,0,.03,13.37,38.4,13.44,49.4Z"/>
  <path class="cls-5" d="M125.98,50.2c-.25.28-.49.52-.71.65-1.17.86-2.62.25-2.62.25l-.4-.09c.22-.89.37-1.82.46-2.71.18-1.94.43-4.53.62-6.63.92-1.66,1.69-3.45,2.28-5.33.12-.37.25-.74.34-1.14l.09.03c1.08.4,3.42,2.71,3.36,6.35-.12,3.94-2.1,7.15-3.42,8.63Z"/>
  <path class="cls-5" d="M123.49,39.2h0c-.03.62-.09,1.48-.18,2.47-.18,2.1-.43,4.68-.62,6.63-.09.92-.25,1.85-.46,2.71-.28,1.17-.65,2.28-1.11,3.39-1.08,2.47-2.84,5.95-5.27,9.21-1.05,1.42-2.25,2.77-3.54,4.01-2.93,2.74-6.5,4.75-10.72,4.9-.15.03-.34.03-.52.03h0c-.18,0-.34,0-.52-.03-6.13-.22-10.88-4.38-14.3-8.97-2.47-3.3-4.22-6.87-5.3-9.34-.43-.99-.77-2-1.05-3.05-.25-.96-.43-1.94-.52-2.93-.25-2.28-.43-4.62-.55-6.66-.06-.92-.12-1.82-.15-2.56h0c.59-.4,19.17-12.82,22.07-25.79.15-.65.25-1.33.34-1.97.06,0,18.74,3.48,22.43,27.95Z"/>
  <path class="cls-5" d="M118.22,83.85c.15.49,11.93,35.99-17.1,36.77-28.94.77-32.3-38.52-32.36-39.35,8.69-2.34,16.06-3.94,16.06-3.94,0,0,17.54,2.9,27.92-5.98l1.2,10.79s1.66.65,4.28,1.73h0Z"/>
  <path class="cls-2" d="M101.11,11.25c-.06.65-.15,1.33-.34,1.97-2.9,12.97-21.48,25.42-22.07,25.79,0-.09.03-.22.03-.37-.03.15-.03.28-.06.37,0,.09-.03.15-.03.15,0,0-.89-1.91-2.06-2.9-.34-.28-.71-.49-1.05-.55-.89-.15-1.6.15-2.1,1.2-.43.92-.65,2.4-.62,4.59.09,4.72,2.9,8.41,4.07,9.31.83.62,2.28.46,3.05.34.25,1.05.62,2.03,1.05,3.05,1.08,2.47,2.84,6.01,5.3,9.34l-1.48,13.74s-7.37,1.6-16.06,3.94c-1.42.37-2.9.77-4.35,1.2h0c-6.26,1.79-12.67,3.85-17.23,5.92-1.57.71-3.48,2.53-5.67,5.12-7.12-17.75,5.27-31.8,17.1-42.4,13.07-11.71,16.67-28.26,16.67-28.26l.37.06c2.06-12.97,12.7-22.87,25.46-22.87,14.27,0,25.82,12.33,25.82,27.55,0,2.62-.34,5.18-.99,7.55-.09.4-.22.77-.34,1.14-.59,1.88-1.36,3.67-2.28,5.33.06-.99.15-1.82.18-2.47h0c-3.73-24.38-22.4-27.86-22.4-27.86Z"/>
  <path class="cls-2" d="M131.62,89.8c-2.87-1.39-5.73-2.68-8.29-3.76-1.94-.83-3.67-1.57-5.15-2.16h0c-2.62-1.08-4.28-1.73-4.28-1.73l-1.2-10.79-.4-3.73c1.33-1.23,2.5-2.59,3.54-4.01,2.43-3.27,4.19-6.75,5.27-9.21.46-1.11.83-2.22,1.11-3.39l.4.09s1.48.62,2.62-.25c.18-.15.43-.37.71-.65,1.82,4.16,9,22.5,5.67,39.57Z"/>
  <path class="cls-5" d="M54.15,213.93l9.15-8.75,13.53,2.59c-.03,5.08-12.11,4.53-12.11,4.53l-2.53,4.9s9.18.92,10.63,1.85c1.45.92,7.46,11.06,7.21,11.93s-1.23.71-1.23.71c0,0,1.48.8-.18,2.9s-5.86-.52-5.86-.52c0,0-1.76,2.65-6.13,2.53-4.35-.12-9.74-2.65-9.74-2.65,0,0-1.57,1.14-3.98,2.19-2.06.89-4.72,1.73-7.55,1.76-6.13.03-12.88-10.51-12.88-10.51,0,0-32.48-48.85-32.48-55.41,0-5.73,26.63-60.71,41.48-78.4,2.19-2.62,4.13-4.41,5.67-5.12,4.53-2.06,10.97-4.13,17.23-5.92.15.86,10.05,57.04-15.44,57.1l-1.26-5.27-23.58,34.64,20.49,50.26,9.34-5.08.22-.25Z"/>
  <path class="cls-5" d="M73.44,36.98c.49-1.05,1.2-1.36,2.1-1.2.37.06.71.28,1.05.55,1.17.99,2.06,2.9,2.06,2.9,0,0,0-.06.03-.15,0-.09.03-.22.06-.37-.03.15-.03.28-.06.37h0c.06.77.09,1.63.15,2.56.15,2.03.34,4.38.55,6.66.09.99.28,1.97.52,2.93-.77.12-2.19.28-3.05-.34-1.17-.89-3.98-4.59-4.07-9.31,0-2.22.25-3.7.65-4.59Z"/>
  <path class="cls-1" d="M99.54,52.67c-.03.22.22.37.49.34,1.48-.15,5.61-.74,5.95-2.28.34-1.48-3.08-7.83-4.65-10.66-.18-.34-.83-.25-.86.09l-.92,12.51Z"/>
  <path class="cls-2" d="M106.57,40.19c-.09,0-.18-.03-.28-.06-.43-.15-.68-.65-.52-1.08.03-.12,1.17-2.99,5.73-3.02,4.47.03,5.98,2.19,6.04,2.28.28.4.15.92-.22,1.17-.4.28-.92.15-1.17-.22-.06-.09-1.17-1.54-4.65-1.54h-.03c-3.3,0-4.07,1.82-4.07,1.88-.15.37-.49.59-.83.59Z"/>
  <path class="cls-2" d="M117.69,35.93c-.18,0-.37-.06-.52-.18-1.29-1.05-2.96-1.76-4.62-1.94s-3.42.09-4.93.83c-.43.22-.92.03-1.14-.4-.22-.43-.03-.92.4-1.14,1.79-.86,3.88-1.2,5.89-.99,1.97.25,3.94,1.05,5.49,2.31.37.31.43.83.12,1.2-.18.18-.43.31-.68.31Z"/>
  <path class="cls-2" d="M110.05,37.01c-.34.09-.28.65-.28,1.02,0,1.08.86,1.94,1.94,1.94s1.94-.86,1.94-1.94c0-.34-.09-.68-.25-.96,0-.03-1.91-.52-3.36-.06Z"/>
  <path class="cls-2" d="M95.97,40.16c-.37,0-.68-.22-.8-.59-.03-.06-.77-1.91-4.1-1.91h-.03c-3.45,0-4.56,1.45-4.62,1.51-.28.37-.8.46-1.17.18-.37-.28-.46-.8-.22-1.17.06-.09,1.66-2.22,6.07-2.25,4.62.03,5.67,2.93,5.7,3.05.15.43-.09.92-.52,1.08-.12.06-.22.09-.31.09Z"/>
  <path class="cls-2" d="M84.87,35.81c-.25,0-.49-.12-.68-.31-.31-.37-.25-.89.12-1.2,1.57-1.23,3.51-2.03,5.52-2.28,2-.22,4.07.15,5.86,1.02.43.22.59.71.4,1.14-.22.43-.71.59-1.14.4-1.51-.74-3.27-1.05-4.93-.86-1.66.18-3.33.86-4.62,1.91-.12.12-.34.18-.52.18Z"/>
  <path class="cls-2" d="M89.15,36.95c-.28.18-.25.62-.25.96,0,1.08.86,1.94,1.94,1.94s1.94-.86,1.94-1.94c0-.37-.09-.71-.28-1.02,0,.03-2.56-.49-3.36.06Z"/>
  <path class="cls-3" d="M109.16,49.43c-.12,1.85,2.1,3.48,4.93,3.67,2.84.18,5.24-1.17,5.36-3.02.12-1.85-2.1-3.48-4.93-3.67-2.84-.18-5.24,1.17-5.36,3.02Z"/>
  <path class="cls-3" d="M83.7,48.2c-.12,1.85,2.1,3.48,4.93,3.67,2.84.18,5.24-1.17,5.36-3.02.12-1.85-2.1-3.48-4.93-3.67-2.84-.15-5.24,1.17-5.36,3.02Z"/>
  <path class="cls-1" d="M123.85,49.71c-.06,0-.15,0-.25-.03-.46-.12-.71-.59-.59-1.05.74-2.68,1.88-5.24,3.33-7.61.25-.4.77-.52,1.17-.28s.52.77.28,1.17c-1.36,2.25-2.43,4.65-3.14,7.18-.09.37-.43.62-.8.62Z"/>
  <path class="cls-1" d="M78.46,49.34c-.37,0-.74-.25-.83-.65-.62-2.59-1.66-5.08-3.05-7.37-.25-.4-.12-.92.28-1.17.4-.25.92-.12,1.17.28,1.48,2.43,2.59,5.08,3.27,7.86.12.46-.18.92-.62,1.02-.06.03-.12.03-.22.03Z"/>
  <path class="cls-2" d="M101.27,60.19c-2.34,0-5.73-.59-8.14-3.45-.31-.37-.25-.89.12-1.2s.89-.25,1.2.12c3.24,3.88,9.06,2.62,9.12,2.62.46-.12.92.18,1.02.65s-.18.92-.65,1.02c-.12.03-1.2.25-2.68.25Z"/>
  <path class="cls-1" d="M100.87,212.36c-.12,0-.25-.03-.37-.09-.43-.18-.62-.71-.43-1.14l2.43-5.33c.18-.43.71-.62,1.14-.43s.62.71.43,1.14l-2.43,5.33c-.15.34-.46.52-.77.52Z"/>
  <path class="cls-1" d="M149.4,283.24h-.15c-.46-.09-.77-.52-.68-.99,8.32-46.35,4.72-55.69,1.23-64.72-.25-.62-.49-1.26-.71-1.88-3.61-9.68-11-22.96-11.06-23.08-.22-.4-.09-.92.34-1.17.4-.22.92-.09,1.17.34.06.12,7.52,13.53,11.19,23.33.25.62.46,1.26.71,1.88,3.57,9.25,7.27,18.8-1.14,65.61-.12.37-.49.68-.89.68Z"/>
  <path class="cls-1" d="M152.73,267.19c-.12,0-.22-.03-.34-.06-.43-.18-.62-.68-.43-1.11,1.14-2.59,2.59-5.05,4.35-7.3.28-.37.83-.43,1.2-.15.37.28.43.83.15,1.2-1.66,2.13-3.05,4.47-4.13,6.93-.15.31-.46.49-.8.49Z"/>
  <path class="cls-1" d="M46.2,137.32c-.15,0-.34-.06-.49-.15-.4-.28-.49-.8-.22-1.17l9.46-13.81c.28-.4.8-.49,1.17-.22.4.28.49.8.22,1.17l-9.46,13.81c-.12.25-.4.37-.68.37Z"/>
  <path class="cls-1" d="M24.1,169.8c-.34,0-.65-.18-.8-.52-1.2-2.96-4.99-2.5-5.15-2.47-.46.06-.89-.28-.96-.74s.25-.89.74-.96c1.82-.25,5.61.15,6.96,3.51.18.43-.03.92-.46,1.11-.12.03-.22.06-.34.06Z"/>
  <path class="cls-1" d="M62.53,217.69c-.22,0-.43-.09-.59-.25-.34-.34-.34-.86,0-1.2.46-.46.74-1.14,1.02-1.88.37-.96.83-2.06,1.82-2.77,1.02-.71,2.22-.77,3.2-.8,2.77-.12,5.24-.31,7.43-1.36.34-.15.71-.34.92-.62.15-.18.18-.43.12-.52-.12-.25-.77-.37-1.02-.4l-7.21-1.33c-1.39-.25-2.8-.52-4.16-.28-2.19.4-3.94,2.1-5.39,3.73l-.74.86c-1.39,1.6-2.8,3.24-4.72,4.28-.4.22-.92.06-1.17-.34-.22-.4-.06-.92.34-1.17,1.66-.89,2.93-2.37,4.25-3.91l.74-.86c1.54-1.73,3.64-3.79,6.38-4.28,1.63-.31,3.3,0,4.78.28l7.21,1.33c.55.09,1.69.31,2.22,1.29.37.71.25,1.63-.31,2.34-.43.55-1.05.89-1.54,1.14-2.47,1.17-5.24,1.39-8.07,1.51-.8.03-1.69.09-2.31.49-.59.4-.89,1.2-1.23,2-.34.86-.68,1.73-1.39,2.43-.15.18-.37.28-.59.28Z"/>
  <path class="cls-1" d="M80.06,232.33c-.31,0-.62-.18-.77-.46-.22-.43-.03-.92.37-1.14,0,0,.03-.09,0-.18-.03-.25-.22-.52-.37-.8l-4.25-6.9c-.68-1.08-1.42-2.31-2.53-2.93-.71-.4-1.63-.55-2.5-.71l-9.4-1.63c-.46-.09-.77-.52-.68-.99s.52-.77.99-.68l9.4,1.63c.96.15,2.06.37,3.02.89,1.48.83,2.4,2.34,3.14,3.51l4.25,6.9c.25.4.52.86.62,1.45.12.83-.25,1.6-.92,1.94-.09.09-.22.09-.37.09Z"/>
  <path class="cls-1" d="M79.91,233.23c-.12,0-.28-.03-.4-.09-1.76-.92-3.17-2.28-4.53-3.57-1.42-1.36-2.74-2.62-4.35-3.42-1.73-.83-3.67-1.08-5.73-1.36-2.28-.28-4.62-.59-6.72-1.76-.4-.22-.55-.74-.34-1.17.22-.4.74-.55,1.17-.34,1.79,1.02,3.88,1.26,6.1,1.54,2.1.28,4.28.55,6.26,1.51,1.85.89,3.36,2.34,4.78,3.7,1.36,1.29,2.62,2.5,4.16,3.3.43.22.59.74.37,1.14-.15.37-.46.52-.77.52Z"/>
  <path class="cls-1" d="M73.19,235.57c-.25,0-.46-.09-.62-.28-4.31-4.75-10.94-7.27-17.29-6.59-.46.06-.89-.28-.92-.77s.28-.89.77-.92c6.9-.74,14.08,2,18.74,7.15.31.34.28.89-.06,1.2-.18.15-.4.22-.62.22Z"/>
  <path class="cls-1" d="M97.54,433.48c-.06,0-.12,0-.15-.03-.46-.09-.77-.55-.68-1.02.09-.52,10.69-53.53,14.79-73.07,4.07-19.41-5.76-86.78-5.89-87.46-.06-.46.25-.89.71-.96s.89.25.96.71c.4,2.77,9.98,68.35,5.86,88.08-4.1,19.54-14.67,72.51-14.79,73.07-.06.4-.4.68-.8.68Z"/>
  <path class="cls-1" d="M99.05,364.91c-2.84,0-5.64-.83-7.98-2.37-.4-.25-.49-.8-.25-1.17.25-.4.8-.49,1.17-.25,3.02,2,6.9,2.62,10.39,1.66.46-.12.92.12,1.05.59s-.15.92-.59,1.05c-1.26.34-2.53.49-3.79.49Z"/>
  <path class="cls-1" d="M119.69,363.86c-.28,0-.59,0-.86-.03-.46-.03-.83-.43-.8-.89.03-.46.4-.86.89-.8,3.51.22,7.03-1.02,9.65-3.36.34-.31.89-.28,1.2.06s.28.89-.06,1.2c-2.71,2.47-6.32,3.82-10.02,3.82Z"/>
  <path class="cls-1" d="M89.99,507.22h-.12c-.46-.06-.77-.52-.71-.99,1.79-11.28,1.85-22.74.12-34.05-.06-.46.25-.89.71-.96s.89.25.96.71c1.73,11.46,1.69,23.11-.12,34.58-.06.43-.43.71-.83.71Z"/>
  <path class="cls-1" d="M82.22,512c-.09,0-.18,0-.28-.06-.43-.15-.68-.65-.52-1.08.52-1.48.55-3.11.09-4.59-.15-.46.12-.92.55-1.08.46-.12.92.12,1.08.55.59,1.85.55,3.85-.09,5.67-.15.37-.49.59-.83.59Z"/>
  <path class="cls-1" d="M76.21,511.69c-.09,0-.22-.03-.31-.06-.43-.18-.65-.68-.49-1.11.46-1.2.62-2.5.46-3.76-.06-.46.28-.89.74-.96.46-.06.89.25.96.74.22,1.57.03,3.17-.55,4.62-.15.31-.46.52-.8.52Z"/>
  <path class="cls-1" d="M71.28,510.8c-.12,0-.25-.03-.34-.09-.43-.18-.62-.71-.43-1.14.46-.99.68-2.1.65-3.17,0-.46.37-.86.83-.86.43-.03.86.37.86.83.03,1.36-.25,2.71-.8,3.94-.12.31-.43.49-.77.49Z"/>
  <path class="cls-1" d="M68.29,509.63c-.12,0-.28-.03-.4-.09-.43-.22-.59-.74-.37-1.14.4-.8.68-1.73.77-2.62.03-.46.46-.8.92-.77.46.03.8.46.77.92-.09,1.11-.43,2.25-.96,3.24-.12.31-.43.46-.74.46Z"/>
  <path class="cls-1" d="M95.13,508.67c-.46,0-.83-.37-.86-.83l-.09-3.94c0-.46.37-.86.83-.86.46-.03.86.37.86.83l.09,3.94c.03.46-.34.86-.83.86h0Z"/>
  <path class="cls-1" d="M101.3,508.92c-.46,0-.83-.37-.86-.83l-.03-4.04c0-.46.37-.86.83-.86h0c.46,0,.83.37.86.83l.03,4.04c.03.46-.34.86-.83.86t0,0Z"/>
  <path class="cls-1" d="M106.26,507.96c-.43,0-.8-.31-.83-.77l-.37-3.33c-.06-.46.28-.89.77-.92.46-.06.89.28.92.77l.37,3.33c.06.46-.28.89-.74.92h-.12Z"/>
  <path class="cls-1" d="M111.16,506.55c-.4,0-.77-.31-.83-.71l-.43-2.68c-.06-.46.25-.89.71-.99.46-.06.89.25.99.71l.43,2.68c.06.46-.25.89-.71.99h-.15Z"/>
  <path class="cls-1" d="M73.53,473.82c-.34,0-.68-.22-.8-.55-.15-.43.06-.92.52-1.08,2.4-.86,5.05-.96,7.52-.25.46.12.71.59.59,1.05s-.62.71-1.05.59c-2.1-.59-4.41-.52-6.47.22-.12.03-.22.03-.31.03Z"/>
  <path class="cls-1" d="M106.91,464.48c-.06,0-.12,0-.18-.03-2.13-.46-4.35-.77-6.53-.92-.46-.03-.83-.43-.8-.89.03-.46.46-.83.92-.8,2.28.15,4.53.46,6.75.96.46.09.74.55.65,1.02-.03.4-.4.68-.8.68Z"/>
</svg>