<?xml version="1.0" encoding="UTF-8"?>
<svg id="Camada_1" data-name="Camada 1" xmlns="http://www.w3.org/2000/svg" viewBox="0 0 166.96 512">
  <defs>
    <style>
      .cls-1 {
        fill: #bb7652;
      }

      .cls-1, .cls-2, .cls-3, .cls-4, .cls-5, .cls-6 {
        stroke-width: 0px;
      }

      .cls-2 {
        fill: #010101;
      }

      .cls-3 {
        fill: #2b3448;
      }

      .cls-4 {
        fill: #df895d;
      }

      .cls-5 {
        fill: #e79f74;
      }

      .cls-6 {
        fill: #e9d485;
      }
    </style>
  </defs>
  <path class="cls-5" d="M29.73,232.33s1.4,1.26,3.29,2.99c3.44,3.2,8.4,8.13,9.09,10.34,1.08,3.41,4.66,14.49,4.66,15.93s4.15,6.31,4.15,6.31c0,0-3.29,1.82-6.43-.6s-6.16-7.5-6.16-7.5l-.42,4.24s2.12,5.68,4.57,10.34-1.34,7.65-1.34,7.65l-5.26-6.57c2.78,4.39,1.61,11.51-.66,10.01-2.3-1.49-9.83-11.15-9.83-11.15-3.47-1.82-4.48-4.57-4.48-4.57,0,0-4.33-5.17-4.75-12.49-.42-7.14-.03-19.07,0-19.72C12.97,227.31.69,187.98.09,184.78c-.69-3.68,2.66-73.91,9.5-91.66,5.47-14.23,22.38-15.24,29.17-15.09,0,0-.39,14.76-4,23.13s-11,25.25-9.12,35c.87,4.51,2.45,8.28,3.92,11l-6.6,37.12c.75,3.14,1.82,10.34,2.96,18.35.78,5.68,1.58,11.77,2.27,17.09.69,5.47,1.26,10.13,1.55,12.61Z"/>
  <path class="cls-1" d="M86.97,63.66l.54,3.41c-1.52,1.58-3.05,2.87-4.54,3.92-11.92,8.31-22.92,1.52-22.92,1.52l.24-1.58,1.14-7.41c3.17,3.65,7.26,6.63,12.34,6.81.18.03.33.03.51.03h0c.15,0,.33,0,.51-.03,4.99-.18,9.06-3.08,12.19-6.66Z"/>
  <path class="cls-5" d="M125.13,207.35c-3.29,1.46-7.5,2.18-11.77-.12l-5.59,3.83s-2.69,5.83-6.4,6.54c-.96.18-1.97.03-3.02-.63l5.68-9.17,6.84-5.59-6.25.99s-6.96,11.21-11.24,8.07l4.99-9.5s-5.68,2.66-8.34-.24l2.9-3.59s-3.11,1.08-4.33-1.49l9-7.08s13.57-3.74,17.87-3.8c.48,0,.84.03,1.05.12,2.24.93,6.43,5.26,6.43,5.26,0,0,17.39-27.05,19.46-27.61l-24.24-42.5-.75,2.99h-.66c.06-9.32-4.09-18.23-6.13-24.45-2.15-6.6-3.92-17.72-4.36-20.68,8.25,1.2,17.42,3.11,22.5,6.04,10.76,6.16,21.07,26.57,27.17,42.68,6.07,16.08,13,40.64,10.49,46.65-2.51,6.01-34.67,28.66-34.67,28.66,0,0-2.69,2.87-6.63,4.63Z"/>
  <path class="cls-6" d="M126.32,211.38c.57,2.09,1.11,4.24,1.52,6.49-22.74,10.04-47.97,47.01-47.97,47.01-12.88-22.18-46.89-29.59-46.89-29.59-1.88-1.73-3.29-2.99-3.29-2.99-.3-2.48-.87-7.11-1.55-12.64l.96-.12s30.93,10.76,72.8.15c7.8-1.94,15.99-4.63,24.42-8.31Z"/>
  <path class="cls-5" d="M129.01,225.1c5.74,48.62-17.63,124.47-17.63,124.47,0,0,4.12,23.61-1.49,40.85-5.62,17.24-20.26,85.11-20.26,85.11,0,0,2.81,10.1,6.96,16.29,4.15,6.16,8.43,15.09-12.28,16.5.69-2.33.18-5.74-.21-7.5-.6-2.66-7.59-33.53-7.59-33.53,0,0,3.74-101.97,4.48-107.59s-1.14-94.83-1.14-94.83c0,0,25.19-36.97,47.97-47.01.51,2.36.9,4.75,1.2,7.23Z"/>
  <path class="cls-5" d="M126.32,211.38c-8.43,3.65-16.59,6.37-24.39,8.34-41.87,10.61-72.8-.15-72.8-.15l-.96.12c-.69-5.32-1.46-11.42-2.27-17.09,3.5-13.42,8.79-23.73,8.79-23.73l-1.4-19.87s31.05-8.61,74.27,0l.18,15.09s3.56,4.21,7.8,11.54c5.98,7.92,9.62,21.73,9.62,21.73.39,1.31.78,2.66,1.17,4.03Z"/>
  <path class="cls-5" d="M89.12,76.93s5.86.33,13.27,1.29c0,0-.87,41.93-31.56,40.29-30.69-1.61-29.2-40.41-29.2-40.41.51-.09,18.14-3.68,18.14-3.68l.3-1.91s11.03,6.81,22.92-1.52l2.3,1.34c1.05.12,2.06.15,3.11.15l.72,4.45Z"/>
  <path class="cls-1" d="M115.82,127.8c-.12,0-.23-.03-.35-.09-.41-.17-.58-.67-.41-1.07l6.01-13.01c.17-.41.67-.58,1.07-.38.41.17.58.67.41,1.07l-6.01,13.01c-.15.29-.44.46-.73.46Z"/>
  <path class="cls-5" d="M87.53,67.06l.87,5.44c-1.05,0-2.09-.06-3.11-.15l-2.3-1.34c1.49-1.05,3.02-2.36,4.54-3.94Z"/>
  <path class="cls-1" d="M33.02,116.94c-.35,0-.67-.2-.76-.55-.84-2.58-2.03-5.02-3.57-7.26-.26-.38-.17-.87.2-1.1.38-.26.87-.17,1.1.2,1.63,2.35,2.9,4.94,3.8,7.67.15.44-.09.87-.52,1.02-.09.03-.17.03-.26.03Z"/>
  <path class="cls-6" d="M29.59,147.13c-1.46-2.72-3.05-6.52-3.92-11-1.88-9.74,5.5-26.63,9.12-35s4-23.13,4-23.13c1.67.03,2.72.12,2.84.12,0,0-1.49,38.79,29.2,40.41,30.69,1.61,31.56-40.29,31.56-40.29,1.26.15,2.54.33,3.86.54.45,2.96,2.21,14.08,4.36,20.68,2.03,6.22,6.19,15.12,6.13,24.45-.03,2.18-.27,4.36-.81,6.54-2.93,11.6-8.49,19.25-8.49,19.25l.09,9.32c-43.21-8.64-74.27,0-74.27,0l-.48-6.87s-1.52-1.85-3.2-5.02Z"/>
  <path class="cls-5" d="M100.03,34.76c1.05.39,1.7,1.97,1.61,5.53-.09,4.57-2.81,8.16-3.94,9.03-1.14.84-2.54.24-2.54.24l-.39-.09c.21-.87.36-1.76.45-2.63.18-1.88.42-4.39.6-6.43.9-1.61,1.64-3.35,2.21-5.17.33-.27.69-.48,1.05-.54.33-.09.66-.09.96.06Z"/>
  <path class="cls-5" d="M61.41,63.51c-.54-.6-1.05-1.26-1.52-1.88-2.39-3.2-4.09-6.66-5.14-9.06-.42-.96-.75-1.94-1.02-2.96-.24-.93-.42-1.88-.51-2.84-.24-2.21-.42-4.48-.54-6.46-.06-.9-.12-1.76-.15-2.48,0-.09.03-.21.06-.36,0-.09.03-.15.03-.27.03-.18.06-.42.12-.66.03-.24.09-.51.15-.78,0-.06.03-.09.03-.15.03-.12.06-.27.09-.39.12-.6.3-1.26.48-1.97.06-.18.09-.36.15-.57.12-.39.24-.78.36-1.17.18-.6.42-1.26.63-1.88.15-.42.33-.87.51-1.34.18-.45.39-.93.6-1.37.72-1.64,1.61-3.32,2.69-5.02.3-.48.63-.96.96-1.43.33-.48.69-.96,1.08-1.4.57-.69,1.17-1.37,1.79-2.06.21-.21.42-.45.66-.66.66-.66,1.37-1.29,2.12-1.88.36-.3.72-.57,1.08-.84s.75-.54,1.17-.78c.39-.24.81-.51,1.23-.75s.84-.48,1.29-.69c0,0,.03,0,.09.03.03,0,.06,0,.12.03,0,0,9.12,24.92,26,26.54h0c-.03.6-.12,1.43-.18,2.39-.18,2.03-.42,4.54-.6,6.43-.09.9-.24,1.79-.45,2.63-.27,1.14-.63,2.21-1.08,3.29-1.05,2.39-2.75,5.77-5.11,8.94-.51.69-1.05,1.34-1.61,1.97-3.14,3.59-7.2,6.49-12.22,6.66-.15.03-.33.03-.51.03h0c-.18,0-.33,0-.51-.03-5.05-.18-9.17-3.17-12.31-6.81Z"/>
  <path class="cls-5" d="M84.1,500.85c.39,1.76.9,5.17.21,7.5-.33,1.17-.96,2.06-2.06,2.33-3.26.84-25.58,2.99-28.66-1.34s.57-13.15,2.33-22.18c1.76-9,.99-15.99.99-15.99,0,0-12.76-67.15-14.49-81.47-1.76-14.35,1.82-24.75,1.82-24.75-23.61-59.41-23.34-95.22-23.34-95.22,0,0,1.05,2.75,4.48,4.57,0,0,7.53,9.65,9.83,11.15,2.3,1.49,3.47-5.62.66-10.01l5.26,6.57s3.8-2.99,1.34-7.65c-2.45-4.66-4.57-10.34-4.57-10.34l.42-4.24s3.05,5.08,6.16,7.5,6.43.6,6.43.6c0,0-4.15-4.9-4.15-6.31s-3.59-12.49-4.66-15.93c-.69-2.21-5.68-7.14-9.09-10.34,0,0,34.01,7.41,46.89,29.59,0,0,1.88,89.21,1.14,94.83-.75,5.62-4.48,107.59-4.48,107.59,0,0,6.99,30.84,7.56,33.53Z"/>
  <path class="cls-3" d="M111.47,63.39c-6.13,5.86-14.61,9.14-23.07,9.12l-.87-5.44-.54-3.41c.57-.66,1.11-1.31,1.61-1.97,2.36-3.17,4.06-6.54,5.11-8.94.45-1.08.81-2.15,1.08-3.29l.39.09s1.43.6,2.54-.24c1.14-.87,3.86-4.45,3.94-9.03.06-3.56-.6-5.14-1.61-5.53-.3-.12-.63-.15-.99-.09s-.69.27-1.05.54c-.57,1.82-1.31,3.56-2.21,5.17.06-.96.15-1.76.18-2.39h0c-16.89-1.61-26-26.54-26-26.54-.12-.03-.21-.06-.21-.06h0c-.45.21-.87.45-1.29.69-.42.24-.81.48-1.23.75-.39.27-.78.51-1.17.78s-.75.54-1.08.84c-.75.6-1.46,1.23-2.12,1.88-.24.21-.45.42-.66.66-.63.66-1.23,1.34-1.79,2.06-.36.48-.72.93-1.08,1.4-.33.48-.66.96-.96,1.43-1.08,1.67-1.97,3.38-2.69,5.02-.21.48-.42.93-.6,1.37-.18.45-.36.9-.51,1.34-.24.66-.45,1.29-.63,1.88-.15.42-.24.81-.36,1.17-.06.18-.12.39-.15.57-.21.72-.36,1.4-.48,1.97-.03.15-.06.27-.09.39,0,.06-.03.09-.03.15-.06.27-.09.54-.15.78s-.09.48-.12.66c-.03.09-.03.18-.03.27-.03.15-.06.27-.06.36s-.03.15-.03.15c0,0-.87-1.85-2-2.81-.33-.27-.69-.48-1.02-.54-.87-.15-1.55.15-2.03,1.17-.42.9-.63,2.33-.6,4.45.09,4.57,2.81,8.16,3.94,9.03.81.6,2.21.45,2.96.33.24,1.02.6,1.97,1.02,2.96,1.05,2.39,2.75,5.83,5.14,9.06.48.63.99,1.26,1.52,1.88l-1.14,7.41-.21-.03c-2.93-.6-5.86-1.64-8.16-3.08-3.59-2.3-7.68-4.51-11.89-3.86,1.61-8.04,1.55-16.29,2.12-24.48.54-8.19,1.76-16.53,5.62-23.76S61.11,1.4,69.24.54h.06c1.61-.36,3.29-.54,4.99-.54,9.38,0,17.57,5.53,21.88,13.72,8.82,15,7.98,33.89,15.3,49.67Z"/>
  <path class="cls-5" d="M47.46,35.83c.48-1.02,1.17-1.31,2.03-1.17.36.06.69.27,1.02.54,1.14.96,2,2.81,2,2.81,0,0,0-.06.03-.15,0-.09.03-.21.06-.36-.03.15-.03.27-.06.36.06.75.09,1.58.15,2.48.15,1.97.33,4.24.54,6.46.09.96.27,1.91.51,2.84-.75.12-2.12.27-2.96-.33-1.14-.87-3.86-4.45-3.94-9.03,0-2.12.21-3.56.63-4.45Z"/>
  <polygon class="cls-2" points="47.79 35.74 47.79 35.71 49.43 35.71 47.79 35.74"/>
  <path class="cls-1" d="M76.45,50.42c.03.21-.21.36-.48.33-1.43-.15-5.44-.72-5.77-2.21-.33-1.43,2.99-7.59,4.51-10.34.18-.33.81-.24.84.09l.9,12.13Z"/>
  <path class="cls-3" d="M69.63,38.34c-.33,0-.66-.21-.78-.57-.03-.06-.75-1.82-3.94-1.82h-.03c-3.38,0-4.45,1.43-4.51,1.49-.27.36-.78.45-1.14.18s-.48-.75-.21-1.14c.06-.09,1.55-2.21,5.86-2.21h.03c4.42,0,5.47,2.81,5.5,2.93.15.42-.09.9-.51,1.05-.09.06-.18.09-.27.09Z"/>
  <path class="cls-3" d="M58.84,34.19c-.24,0-.48-.12-.66-.3-.3-.36-.24-.87.12-1.17,1.49-1.23,3.41-2,5.32-2.24,1.91-.21,3.94.12,5.71.96.42.21.6.69.39,1.11s-.69.6-1.11.39c-1.46-.69-3.17-.99-4.78-.81s-3.2.87-4.48,1.88c-.15.12-.33.18-.51.18Z"/>
  <path class="cls-3" d="M66.25,35.24c.33.09.27.63.27.99,0,1.05-.84,1.88-1.88,1.88s-1.88-.84-1.88-1.88c0-.33.09-.66.24-.93,0,0,1.85-.48,3.26-.06Z"/>
  <path class="cls-3" d="M79.91,38.28c-.09,0-.18-.03-.27-.06-.42-.15-.66-.6-.51-1.05.03-.12,1.05-2.96,5.53-2.96h.06c4.27,0,5.77,2.09,5.83,2.18.27.39.15.9-.21,1.14s-.87.18-1.14-.21c-.06-.09-1.17-1.46-4.48-1.46h-.03c-3.23,0-3.94,1.79-3.97,1.85-.15.36-.48.57-.81.57Z"/>
  <path class="cls-3" d="M90.64,34.07c-.18,0-.36-.06-.51-.18-1.29-1.02-2.87-1.67-4.48-1.85s-3.32.12-4.78.84c-.42.21-.9.03-1.11-.39s-.03-.9.39-1.11c1.73-.84,3.77-1.2,5.68-.99,1.91.21,3.83.99,5.35,2.21.36.3.42.81.12,1.17-.15.21-.39.3-.66.3Z"/>
  <path class="cls-3" d="M86.52,35.21c.27.18.24.6.24.93,0,1.05-.84,1.88-1.88,1.88s-1.88-.84-1.88-1.88c0-.36.09-.69.27-.99,0,.03,2.48-.51,3.26.06Z"/>
  <path class="cls-4" d="M67.12,47.28c.12,1.79-2.03,3.38-4.78,3.56s-5.08-1.14-5.2-2.93c-.12-1.79,2.03-3.38,4.78-3.56,2.75-.18,5.08,1.14,5.2,2.93Z"/>
  <path class="cls-4" d="M91.81,46.11c.12,1.79-2.03,3.38-4.78,3.56s-5.08-1.14-5.2-2.93c-.12-1.79,2.03-3.38,4.78-3.56,2.75-.18,5.08,1.14,5.2,2.93Z"/>
  <path class="cls-1" d="M52.87,47.55c-.36,0-.69-.24-.81-.6-.69-2.45-1.7-4.81-3.05-6.96-.24-.39-.12-.9.27-1.14s.9-.12,1.14.27c1.4,2.3,2.48,4.78,3.23,7.38.12.45-.12.9-.57,1.02-.06.03-.12.03-.21.03Z"/>
  <path class="cls-1" d="M96.86,47.22c-.06,0-.12,0-.21-.03-.45-.12-.72-.57-.6-.99.66-2.69,1.7-5.26,3.17-7.62.24-.39.75-.51,1.14-.27s.51.75.27,1.14c-1.34,2.21-2.36,4.6-2.96,7.14-.09.36-.42.63-.81.63Z"/>
  <path class="cls-3" d="M74.77,57.74c-1.46,0-2.48-.24-2.6-.24-.45-.09-.72-.54-.63-.99.09-.45.57-.72.99-.63.06,0,5.71,1.23,8.85-2.54.3-.36.81-.39,1.17-.12.36.3.39.81.12,1.17-2.3,2.78-5.62,3.35-7.89,3.35Z"/>
  <path class="cls-1" d="M42.11,246.47c-.36,0-.69-.24-.78-.57-.69-2.18-7.77-9.74-12.34-14.32-.15-.15-.24-.33-.24-.51-.9-10.4-3.65-28.18-3.68-28.36-.06-.45.24-.87.69-.96.45-.06.87.24.96.69.03.18,2.75,17.66,3.65,28.15,1.91,1.91,11.54,11.66,12.52,14.76.15.45-.09.9-.54,1.05-.06.06-.15.06-.24.06Z"/>
  <path class="cls-1" d="M46.92,270.85c-.24,0-.48-.03-.75-.15-.63-.24-1.02-.75-1.29-1.11l-7.14-9.32c-.27-.36-.21-.87.15-1.17.36-.27.87-.21,1.17.15l7.14,9.32c.18.24.39.51.57.57.36.15.9-.36,1.11-.87.63-1.49.09-3.26-.57-5.08l-6.37-17.75c-.15-.42.06-.9.51-1.05.42-.15.9.06,1.05.51l6.37,17.75c.75,2.06,1.4,4.24.54,6.28-.42,1.05-1.4,1.91-2.48,1.91Z"/>
  <path class="cls-1" d="M40.85,280.84c-.99,0-1.94-.6-2.54-1.29-.48-.6-.78-1.26-1.08-1.88-.12-.27-.24-.54-.39-.78-.78-1.46-2-2.63-3.32-3.86-1.34-1.29-2.75-2.63-3.65-4.33-1.23-2.33-1.29-4.96-1.37-7.5-.06-2.39-.15-4.63-1.08-6.6-.21-.42-.03-.9.39-1.11.42-.18.9-.03,1.11.39,1.08,2.27,1.17,4.81,1.23,7.23.09,2.48.15,4.78,1.2,6.81.78,1.49,2,2.66,3.32,3.92,1.34,1.29,2.72,2.57,3.62,4.27.15.27.3.57.42.87.27.57.51,1.11.87,1.52.39.48,1.08.84,1.55.63.75-.33.69-1.73.39-2.81-.6-2.36-1.37-4.69-2.33-6.96-.18-.42-.36-.81-.54-1.23-.66-1.52-1.37-3.11-1.76-4.78-.66-2.81-.39-5.68-.15-8.46.21-2.6.45-5.08-.03-7.5-.09-.45.21-.87.66-.96s.87.21.96.66c.51,2.66.27,5.35.06,7.95-.24,2.78-.45,5.41.12,7.95.36,1.52.99,2.96,1.64,4.48.18.42.36.81.54,1.23.99,2.33,1.79,4.75,2.42,7.2.6,2.33.09,4.09-1.34,4.72-.24.12-.57.21-.9.21Z"/>
  <path class="cls-1" d="M34.85,286.15c-.24,0-.48-.03-.72-.12-.81-.27-1.34-.93-1.7-1.4l-4.6-5.89c-1.29-1.67-2.63-3.38-3.53-5.41-1.23-2.69-1.52-5.65-1.79-8.49-.27-2.72-.54-5.29-1.52-7.65-.18-.42.03-.9.45-1.08.42-.18.9.03,1.08.45,1.08,2.6,1.34,5.41,1.64,8.13.3,2.84.57,5.53,1.67,7.98.81,1.82,2.09,3.47,3.35,5.05l4.6,5.89c.33.42.6.75.93.87.72.24,1.49-.81,1.82-1.67.84-2.36.6-5.08-.69-7.26-.24-.39-.09-.9.3-1.14.39-.24.9-.09,1.14.3,1.52,2.6,1.82,5.83.84,8.64-.63,1.49-1.85,2.81-3.26,2.81Z"/>
  <path class="cls-1" d="M24.74,274.44c-.15,0-.33-.06-.48-.15-2.99-2.06-4.48-5.29-5.23-7.62-.93-2.93-1.2-5.98-1.46-8.94-.03-.45.3-.87.75-.9.48-.03.87.3.9.75.27,2.87.51,5.83,1.4,8.58.66,2.09,2,4.96,4.6,6.78.39.27.48.78.21,1.17-.18.21-.45.33-.69.33Z"/>
  <path class="cls-1" d="M82.27,511.49c-.18,0-.39-.06-.54-.21-.36-.3-.39-.84-.06-1.17,0,0,1.82-2.3,1.61-9.26-.21-7.32-7.47-33.08-7.56-33.32-.03-.09-.03-.18-.03-.27.03-.9,3.5-88.64,4.48-107.62,1.02-18.92-1.11-93.99-1.14-94.77,0-.45.36-.84.81-.84.39.03.84.36.84.81.03.75,2.12,75.88,1.14,94.89-.99,18.62-4.33,103.58-4.48,107.47.63,2.21,7.35,26.3,7.56,33.62.21,7.74-1.94,10.28-2.03,10.4-.15.18-.36.27-.6.27Z"/>
  <path class="cls-1" d="M62.25,369.24c-2.78,0-5.59-.75-7.95-2.3-.39-.24-.48-.75-.24-1.14.24-.39.75-.48,1.14-.24,4.3,2.78,10.22,2.69,14.43-.21.39-.27.9-.18,1.17.21.27.39.18.9-.21,1.17-2.45,1.64-5.41,2.51-8.34,2.51Z"/>
  <path class="cls-1" d="M95.33,364.42c-2.27,0-4.54-.45-6.6-1.34-.42-.18-.63-.66-.42-1.08.18-.42.66-.63,1.08-.42,5.14,2.21,11.51,1.31,15.84-2.21.36-.3.87-.24,1.17.12s.24.87-.12,1.17c-3.05,2.45-6.99,3.77-10.94,3.77Z"/>
  <path class="cls-1" d="M62.31,469.65c-.36,0-.69-.24-.78-.57-.15-.45.09-.9.54-1.05,3.14-.99,6.52-1.17,9.74-.48.45.09.72.54.63.99s-.54.72-.99.63c-2.96-.63-6.04-.48-8.91.45-.06,0-.15.03-.24.03Z"/>
  <path class="cls-1" d="M75.67,511.64c-.42,0-.75-.3-.81-.72l-.96-6.66c-.06-.45.24-.87.69-.93.45-.06.87.24.93.69l.96,6.66c.06.45-.24.87-.69.93-.03.03-.06.03-.12.03Z"/>
  <path class="cls-1" d="M69.6,511.67h-.06c-.45-.03-.81-.42-.78-.87.12-1.82-.06-3.65-.48-5.44-.12-.45.18-.9.6-.99.45-.12.9.18.99.6.48,1.94.63,3.92.51,5.92.03.42-.33.78-.78.78Z"/>
  <path class="cls-1" d="M63.18,512s-.03,0,0,0c-.48-.03-.84-.39-.84-.87l.21-5.68c.03-.45.42-.78.87-.81.45.03.81.39.81.87l-.21,5.68c-.03.45-.39.81-.84.81Z"/>
  <path class="cls-1" d="M58.07,512c-.45,0-.81-.36-.84-.81l-.06-4.84c0-.45.36-.84.81-.84.51-.03.84.36.84.81l.06,4.84c.03.45-.33.84-.81.84h0Z"/>
  <path class="cls-1" d="M88.85,507.82c-.06,0-.12,0-.15-.03-.45-.09-.75-.51-.66-.96.36-1.85.09-3.8-.78-5.47-.21-.42-.06-.9.36-1.11.39-.21.9-.06,1.11.36,1.05,2,1.37,4.33.96,6.54-.09.39-.45.66-.84.66Z"/>
  <path class="cls-1" d="M94.44,506.32h-.12c-.45-.06-.78-.48-.72-.93.18-1.43-.06-2.93-.69-4.21-.21-.42-.03-.9.39-1.11s.9-.03,1.11.39c.78,1.58,1.08,3.41.84,5.14-.06.42-.42.72-.81.72Z"/>
  <path class="cls-1" d="M98.77,503.51c-.42,0-.78-.33-.81-.75-.12-1.29-.54-2.54-1.23-3.65-.24-.39-.12-.9.27-1.14.39-.24.9-.12,1.14.27.81,1.31,1.31,2.81,1.46,4.36.03.45-.3.87-.75.9-.03,0-.06,0-.09,0Z"/>
  <path class="cls-1" d="M139.56,167.21c-.21,0-.42-.06-.57-.24-.33-.3-.36-.84-.03-1.17,4.18-4.42,9.74-7.62,15.66-9.03.45-.09.9.18.99.63s-.18.9-.63.99c-5.62,1.31-10.88,4.33-14.82,8.55-.15.18-.39.27-.6.27Z"/>
  <path class="cls-1" d="M71.51,200.17c-.09,0-.21-.03-.3-.06-1.64-.66-3.02-1.85-3.89-3.38-.24-.39-.09-.9.3-1.14.39-.24.9-.09,1.14.3.69,1.2,1.76,2.15,3.05,2.66.42.18.63.66.48,1.08-.12.36-.45.54-.78.54Z"/>
  <path class="cls-1" d="M91.24,198.71c-1.17,0-2.03-.24-2.63-.69-.48-.36-.78-.87-.84-1.46-.06-.48-.24-1.97,9.38-7.89.06-.03.15-.06.21-.09.63-.18,15.42-4.12,19.22-3.71,3.97.45,7.77,6.93,8.19,7.65.24.39.09.9-.3,1.14-.39.24-.9.09-1.14-.3-1.02-1.79-4.27-6.54-6.93-6.84-2.84-.33-14.2,2.48-18.5,3.62-3.86,2.39-8.19,5.5-8.52,6.37.03,0,.09.09.21.18.51.36,1.73.45,3.32.18.45-.09.87.24.96.69.06.45-.24.87-.69.96-.72.15-1.37.21-1.94.21Z"/>
  <path class="cls-1" d="M93.99,203.04c-2.03,0-3.77-.54-4.6-1.02-.39-.21-.9-.57-.93-1.14-.03-.39-.06-1.26,11.92-9.35,1.31-.9,7.95.12,11.8.81.45.09.75.51.66.96s-.51.75-.96.66c-4.45-.81-9.77-1.43-10.61-1.05-2.72,1.82-8.97,6.22-10.79,7.8,1.31.54,4.66,1.26,7.5-.33.39-.21.9-.09,1.14.33.21.39.09.9-.33,1.14-1.61.9-3.29,1.2-4.81,1.2Z"/>
  <path class="cls-1" d="M99.76,217.9c-.87,0-1.43-.09-1.52-.09-.27-.03-.51-.21-.63-.45-.12-.24-.12-.54,0-.78l4.45-8.19c.06-.09.12-.18.21-.24l4.84-3.94-2.12-.12c-.54.75-1.82,2.51-3.74,4.84-1.85,2.24-6.16,4.93-8.04,3.94-.48-.24-1.2-.93-.69-2.54,1.08-3.65,6.66-12.1,8.43-13.15,1.64-1.02,9.23-.15,11.54.15.45.06.78.48.72.93-.06.45-.48.75-.93.72-4.42-.54-9.65-.84-10.46-.36-1.29.81-6.69,8.85-7.68,12.22-.15.48-.09.63-.09.63.54.3,3.94-1.11,5.95-3.56,2.48-2.99,3.92-5.08,3.92-5.11.18-.24.42-.39.72-.36l4.69.27c.33.03.63.24.75.57s0,.69-.27.9l-6.37,5.2-3.74,6.9h0c1.82,0,5.14-.36,6.93-2.84,2.9-4,6.04-6.66,6.16-6.78.27-.21.63-.27.93-.09.06.03,5.02,2.6,11.06.09.42-.18.9.03,1.08.45.18.42-.03.9-.45,1.08-5.68,2.36-10.4.78-11.95.09-.93.84-3.29,3.11-5.5,6.13-2.18,3.02-6.04,3.5-8.19,3.5Z"/>
</svg>