<?xml version="1.0" encoding="UTF-8"?>
<svg id="Camada_1" data-name="Camada 1" xmlns="http://www.w3.org/2000/svg" viewBox="0 0 247.93 512">
  <defs>
    <style>
      .cls-1 {
        fill: #bb7652;
      }

      .cls-1, .cls-2, .cls-3, .cls-4, .cls-5, .cls-6 {
        stroke-width: 0px;
      }

      .cls-2 {
        fill: #010101;
      }

      .cls-3 {
        fill: #2b3448;
      }

      .cls-4 {
        fill: #df895d;
      }

      .cls-5 {
        fill: #ce5950;
      }

      .cls-6 {
        fill: #e79f74;
      }
    </style>
  </defs>
  <path class="cls-3" d="M136.41,16.88c-.23.58-.41,1.2-.56,1.81-3.04,12.25,7.43,30.71,7.78,31.26.03-.09.06-.2.12-.32-.03.15-.09.26-.12.35-.03.09-.06.15-.06.15,0,0,1.58-1.23,2.98-1.55.41-.09.79-.12,1.14-.03.82.23,1.29.82,1.26,1.9-.03.97-.47,2.31-1.43,4.15-2.08,3.98-6.05,5.91-7.4,6.17-.97.15-2.13-.56-2.72-.99-.67.76-1.4,1.49-2.16,2.13-1.96,1.64-4.97,3.89-8.45,5.67l-4.59,12.31s5.59,4.5,11.96,10.18c1.05.94,2.11,1.87,3.19,2.87h0c4.56,4.18,9.12,8.66,12.11,12.34,1.02,1.26,1.9,3.63,2.66,6.76,13.6-12.05,9.04-29.25,3.51-43.25-6.11-15.47-2.13-31.06-2.13-31.06l-.35-.12c3.74-11.9-1.05-24.77-11.87-30.21-12.11-6.05-27.14-.5-33.6,12.4-1.11,2.22-1.9,4.53-2.37,6.84-.09.38-.15.73-.2,1.11-.32,1.84-.41,3.68-.32,5.5.35-.85.64-1.61.88-2.16h0c13.45-19.19,30.77-14.21,30.77-14.21Z"/>
  <path class="cls-3" d="M126.65,20.59c.06.61.06,1.26.03,1.9-.61,12.6-16,27.23-16.49,27.7,0-.09,0-.2-.03-.35v.5s-1.17-1.64-2.4-2.37c-.35-.2-.73-.35-1.08-.35-.85,0-1.49.41-1.75,1.46-.23.94-.23,2.34.18,4.39.85,4.42,4.07,7.4,5.32,8.04.88.44,2.22.09,2.9-.18.41.94.91,1.81,1.46,2.69,1.4,2.13,3.63,5.18,6.46,7.87l.82,13.1s-6.64,2.69-14.39,6.29c-1.26.58-2.57,1.2-3.86,1.81h0c-5.56,2.66-11.23,5.64-15.15,8.31-1.35.91-2.87,2.92-4.5,5.7-9.53-15.47-.2-30.59,9.15-42.43,10.32-13.04,11.03-29.1,11.03-29.1h.38c-.15-12.49,8.19-23.43,20.09-25.47,13.34-2.31,26.15,7.37,28.6,21.58.41,2.46.53,4.88.29,7.22-.03.38-.09.76-.12,1.11-.23,1.84-.67,3.66-1.26,5.35-.09-.94-.15-1.73-.23-2.34h0c-7.43-22.2-25.44-22.43-25.44-22.43Z"/>
  <path class="cls-3" d="M150.69,71.27s-5.56,3.42-9.21.56l-.7-3.51-.73-3.57c.61-.64,1.17-1.29,1.73-1.93,2.66-3.1,4.56-6.4,5.76-8.74.53-1.02.94-2.11,1.2-3.22l.44.09s.5.18,1.17.2c-1.67,3.74-5.29,12.63-3.77,15.38,1.99,3.51,4.12,4.74,4.12,4.74Z"/>
  <path class="cls-3" d="M155.92,37.7c-.32-.67-.73-1.02-1.23-1.2-.35-.12-.7-.15-1.11-.09s-.79.26-1.17.53c-.64,1.78-1.49,3.48-2.49,5.06.09-.94.18-1.73.2-2.34h-.03c-.56-.09-1.08-.18-1.61-.26-.18-.03-.32-.06-.5-.12-.12-.03-.23-.06-.32-.06-.15-.03-.26-.06-.38-.09-.09-.03-.18-.06-.26-.06-.06,0-.12-.03-.18-.06-.03,0-.06-.03-.09-.03s-.06-.03-.12-.03h-.06s-.09-.03-.15-.06h0c-.09-.03-.18-.06-.23-.09h0c-.09-.03-.18-.06-.23-.09-.2-.06-.41-.15-.61-.23-.38-.15-.76-.32-1.11-.5s-.67-.35-.97-.56c-.2-.15-.38-.26-.56-.41s-.35-.29-.53-.44c-3.98-3.54-3.3-9.24-7.05-14.36-1.26-1.73-2.75-3.1-4.27-4.21-.2-.18-.44-.32-.67-.47-.29-.2-.58-.38-.88-.56-.47-.29-.94-.56-1.43-.79-.67-.38-1.37-.67-2.02-.94-.38-.15-.73-.29-1.08-.44-.53-.2-1.02-.35-1.46-.5-.23-.06-.44-.12-.64-.18-.12-.03-.2-.06-.32-.09-.09-.03-.18-.06-.26-.06h0c-.06-.03-.12-.03-.18-.03-.12-.03-.23-.06-.35-.09-.06,0-.12-.03-.15-.03-.06-.03-.15-.03-.18-.06h-.06c-.06-.03-.12-.03-.18-.03h0c-.06-.03-.12-.03-.18-.03h-.06c-.09-.03-.15-.03-.15-.03h0c-.5.2-.97.44-1.43.67s-.94.47-1.37.73-.88.5-1.29.76c-.44.26-.82.53-1.23.82-.85.58-1.67,1.2-2.4,1.84-.26.2-.5.41-.73.64-.73.64-1.4,1.32-2.05,2.02-.41.47-.82.91-1.2,1.37s-.76.94-1.08,1.4c-1.23,1.64-2.22,3.3-3.04,4.91-.23.47-.44.91-.64,1.35-.2.44-.41.88-.58,1.32-.29.64-.5,1.26-.73,1.84-.15.41-.29.79-.41,1.14-.06.18-.12.38-.18.56s-.12.35-.15.53c-.15.5-.29.99-.38,1.4-.03.15-.06.26-.09.38-.03.06-.03.09-.06.15-.06.26-.12.53-.18.76s-.09.47-.12.64c-.03.09-.03.18-.06.26-.03.15-.06.26-.06.35-.03.09-.03.15-.03.15,0,0-.99-1.81-2.28-2.75-.35-.26-.76-.47-1.17-.53-.97-.15-1.75.15-2.28,1.14h0c-.47.88-.7,2.28-.67,4.36.09,4.47,3.16,7.98,4.45,8.83.94.58,2.49.44,3.33.32.29.99.67,1.93,1.14,2.9,1.17,2.34,3.1,5.7,5.79,8.86.56.64,1.14,1.32,1.75,1.96l-.64,6.26c-3.95,3.19-7.08,0-7.08,0,6.52-4.71-12.14-18.16-11-25.44.18-1.08.23-2.34.23-3.66-.03-7.52-2.31-18.1-.23-23.86,2.46-6.81,11-8.8,11-8.8C103.51,9.3,109.04-.17,125.65,0c1.05,0,2.05.06,3.07.15,15.3,1.37,28.1,11.41,30.36,15.38,1.73,3.01-1.35,15.47-3.16,22.17Z"/>
  <path class="cls-6" d="M150.1,39.69c-.06.58-.15,1.4-.2,2.34-.18,1.96-.44,4.45-.64,6.29-.09.85-.26,1.73-.5,2.57,0,.03-.03.06-.03.09h.47s.82,11.61-8.69,17.63c-3.28,2.08-7.78,3.51-13.95,3.57-.12,0-.26.03-.38.03-.18.03-.38.03-.56.03h-.03c-.18,0-.35,0-.56-.03-.41-.03-.79-.06-1.17-.09-5.76-.32-9.94-1.9-13.01-4.04-8.8-6.14-8.36-16.99-8.36-16.99-.26-.94-.47-1.84-.56-2.78-.26-2.16-.44-4.39-.61-6.32-.06-.88-.15-1.73-.18-2.46,0-.09.03-.2.03-.35.03-.09.03-.18.06-.26.03-.2.06-.41.12-.64.06-.23.09-.5.18-.76,0-.06.03-.09.06-.18.03-.12.06-.23.09-.38.09-.44.23-.91.35-1.43.06-.18.09-.35.18-.53.06-.18.12-.35.18-.56.15-.38.26-.76.41-1.14.2-.58.47-1.2.7-1.87.18-.41.38-.85.58-1.29.2-.44.44-.91.64-1.35.82-1.61,1.81-3.25,3.07-4.91.32-.47.7-.94,1.08-1.4.41-.44.79-.94,1.2-1.37.64-.67,1.32-1.35,2.02-2.02.26-.23.47-.44.73-.64.76-.64,1.55-1.26,2.4-1.84.41-.29.79-.56,1.23-.82.41-.26.85-.53,1.29-.79.44-.23.91-.5,1.37-.73s.94-.44,1.43-.67c0,0,.03,0,.09.03h.06s.03,0,.06.03c.06.03.09.03.18.03h.03c.06.03.09.03.18.03,0,.03.03.03.06.03.06,0,.12.03.18.06.06,0,.09.03.15.03.12.03.23.06.35.09.06.03.15.03.2.06.09.03.18.06.26.06.09.03.2.06.32.09.2.06.41.12.64.18.44.15.94.32,1.46.5.35.12.7.26,1.08.41.64.26,1.32.58,2.02.97.47.23.94.53,1.4.79.29.2.58.38.91.58.2.15.44.29.64.44,1.55,1.11,3.01,2.52,4.3,4.21,3.74,5.12,3.07,10.85,7.05,14.36.18.15.32.29.53.44.18.12.38.26.58.41.29.2.64.38.97.56.35.18.7.35,1.11.5.2.09.41.15.61.2.09.03.15.06.23.09h.03c.06.03.15.06.23.09.06.03.12.03.15.06h.06s.06.03.12.03c.03.03.06.03.09.03.06.03.09.03.18.06.09.03.18.06.26.06.15.03.26.06.41.09.09.03.2.06.32.09.18.03.32.06.5.09.47.18,1.02.26,1.58.35h0Z"/>
  <path class="cls-5" d="M190.66,223.79l-7.84,5.82-1.05,1.61c-29.6,13.07-61.39,37.96-61.39,37.96-16.79-13.34-39.83-20.38-55.92-25.24-11.2-3.39-26.03-7.78-26.03-7.78.76-1.84,2.95-8.57,3.63-9.74.91-.09,14.27,4.56,22.99,7.37,3.98,1.29,6.96,2.19,7.4,2.08v-.03c3.74,1.17,43.66,12.69,101.25-8.92,1.32,1.26,5.06,4.21,8.04,1.7,3.57-3.01,8.6-4.74,8.92-4.83Z"/>
  <path class="cls-6" d="M175.14,226.48l1.61-.09s-34.89,24.42-64.75,23.22c-23.66-.97-39.31-10.35-44.77-14.24l-25.15-9.01c.73-1.84,3.89-15.62,4.07-17.55,1.11-10.06,12.14-29.1,12.14-29.1,0,0,62-17.46,126.87-4.39,0,0,7.49,16.79,13.92,32.23h.03c.41,1.02,1.75,12.52,2.16,13.6-.06.03-20.38,3.98-26.12,5.32Z"/>
  <path class="cls-1" d="M142.12,67.47c-11.32,11.35-33.81,9.68-33.81,9.68l.67-6.11.47-4.09c3.39,2.16,7.93,4.83,14.27,5.15.41.03.85.06,1.29.09.23.03.41.03.61.03h.03c.2,0,.41,0,.61-.03.15,0,.29-.03.41-.03,6.84-.03,11.82-2.6,15.44-4.68Z"/>
  <path class="cls-6" d="M211.28,211.36l2.46-46.41-28.66-16.11h0c.94-9.77-4.65-15.56-8.04-25.24-4.88-13.95,0-38.55,0-38.55,3.89,1.08,11.29,0,18.57,2.6,7.93,2.84,52.52,57.91,52.32,73.87-.2,15.97-17.08,68.17-17.08,68.17-4.04,9.53-24.24,4.42-24.24,4.42l-1.73.7-8.33,3.39c-.03,5.26-7.02,5.09-7.02,5.09l1.46-6.96,10.15-9.07-8.74,2.43s-3.3,5.12-6.96,7.46c-3.66,2.37-7.57,0-7.57,0l3.95-6,1.05-1.61,7.84-5.79c-.32.09-5.35,1.81-8.95,4.83-3.01,2.52-6.73-.47-8.04-1.7-.32-.29-.5-.5-.5-.5l7.08-4.42c-5.32,1.08-6.55-2.19-6.55-2.19,0,0,11.46-6.78,15-7.81,3.45-.99,11.17-1.26,11.49-1.26-.38-1.08-.79-2.13-1.23-3.16l10.97,3.71,1.32.09Z"/>
  <path class="cls-6" d="M120.39,269.15c6.26,33.75-9.45,112.27-8.63,128.15,0,0,0,.82.03,2.31v.06c-.41,19.04-13.37,77.62-13.37,77.62,0,0,5,22.02,5.56,23.98.06.23.18.56.32.97.91,3.01,2.11,10.06-17.25,9.3-21.96-.85-19.3-5.5-15.56-11.26,3.77-5.73,7.22-20.79,7.22-20.79,0,0-19.04-71.8-24.36-84.4-5.32-12.6,1.87-28.6,1.87-28.6,0,0-13.63-37.67-22.26-78.03-5.44-25.53,1.05-47.41,4.47-52.35,0,0,14.83,4.39,26.03,7.78,16.06,4.88,39.13,11.93,55.92,25.27Z"/>
  <path class="cls-6" d="M137.32,479.86c0,3.74,11.11,19.8,10.97,24.83-.15,5-36.56,9.42-41.67,0-.47-.88-.82-1.78-1.02-2.72-2.19-9.3,6.87-21.88,7.02-28.72.12-6.7-.64-61.47-.82-73.58v-.06c0-.85,0-1.61-.03-2.31-.82-15.88,14.86-94.4,8.63-128.15,0,0,31.82-24.89,61.39-37.96l-3.95,6s3.92,2.37,7.57,0,6.96-7.46,6.96-7.46l8.74-2.43-10.15,9.07-1.46,6.96s6.99.18,7.02-5.09l9.48-8.83s6.84,12.9,6.52,24.83c-1.17,46.06-45.45,107.8-45.45,107.8,0,0,9.39,25.65,0,47.7-9.39,22.02-29.74,66.42-29.74,70.13Z"/>
  <path class="cls-6" d="M50.78,144.8l-18.22,17.17,4.18,48.4s4.24-4.85,11.84-7.08c-.82,1.81-1.67,3.71-2.46,5.53l14.21.85,11.79,9.04c-1.4,2.57-6.4.58-6.81.41l6.61,6.55c-2.75,3.92-9.74-.53-10.06-.7l6.26,9.62c-2.46,1.2-4.85,1.17-7.02.53-.12-.06-.18-.06-.18-.06-4.74-3.77-6.64-6.93-6.64-6.93l-8.72-3.42c.53.5,8.83,8.19,9.62,9.62.82,1.46,2.22,7.4-1.9,6.11s-12.66-9.68-12.66-9.68c-1.4.23-2.78.38-4.07.44-8.42.38-15.12-2.92-20.73-12.05C9.34,208.58-.75,161.58.04,155.18c.82-6.43,43.63-65.6,63.08-72.24,4.04-1.35,11.38-2.16,15.44-2.92,0,0,0,.03-.03.03-.41,1.17-9.53,26.7-15.91,39.36-3.33,6.58-9.21,14.04-11.17,21.61-.38,1.29-.58,2.52-.67,3.77Z"/>
  <path class="cls-6" d="M143.17,71.83l1.26,5.62s11.29,2.4,21.9,4.91c0,0,4.01,43.52-42.46,41.18-60.22-3.01-40.94-44.39-40.94-44.39,13.66-2.49,25.36-2.02,25.36-2.02,0,0,22.58,1.67,33.81-10l1.08,4.71Z"/>
  <path class="cls-6" d="M155.92,37.7c.41.88.64,2.22.58,4.21-.09,4.47-3.16,7.98-4.45,8.83-.56.35-1.2.44-1.73.44-.67-.03-1.17-.2-1.17-.2l-.44-.09c.23-.85.41-1.73.5-2.57.2-1.84.47-4.3.67-6.29,1.02-1.58,1.87-3.28,2.49-5.06.38-.26.76-.47,1.17-.53.41-.06.76-.06,1.11.09.53.12.94.5,1.26,1.17Z"/>
  <path class="cls-6" d="M95.41,37.55h0c.53-.99,1.32-1.29,2.28-1.14.41.06.79.26,1.17.53,1.29.94,2.28,2.75,2.28,2.75,0,0,0-.06.03-.15,0-.09.03-.2.06-.35-.03.15-.03.26-.06.35.06.73.12,1.55.18,2.43.18,1.93.35,4.15.61,6.32.12.94.29,1.87.56,2.78-.82.12-2.4.26-3.33-.32-1.29-.85-4.36-4.36-4.45-8.83-.06-2.08.2-3.48.67-4.36Z"/>
  <path class="cls-1" d="M112.05,217.38c-5.97,0-7.57-3.3-7.63-3.45-.2-.41.03-.88.5-1.05s.99.03,1.2.44c.06.12,1.29,2.43,5.94,2.43.5,0,.91.35.91.82,0,.44-.41.82-.91.82Z"/>
  <path class="cls-1" d="M112.05,404.26c-.47,0-.88-.32-.91-.73-.97-8.45.41-19.07,3.39-42.32.5-3.98,1.08-8.33,1.67-13.13,4.12-32.64,3.28-78.44,3.28-78.9,0-.44.41-.82.91-.82.53,0,.94.35.94.79,0,.47.85,46.35-3.28,79.11-.61,4.8-1.17,9.15-1.67,13.13-2.98,23.13-4.33,33.72-3.39,42,.06.44-.32.85-.82.88-.06,0-.09,0-.12,0Z"/>
  <path class="cls-1" d="M85.26,373.67c-7.6,0-12.17-4.33-12.25-4.39-.35-.32-.32-.85.06-1.14.38-.29.97-.26,1.29.06.38.35,9.24,8.69,23.25-.12.41-.26.99-.18,1.29.18s.2.88-.2,1.14c-5.12,3.22-9.65,4.27-13.42,4.27Z"/>
  <path class="cls-1" d="M146.91,367.76c-7.87,0-13.92-3.42-14.27-3.6-.44-.23-.56-.73-.26-1.11s.85-.47,1.29-.23c.09.06,10.38,5.85,21.09,2.02.47-.18.99.03,1.2.44.2.41-.03.88-.5,1.05-2.95,1.05-5.85,1.43-8.54,1.43Z"/>
  <path class="cls-1" d="M94.97,511.5c-.44,0-.85-.29-.91-.67-.32-1.78-.35-3.6-.06-5.38.06-.44.56-.73,1.05-.67.5.06.85.47.79.91-.26,1.64-.23,3.28.06,4.88.09.44-.26.85-.76.94h-.18Z"/>
  <path class="cls-1" d="M87.63,512h-.06c-.5-.03-.88-.41-.85-.88l.41-4.77c.03-.44.47-.79.99-.76.5.03.88.41.85.88l-.41,4.77c-.06.44-.44.76-.94.76Z"/>
  <path class="cls-1" d="M81.61,511.12h-.09c-.5-.03-.88-.41-.85-.88l.35-3.92c.03-.44.53-.76.99-.73.5.03.88.41.85.88l-.35,3.92c-.03.41-.44.73-.91.73Z"/>
  <path class="cls-1" d="M74.24,510.65c-.5,0-.91-.35-.91-.79-.06-1.46.15-2.9.61-4.3.15-.44.64-.67,1.14-.56s.76.58.61.99c-.41,1.23-.58,2.49-.53,3.77.03.44-.38.82-.88.85t-.06.03Z"/>
  <path class="cls-1" d="M121.21,511.24c-.12,0-.26-.03-.38-.09-.47-.18-.64-.67-.44-1.08.99-1.87.53-4.3-1.08-5.76-.35-.32-.35-.82.03-1.14.38-.32.94-.29,1.29.03,2.16,1.99,2.78,5.09,1.43,7.57-.18.29-.53.47-.85.47Z"/>
  <path class="cls-1" d="M127.93,510.54c-.12,0-.23-.03-.35-.06-.47-.18-.67-.64-.5-1.05.67-1.4.73-3.01.18-4.45-.18-.41.09-.88.56-1.02.47-.15.99.09,1.17.5.7,1.81.61,3.83-.23,5.59-.15.32-.47.5-.82.5Z"/>
  <path class="cls-1" d="M135.8,509.78h-.15c-.5-.09-.85-.5-.76-.94.29-1.49.2-3.07-.23-4.53-.12-.44.18-.88.64-.99.5-.12.99.15,1.11.58.53,1.7.61,3.51.26,5.23-.06.38-.44.64-.88.64Z"/>
  <path class="cls-1" d="M143.58,508.43c-.5,0-.91-.35-.91-.79-.06-1.29-.35-2.57-.88-3.8-.18-.41.06-.88.53-1.05.47-.15.99.06,1.17.47.58,1.37.94,2.84.99,4.3.03.44-.38.82-.88.85,0,.03-.03.03-.03.03Z"/>
  <path class="cls-1" d="M85.64,479.25c-.85,0-1.7-.03-2.52-.06-.5-.03-.91-.41-.88-.85s.38-.82.97-.76c2.72.12,5.47.03,8.19-.23.47-.06.97.26,1.02.7.06.44-.29.85-.79.91-2.02.18-4.01.29-6,.29Z"/>
  <path class="cls-1" d="M129.54,480.18c-.09,0-.15,0-.23-.03-2.37-.56-4.85-.85-7.25-.82h0c-.5,0-.91-.35-.91-.79s.41-.82.91-.82c2.63-.03,5.23.26,7.75.88.5.12.79.56.64.99-.12.35-.5.58-.91.58Z"/>
  <path class="cls-1" d="M68.95,221.36c-1.32-.06-2.63-.5-3.63-1.26-.38-.29-.41-.82-.06-1.14.35-.32.94-.35,1.29-.06,1.05.82,2.63,1.08,3.98.67.5-.18.82-.47.79-.61-.03-.12-.32-.35-.47-.47l-8.01-6.17c-1.08-.82-2.28-1.75-3.66-2.13-1.08-.29-2.28-.2-3.57-.15l-.58.03c-4.18.2-8.36-.2-12.4-1.23-.5-.12-.76-.58-.61-.99.15-.44.64-.67,1.14-.56,3.83.99,7.81,1.37,11.79,1.17l.58-.03c1.37-.09,2.78-.15,4.18.2,1.78.47,3.16,1.52,4.36,2.46l8.01,6.17c.35.26.91.7,1.05,1.35.29,1.17-.79,2.11-1.93,2.49-.73.18-1.49.29-2.25.26Z"/>
  <path class="cls-1" d="M68.07,228.17c-2.37-.09-4.71-.91-6.43-2.31-.38-.29-.41-.82-.06-1.14.35-.32.94-.35,1.29-.06,1.87,1.49,4.56,2.16,7.02,1.78.53-.09.88-.29.94-.38,0-.06-.2-.29-.29-.35l-5.91-6.05c-1.4-1.46-3.01-3.1-5.09-3.86-1.61-.58-3.48-.61-5.26-.64l-8.69-.15h-.03c-.5-.03-.88-.38-.88-.82s.44-.79.94-.79l8.69.15c1.87.03,3.98.06,5.94.76,2.49.91,4.24,2.69,5.79,4.3l5.91,6.05c.23.23.64.67.73,1.23.15,1.02-.88,1.93-2.43,2.16-.73.09-1.46.15-2.16.12Z"/>
  <path class="cls-1" d="M63.18,236.66c-1.02-.03-2.02-.2-2.98-.47-.5-.15-.76-.58-.61-1.02.15-.44.67-.67,1.14-.53,2.13.58,4.47.53,6.55-.15.06-.03.09-.03.12-.03,0-.03-.03-.03-.03-.06l-6.55-9.3c-.64-.91-1.37-1.96-2.4-2.54-.91-.5-2.05-.67-3.16-.85l-9.8-1.49c-.5-.09-.85-.5-.76-.94s.56-.73,1.05-.67l9.8,1.49c1.23.18,2.63.41,3.83,1.08,1.37.76,2.22,1.99,2.98,3.04l6.55,9.3c.15.23.5.7.38,1.26s-.58.94-1.37,1.2c-1.52.53-3.13.73-4.74.67Z"/>
  <path class="cls-1" d="M26.66,219.49c-.18,0-.32-.06-.47-.15-.41-.23-.53-.76-.26-1.11,2.66-3.51,6.29-6.49,10.44-8.63.44-.23.99-.09,1.26.29s.12.88-.32,1.11c-3.92,2.02-7.31,4.83-9.83,8.13-.18.23-.5.35-.82.35Z"/>
  <path class="cls-1" d="M200.2,212.73c-.41,0-.79-.23-.88-.61l-1.14-4.07c-.12-.44.18-.88.67-.97.5-.12.99.18,1.11.58l1.14,4.07c.12.44-.18.88-.67.97-.09.03-.18.03-.23.03Z"/>
  <path class="cls-1" d="M179.35,222.79c-1.99,0-3.95-.7-5.35-1.93-.67-.56-.94-1.14-.82-1.75.15-.76.88-1.14,1.29-1.37l5.88-3.1c2.02-1.08,4.12-2.19,6.52-2.78,2.63-.67,5.32-.61,7.95-.58,4.65.06,9.91.12,14.53,1.99.47.18.67.67.47,1.08-.2.41-.76.58-1.23.41-4.27-1.73-9.33-1.78-13.8-1.84-2.49-.03-5.06-.06-7.43.53-2.16.53-4.15,1.61-6.08,2.63l-5.85,3.1c-.29.15-.38.23-.44.29.03,0,.09.12.29.29,1.08.94,2.57,1.46,4.09,1.46h.03c.5,0,.91.35.91.82,0,.41-.44.79-.96.76Z"/>
  <path class="cls-1" d="M173.64,227.97c-.09,0-.18,0-.26-.03-.35-.09-.64-.32-.82-.61-.2-.32-.2-.73-.06-1.08.2-.47.61-.76.88-.94l9.45-6.67c1.2-.85,2.57-1.81,4.18-2.37,2.46-.85,5.09-.64,7.6-.44,2.08.18,4.01.32,5.85-.06.5-.12.99.18,1.11.61s-.18.88-.67.97c-2.13.44-4.33.26-6.46.09-2.43-.2-4.68-.38-6.76.32-1.35.47-2.54,1.32-3.71,2.13l-9.45,6.67s-.09.06-.15.12c.18.2.26.47.18.73-.15.32-.5.56-.91.56ZM173.91,226.39h0Z"/>
  <path class="cls-1" d="M191.04,224.26c-.44,0-.82-.29-.91-.67-.09-.44.26-.85.76-.94l10.27-1.43c.5-.06.97.23,1.05.67.09.44-.26.85-.76.94l-10.27,1.43s-.09,0-.15,0Z"/>
  <path class="cls-1" d="M181.19,238.88c-.76,0-1.49-.12-2.16-.32-1.26-.38-1.58-1.05-1.64-1.43-.12-.58.18-1.11.35-1.4l3.57-5.91c.23-.41.79-.56,1.26-.32.44.2.61.7.38,1.08l-3.57,5.91c-.06.09-.18.29-.18.38,0,0,.12.09.44.18,1.55.47,3.51.18,5.23-.76,1.73-.97,3.04-2.43,4.12-3.74l.23-.29c.73-.91,1.49-1.84,2.54-2.57,1.43-.99,3.16-1.4,4.83-1.78,1.4-.32,2.75-.64,3.86-1.29.41-.23.99-.15,1.29.23.29.38.18.88-.26,1.11-1.35.79-2.9,1.14-4.39,1.49-1.55.38-3.04.73-4.18,1.49-.85.58-1.49,1.37-2.16,2.22l-.26.29c-1.17,1.43-2.63,3.07-4.62,4.18-1.52.82-3.13,1.26-4.68,1.26Z"/>
  <path class="cls-1" d="M190.81,244.73c-1.14,0-2.02-.44-2.34-1.14-.23-.56-.09-1.08.03-1.43l.85-2.78c.32-1.11.7-2.34,1.46-3.42.73-1.02,1.73-1.78,2.66-2.54l.29-.23c3.13-2.49,5.94-5.26,8.33-8.31.29-.38.88-.47,1.29-.2s.53.76.23,1.14c-2.49,3.13-5.38,6.02-8.63,8.57l-.29.23c-.91.7-1.75,1.37-2.34,2.19-.61.88-.94,1.93-1.26,2.98l-.85,2.78c-.03.12-.12.35-.09.44.03.03.29.15.67.12,1.96-.03,3.86-1.23,4.53-2.84.09-.23.18-.47.23-.7.2-.64.44-1.4,1.02-1.99.61-.61,1.43-.97,2.11-1.2l7.69-2.98c.47-.18.99,0,1.2.41.2.41,0,.88-.47,1.05l-7.66,2.98c-.56.2-1.11.44-1.46.79-.32.35-.5.85-.64,1.37-.09.26-.18.56-.26.79-.94,2.28-3.48,3.89-6.23,3.92-.06,0-.09,0-.09,0Z"/>
  <path class="cls-1" d="M223.33,216.62c-.18,0-.35-.06-.53-.15-3.04-1.84-6.61-3.04-10.27-3.48-.5-.06-.85-.47-.79-.91.06-.44.56-.76,1.02-.7,3.95.47,7.78,1.78,11.05,3.74.41.26.53.76.23,1.11-.18.26-.44.38-.73.38Z"/>
  <path class="cls-1" d="M32.24,162.52c-.26,0-.56-.12-.73-.32-1.87-2.13-4.5-3.74-7.4-4.53-.5-.15-.76-.58-.61-1.02.15-.44.67-.67,1.14-.53,3.28.88,6.23,2.69,8.33,5.09.32.35.23.85-.18,1.14-.15.15-.35.18-.56.18Z"/>
  <path class="cls-1" d="M47.74,148.31c-.35,0-.67-.18-.85-.47-1.29-2.49-3.04-4.74-5.26-6.67-.35-.32-.35-.82,0-1.14.35-.32.94-.32,1.29,0,2.37,2.08,4.27,4.47,5.64,7.17.2.41,0,.88-.47,1.08-.09,0-.23.03-.35.03Z"/>
  <path class="cls-1" d="M177.65,131.55c-.12,0-.23-.03-.35-.06-.47-.18-.7-.64-.5-1.05,1.64-3.39,4.07-6.55,7.08-9.12.35-.32.94-.29,1.29,0,.35.32.35.82,0,1.14-2.84,2.43-5.12,5.41-6.67,8.6-.15.32-.47.5-.85.5Z"/>
  <path class="cls-1" d="M213.74,166c-.09,0-.15,0-.23-.03-.5-.12-.79-.56-.64-.99.85-2.72,3.39-4.94,6.49-5.64.5-.12.99.15,1.11.58.12.44-.18.88-.67.99-2.43.56-4.5,2.37-5.18,4.5-.12.35-.47.58-.88.58Z"/>
  <polygon class="cls-2" points="95.88 37.03 95.88 37 97.52 37 95.88 37.03"/>
  <path class="cls-1" d="M126.97,52.56c.03.2-.23.38-.53.35-1.58-.18-5.91-.76-6.26-2.34-.35-1.49,3.25-8.04,4.91-10.94.18-.35.88-.26.91.12l.97,12.81Z"/>
  <path class="cls-3" d="M119.57,39.69c-.35,0-.67-.2-.79-.56-.03-.06-.82-1.99-4.36-1.99h-.03c-3.71,0-4.91,1.55-4.94,1.61-.26.35-.79.44-1.14.2-.38-.26-.47-.73-.2-1.11.06-.09,1.67-2.31,6.32-2.31h.03c4.77,0,5.88,2.92,5.94,3.07.15.41-.09.88-.5,1.02-.15.06-.23.06-.32.06Z"/>
  <path class="cls-3" d="M107.84,35.3c-.23,0-.5-.12-.64-.29-.29-.35-.23-.85.12-1.14,1.64-1.29,3.68-2.11,5.76-2.34s4.27.12,6.17.99c.41.2.58.67.38,1.08s-.7.58-1.11.38c-1.61-.76-3.48-1.05-5.23-.85-1.78.2-3.51.91-4.91,2.02-.18.09-.35.15-.53.15Z"/>
  <path class="cls-3" d="M115.88,36.47c.35.09.29.64.29,1.02,0,1.11-.91,1.99-2.05,2.02-1.14,0-2.05-.88-2.05-1.99,0-.35.09-.7.26-.99,0,0,2.02-.5,3.54-.06Z"/>
  <path class="cls-3" d="M130.74,39.66c-.09,0-.18-.03-.26-.06-.44-.15-.64-.58-.5-1.02.06-.12,1.14-3.07,5.94-3.1h.06c4.62,0,6.2,2.16,6.29,2.28.26.38.18.88-.2,1.11s-.88.18-1.14-.2c-.06-.09-1.26-1.58-4.91-1.58h-.06c-3.57,0-4.36,1.93-4.39,2.02-.18.35-.5.56-.82.56Z"/>
  <path class="cls-3" d="M142.41,35.18c-.18,0-.35-.06-.53-.18-1.4-1.08-3.13-1.78-4.91-1.96-1.75-.18-3.63.12-5.23.88-.41.2-.91.03-1.11-.38s-.03-.88.38-1.08c1.87-.88,4.07-1.26,6.14-1.02,2.08.23,4.12,1.05,5.76,2.31.35.29.41.79.15,1.14-.15.2-.38.29-.64.29Z"/>
  <path class="cls-3" d="M137.91,36.44c.29.2.26.61.26.99,0,1.11-.91,1.99-2.05,2.02-1.14,0-2.05-.88-2.05-1.99,0-.38.12-.73.29-1.02,0-.03,2.69-.58,3.54,0Z"/>
  <path class="cls-4" d="M116.82,49.22c.12,1.9-2.19,3.6-5.21,3.77-2.98.2-5.53-1.2-5.64-3.1-.12-1.9,2.19-3.6,5.21-3.77,3.01-.18,5.53,1.2,5.64,3.1Z"/>
  <path class="cls-4" d="M143.67,47.99c.12,1.9-2.19,3.6-5.21,3.77-2.98.18-5.53-1.2-5.64-3.1-.12-1.9,2.19-3.6,5.21-3.77,2.98-.18,5.53,1.2,5.64,3.1Z"/>
  <path class="cls-1" d="M101.35,49.46c-.35,0-.7-.23-.79-.58-.76-2.6-1.87-5.09-3.3-7.4-.23-.38-.12-.88.26-1.11s.91-.12,1.14.26c1.52,2.43,2.69,5.06,3.48,7.81.12.44-.15.88-.58.99-.06,0-.15.03-.2.03Z"/>
  <path class="cls-1" d="M149.17,49.08c-.06,0-.12,0-.2-.03-.44-.12-.73-.56-.61-.97.7-2.84,1.87-5.56,3.42-8.04.23-.38.76-.5,1.14-.26s.53.73.26,1.11c-1.49,2.34-2.57,4.91-3.22,7.57-.06.38-.41.61-.79.61Z"/>
  <path class="cls-3" d="M125.16,60.22c-1.58,0-2.69-.23-2.81-.26-.44-.09-.73-.53-.61-.97.09-.44.56-.7.99-.61.06,0,6.26,1.32,9.68-2.69.29-.35.82-.38,1.17-.12.35.29.41.79.12,1.14-2.52,2.92-6.08,3.51-8.54,3.51Z"/>
  <path class="cls-1" d="M53.5,187.84c-3.57,6.2-6.38,12.69-8.33,19.42-.29.99,1.46,1.43,1.78.44,1.93-6.58,4.68-12.96,8.16-19.04.53-.94-1.05-1.75-1.61-.82Z"/>
  <path class="cls-1" d="M61.22,234.9c-2.63-1.61-4.18-4.15-5.76-6.52-.41-.61-.85-1.05-1.64-1.32-.76-.23-1.58-.38-2.34-.61-1.75-.53-3.42-1.17-5.03-1.96-.23-.12-.44-.12-.64-.06-.76-.29-1.7.67-.99,1.35,3.89,3.77,7.9,7.43,12.02,11,.85.73,2.13-.41,1.29-1.14-3.13-2.72-6.17-5.5-9.15-8.31.47.18.91.35,1.4.5.85.26,1.7.5,2.54.7.41.12.61.18.82.5.2.29.41.61.58.91,1.61,2.4,3.3,4.77,5.94,6.38,1.02.58,1.93-.82.97-1.4Z"/>
  <path class="cls-5" d="M188.73,148.86c-.41,4.33-2.9,11.23-6.61,17.78l2.95,8.72c-64.84-13.07-126.87,4.39-126.87,4.39l2.75-10.76c-4.88-4.65-9.33-15.79-10.06-20.76-.18-1.14-.2-2.28-.12-3.42.09-1.26.29-2.49.61-3.71,1.96-7.57,7.84-15.03,11.17-21.61,6.38-12.66,15.5-38.19,15.91-39.36l.03-.03c1.49-.35,2.95-.64,4.42-.91,0,0-19.27,41.38,40.94,44.39,46.47,2.31,42.46-41.18,42.46-41.18,3.83.91,7.6,1.84,10.7,2.69,0,0-4.91,24.6,0,38.55,3.39,9.65,12.63,15.44,11.7,25.24Z"/>
</svg>