<?xml version="1.0" encoding="UTF-8"?>
<svg id="Camada_1" data-name="Camada 1" xmlns="http://www.w3.org/2000/svg" viewBox="0 0 194.73 512">
  <defs>
    <style>
      .cls-1 {
        fill: #bb7652;
      }

      .cls-1, .cls-2, .cls-3, .cls-4, .cls-5 {
        stroke-width: 0px;
      }

      .cls-2 {
        fill: #2b3448;
      }

      .cls-3 {
        fill: #df895d;
      }

      .cls-4 {
        fill: #96c6dc;
      }

      .cls-5 {
        fill: #e79f74;
      }
    </style>
  </defs>
  <path class="cls-1" d="M116.08,84.72c-7.32,8.9-24.1,5.94-24.1,5.94l2.18-9.65c2.99,3.05,6.69,5.35,11.14,5.5.18.03.33.03.51.03h0c.15,0,.33,0,.51-.03,3.64-.15,6.81-1.7,9.47-3.94l.3,2.15Z"/>
  <path class="cls-4" d="M139.4,94.93l-2.63-.15s-6.09,36.02-36.79,36.02c-24.46,0-28.85-19.38-29.66-32.13-.21-3.26-.15-5.32-.15-5.32h0c-.96.06-1.91.12-2.84.18,0,0,.24,2,.45,5.32.75,11.14,1.4,36.85-7.2,48.47.87,5.97,1.82,12.81,2.78,19.5,0,0,46.41-7.94,71.97,3.67,1.91-12.93,4-27.03,5.32-35.75-9.86-8.3-1.25-39.81-1.25-39.81Z"/>
  <path class="cls-5" d="M139.4,94.93l-2.63-.15s-6.09,36.02-36.79,36.02c-24.46,0-28.85-19.38-29.66-32.13-.21-3.26-.15-5.32-.15-5.32h0c9.95-.57,21.32-.48,21.32-.48l.51-2.24s16.81,2.96,24.1-5.94l1.52,9.68s11.71-.03,21.77.57Z"/>
  <path class="cls-5" d="M55.39,220.04c-10.78,2.96-15.47-7.68-15.47-7.68,0,0-37.72-41.12-38.88-42.89-1.16-1.76-1.58-7.5,0-10.33,1.58-2.84,48.8-62.12,56.45-64.27,2.15-.6,5.76-1.02,9.83-1.31,0,0,.24,2,.45,5.32.75,11.14,1.4,36.85-7.2,48.47-1.46-10.36-2.57-18.16-2.57-18.16l-34.23,31.48,25.47,43.16s6.69-2.51,12.16-4.48c3.32-1.19,6.15-2.21,6.72-2.36,1.46-.33,3.2.21,3.2.21,0,0,14.54,7.23,14.25,8.78s-3.82,2.27-6.57,2.21c-2.75-.06-7.71-3.17-7.71-3.17l-2.12,1.82s8,4.57,8.06,5.58-.21,6.51-.21,6.51c0,0,3.23,5.05,2.96,5.91s-4.36.21-4.36.21c0,0,.96,1.46.24,2.36-.72.93-4.78.3-4.78.3l-.24,1.16c-4.42.6-7.35-5.91-7.35-5.91l-6.75-3.37c-.45.21-.9.33-1.34.45Z"/>
  <path class="cls-5" d="M135.88,199.67l1.85-.93s1.73-.54,3.2-.21c1.49.33,18.84,6.84,18.84,6.84l11.2-42.68-29.09-36.35s-.51,3.29-1.25,8.45c-9.86-8.33-1.25-39.84-1.25-39.84,5.02.3,9.62.75,12.16,1.46,7.65,2.18,40.59,61.94,42.17,64.78s1.16,8.57,0,10.33-24.58,42.38-24.58,42.38c0,0-5.08,11.53-16.81,7.23l-6.75,3.37s-.42.93-1.16,2.06c-1.25,1.85-3.4,4.21-6.15,3.85l-.24-1.16s-4.09.63-4.78-.3c-.72-.93.24-2.39.24-2.39,0,0-4.09.69-4.36-.21-.27-.84,2.78-5.61,2.96-5.91h0s-.27-5.5-.21-6.48c.06-1.02,8.06-5.58,8.06-5.58l-2.12-1.82s-4.96,3.11-7.71,3.17-6.27-.66-6.57-2.21c-.24-1.22,8.48-5.85,12.36-7.85Z"/>
  <path class="cls-5" d="M131.37,346.25s2.3,18.07,1.88,32.73c-.42,14.66-9.47,84.49-9.47,84.49l.21,10.3s4.75,30.01,3.08,32.25c-1.64,2.24-18.34.48-18.34.48,0,0-3.02.18-4.99-.66.15-5.41.48-16.04-.06-22.67.48-4.18,1.1-7.82,1.88-9.59,2.27-5.11,4.03-11.41,4.03-11.41l-4.12-73.26c1.1-16.19,1.97-28.82,1.97-30.28,0-4.33-3.61-97.99-3.61-97.99l41.27-30.82c.78,4.06,1.16,7.76,1.13,10.6-.03.03-2.42,46.23-14.87,105.81Z"/>
  <path class="cls-4" d="M145.11,229.86l-41.27,30.82-48.98-17.47c-.87-9.62-.45-14.25-.45-14.25,0,0,34.17,11.29,77.62-8.48-.18.3-3.23,5.05-2.96,5.91s4.36.21,4.36.21c0,0-.96,1.46-.24,2.39.72.9,4.78.3,4.78.3l.24,1.16c2.75.36,4.9-2,6.15-3.85.3,1.08.54,2.18.75,3.26Z"/>
  <path class="cls-5" d="M139.91,208.39s-.03.03-.09.06c-.9.51-7.94,4.6-8,5.53-.06.99.21,6.48.21,6.48h-.03c-43.48,19.77-77.62,8.48-77.62,8.48-.03-2.6.36-5.64.99-8.9.45-.12,5.55-20.55,6-20.7,2.57-7.14,4.84-12.45,4.84-12.45-.84-5.67-1.85-12.78-2.9-20.04,0,0,46.41-7.94,71.97,3.67-1.16,7.82-2.27,15.23-3.05,20.73.06,0,5.58,12.1,7.68,17.14Z"/>
  <path class="cls-5" d="M131.55,50.97c1.05.39,1.7,1.97,1.61,5.53-.09,4.57-2.81,8.15-3.94,9.02-1.13.84-2.54.24-2.54.24l-.39-.09c.21-.87.36-1.76.45-2.63.18-1.88.42-4.39.6-6.42.9-1.61,1.64-3.34,2.21-5.17.33-.27.69-.48,1.05-.54.33-.09.66-.06.96.06Z"/>
  <path class="cls-2" d="M94.42,19.23c3.4-1.88,7.29-2.93,11.38-2.93,6.27,0,12.01,2.48,16.4,6.54,5.29,4.9,8.63,12.1,8.63,20.16,0,2.96-.45,5.79-1.28,8.45-.57,1.82-1.31,3.55-2.21,5.17.06-.96.15-1.76.18-2.39h0c-.51-.09-.96-.18-1.43-.27-.15-.03-.3-.06-.42-.12-.09-.03-.21-.06-.3-.06-.12-.03-.24-.06-.36-.09-.15-.03-.27-.06-.39-.12t-.06-.03h-.06s-.06-.03-.06-.03h-.06s-.03,0-.06-.03c-.03,0-.06-.03-.06-.03h0c-.09-.03-.15-.06-.21-.09h0c-.06-.03-.15-.06-.21-.09-.18-.06-.36-.15-.54-.24-.36-.15-.69-.33-.99-.51s-.6-.36-.87-.57c-.18-.15-.36-.27-.51-.42s-.33-.3-.45-.45c-3.52-3.61-2.93-9.47-6.24-14.66-1.1-1.76-2.45-3.17-3.79-4.3-.18-.18-.39-.33-.6-.48-.27-.21-.51-.39-.78-.57-.42-.3-.84-.57-1.25-.81-.6-.39-1.22-.69-1.79-.96-.33-.15-.66-.3-.96-.45-.45-.21-.9-.36-1.28-.51-.21-.06-.39-.12-.57-.18-.09-.03-.18-.06-.27-.09s-.15-.06-.24-.06h0c-.24-.06-.45-.12-.63-.18-.06-.03-.12-.03-.18-.06h-.03c-.06-.03-.12-.03-.15-.03h0c-.06-.03-.12-.03-.15-.03-.12-.03-.21-.06-.21-.06h0c-.45.21-.87.45-1.28.69s-.81.48-1.22.75c-.39.27-.78.51-1.16.78s-.75.54-1.08.84c-.75.6-1.46,1.22-2.12,1.88-.24.21-.45.42-.66.66-.63.66-1.22,1.34-1.79,2.06-.36.48-.72.93-1.08,1.4-.33.48-.66.96-.96,1.43-1.08,1.67-1.97,3.37-2.69,5.02-.21.48-.42.93-.6,1.37-.18.45-.36.9-.51,1.34-.24.66-.45,1.28-.63,1.88-.15.42-.24.81-.36,1.16-.06.18-.12.39-.15.57-.21.72-.36,1.4-.48,1.97-.03.15-.06.27-.09.39,0,.06-.03.09-.03.15-.06.27-.09.54-.15.78s-.09.48-.12.66c-.03.09-.03.18-.03.27-.03.15-.06.27-.06.36s-.03.15-.03.15c0,0-.87-1.85-2-2.81-.84-2.66-1.28-5.5-1.28-8.45-.06-10.36,5.47-19.32,13.59-23.74Z"/>
  <path class="cls-5" d="M94.13,81.02c-.99-.99-1.88-2.06-2.69-3.17-2.39-3.2-4.09-6.66-5.14-9.05-.42-.96-.75-1.94-1.02-2.96-.24-.93-.42-1.88-.51-2.84-.24-2.21-.42-4.48-.54-6.45-.06-.9-.12-1.76-.15-2.48,0-.09.03-.21.06-.36,0-.09.03-.15.03-.27.03-.18.06-.42.12-.66.06-.24.09-.51.15-.78,0-.06.03-.09.03-.15.03-.12.06-.27.09-.39.12-.6.3-1.25.48-1.97.06-.18.09-.36.15-.57.12-.39.24-.78.36-1.16.18-.6.42-1.25.63-1.88.15-.42.33-.87.51-1.34.18-.45.39-.93.6-1.37.72-1.64,1.61-3.32,2.69-5.02.3-.48.63-.96.96-1.43.33-.48.69-.96,1.08-1.4.57-.69,1.16-1.37,1.79-2.06.21-.21.42-.45.66-.66.66-.66,1.37-1.28,2.12-1.88.36-.3.72-.57,1.08-.84s.75-.54,1.16-.78c.39-.24.81-.51,1.22-.75s.84-.48,1.28-.69c0,0,.03,0,.09.03.03,0,.06,0,.12.03.06,0,.09.03.15.03h0c.06,0,.09.03.15.03h.03c.06,0,.12.03.18.06.18.06.39.12.63.18h0c.06.03.15.06.24.06.09.03.18.06.27.09.18.06.36.12.57.18.39.15.84.33,1.28.51.33.15.63.27.96.45.57.27,1.16.6,1.79.96.42.24.84.51,1.25.81.27.18.51.39.78.6.21.15.39.3.6.48,1.37,1.13,2.69,2.57,3.79,4.3,3.32,5.2,2.72,11.05,6.24,14.66l.45.45c.15.15.33.27.51.42.27.21.57.39.87.57.3.18.63.36.99.51.18.09.36.15.54.24.06.03.15.06.21.09h0c.06.03.15.06.21.09h0s.06.03.06.03c.03,0,.06.03.06.03h.06s.03,0,.06.03h.06s.03,0,.06.03c.12.06.27.09.39.12.12.03.24.06.36.09.09.03.18.06.3.09.15.03.3.06.42.09.45.09.93.18,1.43.27h0c-.03.6-.12,1.43-.18,2.39-.18,2.03-.42,4.54-.6,6.42-.09.9-.24,1.79-.45,2.63-.27,1.13-.63,2.21-1.08,3.29-1.05,2.39-2.75,5.76-5.11,8.93-1.25,1.7-2.72,3.31-4.36,4.69-2.66,2.24-5.82,3.82-9.47,3.94-.15.03-.33.03-.51.03h0c-.18,0-.33,0-.51-.03-4.36-.18-8.09-2.48-11.08-5.52Z"/>
  <path class="cls-2" d="M124.38,14.87c.15,2.81-.57,5.7-2.18,8-4.39-4.09-10.12-6.54-16.4-6.54-4.09,0-7.97,1.05-11.38,2.93-1.49-1.31-2.42-3.34-2.48-5.38-.09-2.9,1.34-5.67,3.37-7.71,2.06-2.03,4.66-3.4,7.35-4.48,2.78-1.1,5.76-1.97,8.75-1.61,3.55.42,6.78,2.6,9.08,5.35,2.21,2.66,3.67,5.97,3.88,9.44Z"/>
  <path class="cls-5" d="M105.5,388.96c-2.21,32.05-5.53,77.95-5.53,77.95,0,0,1.16,6.42,2.99,11.74.33,1.02.6,2.6.75,4.54.54,6.6.21,17.26.06,22.67-.03,1.34-.06,2.36-.06,2.9,0,3.43-6.87,2.36-6.87,2.36,0,0-16.81.24-18.25-2.12-1.43-2.36,6-31.87,6-31.87l1.13-10.24s-10.3-60.89-11.23-74.93c-.96-14.07,6.75-47.96,6.75-47.96-19.2-50.74-24.82-83.68-26.37-100.79l48.98,17.47s3.61,93.66,3.61,97.99c-.03,1.46-.87,14.13-1.97,30.31Z"/>
  <path class="cls-5" d="M78.98,52.08c.48-1.02,1.16-1.31,2.03-1.16.36.06.69.27,1.02.54,1.13.96,2,2.81,2,2.81,0,0,0-.06.03-.15,0-.09.03-.21.06-.36-.03.15-.03.27-.06.36.06.75.09,1.58.15,2.48.15,1.97.33,4.24.54,6.45.09.96.27,1.91.51,2.84-.75.12-2.12.27-2.96-.33-1.13-.87-3.85-4.45-3.94-9.02,0-2.15.24-3.58.63-4.45Z"/>
  <path class="cls-1" d="M104.22,66.68c-.03.21.21.36.48.33,1.43-.15,5.44-.72,5.76-2.21.33-1.43-2.99-7.59-4.51-10.33-.18-.33-.81-.24-.84.09l-.9,12.13Z"/>
  <path class="cls-2" d="M111.06,54.62c-.09,0-.18-.03-.27-.06-.42-.15-.66-.63-.51-1.05.03-.12,1.08-2.93,5.53-2.93h.03c4.33.03,5.79,2.12,5.85,2.21.27.39.15.9-.21,1.13-.39.27-.9.15-1.13-.21-.06-.09-1.13-1.49-4.51-1.49h-.03c-3.2,0-3.91,1.76-3.94,1.82-.18.36-.48.57-.81.57Z"/>
  <path class="cls-2" d="M121.81,50.46c-.18,0-.36-.06-.51-.18-1.25-1.02-2.87-1.7-4.48-1.88s-3.32.09-4.78.81c-.42.21-.9.03-1.1-.39-.21-.42-.03-.9.39-1.1,1.76-.84,3.76-1.16,5.7-.96,1.91.24,3.82,1.02,5.32,2.24.36.3.42.81.12,1.16-.18.21-.42.3-.66.3Z"/>
  <path class="cls-2" d="M114.4,51.51c-.33.09-.27.63-.27.99,0,1.05.84,1.88,1.88,1.88s1.88-.84,1.88-1.88c0-.33-.09-.66-.24-.93,0,0-1.82-.48-3.26-.06Z"/>
  <path class="cls-2" d="M100.79,54.56c-.36,0-.66-.21-.78-.57-.03-.06-.75-1.85-3.97-1.85-3.37-.09-4.48,1.4-4.51,1.46-.27.36-.78.45-1.13.18-.36-.27-.45-.78-.21-1.13.06-.09,1.55-2.18,5.82-2.18h.06c4.48.03,5.5,2.84,5.53,2.96.15.42-.09.9-.51,1.05-.12.09-.21.09-.3.09Z"/>
  <path class="cls-2" d="M90.03,50.35c-.24,0-.48-.12-.66-.3-.3-.36-.24-.87.12-1.16,1.52-1.19,3.4-1.97,5.35-2.21,1.91-.21,3.94.15,5.67.99.42.21.57.69.39,1.1-.21.42-.69.6-1.1.39-1.46-.72-3.17-1.02-4.78-.84-1.61.18-3.23.84-4.48,1.85-.15.12-.33.18-.51.18Z"/>
  <path class="cls-2" d="M94.19,51.48c-.27.18-.24.6-.24.93,0,1.05.84,1.88,1.88,1.88s1.88-.84,1.88-1.88c0-.36-.09-.69-.27-.99,0,.03-2.48-.51-3.26.06Z"/>
  <path class="cls-3" d="M113.57,63.55c-.12,1.79,2.03,3.37,4.78,3.55,2.75.18,5.08-1.13,5.2-2.93.12-1.79-2.03-3.37-4.78-3.55-2.78-.18-5.11,1.13-5.2,2.93Z"/>
  <path class="cls-3" d="M88.87,62.38c-.12,1.79,2.03,3.37,4.78,3.55,2.75.18,5.08-1.13,5.2-2.93.12-1.79-2.03-3.37-4.78-3.55-2.75-.18-5.08,1.13-5.2,2.93Z"/>
  <path class="cls-1" d="M127.78,63.81c-.06,0-.15,0-.24-.03-.45-.12-.69-.57-.57-1.02.72-2.6,1.82-5.08,3.23-7.38.24-.39.75-.51,1.13-.27s.51.75.27,1.13c-1.31,2.18-2.36,4.51-3.05,6.96-.09.36-.42.6-.78.6Z"/>
  <path class="cls-1" d="M83.82,63.49c-.36,0-.72-.24-.81-.63-.6-2.51-1.61-4.93-2.96-7.14-.24-.39-.12-.9.27-1.13.39-.24.9-.12,1.13.27,1.43,2.36,2.51,4.93,3.17,7.62.12.45-.18.9-.6.99-.09,0-.15.03-.21.03Z"/>
  <path class="cls-2" d="M105.89,74c-2.27,0-5.55-.57-7.88-3.34-.3-.36-.24-.87.12-1.16s.87-.24,1.16.12c3.14,3.76,8.78,2.54,8.84,2.54.45-.09.9.18.99.63s-.18.9-.63.99c-.09,0-1.13.24-2.6.24Z"/>
  <path class="cls-1" d="M77.04,226.16c-.63,0-1.25-.12-1.76-.33-.42-.18-.6-.66-.42-1.08.18-.42.66-.6,1.08-.42.66.3,1.67.27,2.39-.03.36-.15.63-.36.69-.57.06-.51-1.19-2.51-2.63-4.21-.15-.15-.21-.36-.21-.57.09-2.78.06-6.15-.15-6.69-.33-.3-3.73-2.48-6.81-4.36-.21-.12-.33-.33-.39-.54-.03-.24,0-.48.15-.66l1.58-2.12c.15-.18.36-.3.57-.33.24-.03.45.06.63.21.03.03,3.85,3.4,7.56,2.96,2.81-.33,4-1.16,4.12-1.46-.03.03-.12-.06-.39-.18-.6-.3-1.85-.96-3.34-1.79-3.11-1.67-8.93-4.84-10.12-4.99-1.43-.18-6.3.78-8.06,1.16-.45.09-.9-.18-.99-.63s.18-.9.63-.99c.66-.15,6.63-1.43,8.6-1.19,1.4.18,5.67,2.45,10.69,5.17,1.49.81,2.69,1.46,3.29,1.73,1.34.66,1.34,1.58,1.28,1.94-.27,1.64-3.05,2.54-5.55,2.84-3.46.39-6.75-1.73-8.15-2.81l-.54.72c2.54,1.55,6.12,3.82,6.54,4.39.18.24.63.84.42,7.32,1.34,1.58,3.26,4.21,2.72,5.61-.24.66-.81,1.16-1.58,1.52-.48.24-1.13.36-1.82.36Z"/>
  <path class="cls-1" d="M74.77,229.09c-1.28,0-2.87-.66-3.43-.9-.42-.18-.6-.69-.42-1.1.18-.42.69-.6,1.1-.42,1.25.57,2.75.93,3.08.72-.06-1.34-.93-2.9-1.76-4.39-.18-.33-.36-.63-.51-.96-.63-1.19-.75-2.99-.81-4.42-.03-.54-.06-1.25-.15-1.55-1.31-.63-6.75-3.46-6.99-3.61-.42-.21-.57-.72-.36-1.1.21-.42.72-.57,1.1-.36,1.82.96,6.66,3.43,7.14,3.67.75.33.78,1.22.9,2.87.06,1.28.18,2.87.63,3.73.15.3.33.63.51.93.93,1.7,1.91,3.43,1.91,5.23,0,.6-.24,1.08-.72,1.34-.36.27-.78.33-1.22.33ZM72.09,216.19h0Z"/>
  <path class="cls-1" d="M69.61,229.21c-.36,0-.72-.09-1.05-.24-1.64-.81-3.7-2.39-4.51-5.44l-7.29-3.02c-1.16.45-5.14,1.73-8.12.48-.42-.18-.63-.66-.45-1.08.18-.42.66-.63,1.08-.45,2.84,1.16,7.14-.6,7.17-.63.21-.09.45-.09.63,0l8,3.31c.24.09.45.33.48.6.57,2.66,2.36,4.03,3.73,4.72.33.15.6.03.69-.03.09-.06.33-.27.3-.63-.12-2.06-.99-4.45-1.79-5.11-1.58-1.25-8.09-6-8.15-6.03-.36-.27-.45-.78-.18-1.16.27-.36.78-.45,1.16-.18.27.21,6.6,4.81,8.21,6.06,1.37,1.1,2.3,4.06,2.42,6.3.06.87-.33,1.64-1.05,2.12-.39.27-.84.39-1.28.39Z"/>
  <path class="cls-1" d="M46.31,207.35c-.15,0-.27-.03-.39-.09-.39-.21-.54-.72-.33-1.13.06-.09,1.28-2.27,3.37-3.05.42-.15.9.06,1.08.48.15.42-.06.9-.48,1.08-1.52.57-2.48,2.27-2.51,2.3-.18.24-.45.42-.75.42Z"/>
  <path class="cls-1" d="M162.16,210.45c-.39,0-.72-.27-.81-.66-.27-1.19-.84-2.33-1.67-3.23-.3-.33-.3-.87.03-1.16s.87-.3,1.16.03c1.05,1.1,1.76,2.51,2.09,4,.09.45-.18.9-.63.99-.09.03-.12.03-.18.03Z"/>
  <path class="cls-1" d="M132.02,221.29c-.39,0-.75-.27-.81-.69-.15-.87-.9-5.35-.15-6.99.63-1.37,5.02-4,7.41-5.38l-.81-.69c-1.46.81-5.73,3.02-8.81,3.7-3.4.75-5.5-1.91-6.12-3.43-.18-.42.03-.9.45-1.08,3.11-1.34,12.16-7.71,12.24-7.76.36-.27.9-.18,1.16.21.27.36.18.9-.21,1.16-.36.24-7.97,5.61-11.71,7.53.57.87,1.82,2.21,3.85,1.76,3.46-.75,8.81-3.79,8.87-3.82.3-.18.69-.12.96.09l2.12,1.82c.21.18.3.45.27.72-.03.27-.18.51-.42.63-3.43,1.91-7.38,4.42-7.74,5.2-.39.87-.09,4.03.27,6,.09.45-.21.87-.66.96-.06.06-.12.06-.18.06Z"/>
  <path class="cls-1" d="M132.53,227.92c-.24,0-.45-.09-.63-.3-.3-.36-.27-.87.09-1.16,1.7-1.46,2.78-3.7,2.87-5.94v-.72c0-.75,0-1.49.24-2.27.51-1.67,1.88-2.66,3.2-3.61,1.05-.75,2-1.46,2.51-2.45.21-.42.69-.57,1.1-.36s.57.69.36,1.1c-.66,1.34-1.85,2.21-3.02,3.05-1.13.84-2.24,1.61-2.6,2.78-.18.54-.18,1.13-.18,1.79v.81c-.12,2.69-1.4,5.35-3.43,7.14-.12.09-.33.15-.51.15Z"/>
  <path class="cls-1" d="M137.4,230.55c-.24,0-.45-.09-.63-.27-.3-.33-.27-.87.06-1.16.57-.51.9-1.43.96-2.81l.03-.72c.03-1.05.06-2.15.48-3.2.57-1.43,1.73-2.45,2.87-3.4,1.1-.96,2.15-1.85,2.48-3.08.12-.45.57-.72,1.02-.6.45.12.72.57.6,1.02-.42,1.73-1.73,2.84-2.99,3.91-1.02.87-1.97,1.7-2.39,2.78-.3.78-.33,1.67-.36,2.63,0,.27,0,.51-.03.78-.09,1.82-.57,3.14-1.49,3.97-.21.09-.42.15-.6.15Z"/>
  <path class="cls-1" d="M104.46,404.75h-.06c-.45-.03-.81-.42-.78-.87.03-.27,1.88-27.18,2.99-45.28,1.13-18.04-3.58-97.06-3.61-97.87-.03-.45.33-.84.78-.87s.84.33.87.78c.06.81,4.75,79.95,3.61,98.08-1.13,18.07-2.99,45.01-2.99,45.28-.03.42-.39.75-.81.75Z"/>
  <path class="cls-1" d="M97.83,352.43c-3.91,0-7.85-1.52-10.6-4.33-.33-.33-.33-.84,0-1.16.33-.33.84-.33,1.16,0,3.55,3.64,9.35,4.84,14.07,2.96.42-.18.9.03,1.08.45.18.42-.03.9-.45,1.08-1.67.69-3.46,1.02-5.26,1.02Z"/>
  <path class="cls-1" d="M121.48,354.94c-3.05,0-6.09-.96-8.51-2.78-.36-.27-.42-.81-.15-1.16.27-.36.81-.45,1.16-.15,3.46,2.66,8.48,3.23,12.45,1.4.42-.18.9,0,1.1.42.18.42,0,.9-.42,1.1-1.79.78-3.7,1.16-5.64,1.16Z"/>
  <path class="cls-1" d="M57.66,129.55c-.39,0-.75-.3-.81-.72-.45-2.99-1.13-6-2-8.9-.12-.45.12-.9.54-1.02.45-.12.9.12,1.02.54.9,2.99,1.58,6.03,2.06,9.14.06.45-.24.87-.69.93-.03.03-.06.03-.12.03Z"/>
  <path class="cls-1" d="M141.31,127.16h-.06c-.45-.03-.81-.45-.75-.9.24-2.81,1.1-5.58,2.57-8,.24-.39.75-.51,1.13-.3.39.24.51.75.3,1.13-1.31,2.21-2.12,4.72-2.33,7.29-.06.45-.42.78-.87.78Z"/>
  <path class="cls-1" d="M171.03,163.5c-.15,0-.3-.03-.42-.12-.39-.24-.54-.75-.3-1.13,1.46-2.45,3.73-4.36,6.39-5.38.42-.18.9.06,1.08.48.15.42-.06.9-.48,1.08-2.33.9-4.3,2.54-5.55,4.69-.15.24-.42.39-.72.39Z"/>
  <path class="cls-1" d="M23.82,161.38c-.18,0-.36-.06-.51-.18-1.58-1.22-3.64-1.85-5.64-1.73-.45.03-.84-.33-.87-.78-.03-.45.33-.84.78-.87,2.39-.15,4.84.63,6.75,2.06.36.27.42.81.15,1.16-.18.21-.42.33-.66.33Z"/>
  <path class="cls-1" d="M99.08,214.6c-.18,0-.36-.06-.54-.18l-3.7-3.05c-.36-.3-.39-.81-.12-1.16.3-.36.81-.42,1.16-.12l3.7,3.05c.36.3.39.81.12,1.16-.15.18-.39.3-.63.3Z"/>
  <path class="cls-1" d="M89.38,471.71c-.39,0-.72-.27-.81-.66-.09-.45.18-.9.63-.99,2.27-.51,4.6-.66,6.9-.51.45.03.81.42.78.9-.03.45-.45.78-.9.78-2.15-.15-4.3,0-6.42.48h-.18Z"/>
  <path class="cls-1" d="M119.69,468.64c-.09,0-.21-.03-.3-.06-1.85-.72-3.91-.87-5.82-.39-.45.09-.9-.18-.99-.6-.12-.45.18-.9.6-.99,2.24-.54,4.66-.39,6.84.48.42.18.63.66.48,1.08-.15.3-.48.48-.81.48Z"/>
  <path class="cls-1" d="M109.48,507.19c-.33,0-.63-.18-.75-.48-.18-.42,0-.9.42-1.1.66-.3.93-1.16.9-1.91-.06-.93-.54-1.82-1.02-2.69-.21-.42-.06-.9.36-1.1s.9-.06,1.1.36c.51.99,1.1,2.09,1.19,3.34.09,1.31-.45,2.9-1.85,3.52-.15.06-.27.06-.36.06Z"/>
  <path class="cls-1" d="M115.54,508.12c-.18,0-.39-.06-.54-.21-.36-.3-.39-.81-.09-1.16.39-.48.6-1.13.54-1.73-.06-.63-.39-1.22-.9-1.58-.36-.27-.42-.81-.15-1.16.27-.36.81-.42,1.16-.15.84.66,1.4,1.67,1.52,2.72.12,1.08-.21,2.15-.93,2.99-.15.21-.39.3-.63.3Z"/>
  <path class="cls-1" d="M119.48,507.76c-.18,0-.36-.06-.54-.18-.36-.3-.39-.81-.12-1.16.39-.45.36-1.16.24-1.67-.18-.72-.63-1.37-1.08-2-.24-.39-.15-.9.24-1.13.39-.24.9-.15,1.13.24.48.72,1.02,1.52,1.28,2.48.33,1.19.12,2.36-.54,3.17-.15.15-.39.27-.63.27Z"/>
  <path class="cls-1" d="M123.48,507.67c-.24,0-.48-.12-.66-.3-.3-.36-.24-.87.12-1.16.39-.3.63-.78.69-1.28.03-.48-.12-1.02-.45-1.37-.3-.36-.27-.87.09-1.16.33-.3.87-.27,1.16.09.63.72.93,1.67.87,2.63-.09.96-.57,1.82-1.31,2.42-.15.09-.33.15-.51.15Z"/>
  <path class="cls-1" d="M97.08,512c-.21,0-.39-.06-.57-.21-1.16-1.05-1.91-2.57-2.06-4.12s.3-3.2,1.25-4.45c.27-.36.81-.45,1.16-.18s.45.78.18,1.16c-.72.93-1.05,2.15-.93,3.31.12,1.16.66,2.27,1.55,3.08.33.3.36.84.06,1.16-.21.15-.45.24-.66.24Z"/>
  <path class="cls-1" d="M90.9,511.04c-.3,0-.6-.15-.72-.45-.93-1.73-.78-4,.3-5.61.27-.39.78-.48,1.13-.21.39.27.48.78.21,1.13-.78,1.13-.87,2.72-.21,3.91.21.42.06.9-.36,1.1-.09.09-.24.12-.36.12Z"/>
  <path class="cls-1" d="M86.3,511.19c-.3,0-.57-.15-.72-.45-1.05-1.97-.48-4.6,1.28-5.97.36-.27.9-.21,1.16.15s.21.87-.15,1.16c-1.13.87-1.49,2.63-.84,3.88.21.39.06.9-.33,1.1-.15.09-.27.12-.42.12Z"/>
  <path class="cls-1" d="M81.91,510.48c-.24,0-.51-.12-.66-.33-1.1-1.46-1.22-3.55-.33-5.14.21-.39.72-.54,1.13-.33.39.21.54.72.33,1.13-.57,1.05-.48,2.42.21,3.37.27.36.18.9-.18,1.16-.15.06-.33.12-.51.12Z"/>
  <path class="cls-1" d="M103.74,508.12h0c-.48,0-.84-.39-.84-.84,0-.12.27-13.41.27-16.55s-.45-8.9-.69-10.51c-.24-1.55-1.55-5.41-1.58-5.44-.15-.42.09-.9.51-1.05.42-.15.9.09,1.05.51.06.15,1.37,4.03,1.64,5.73s.69,7.56.69,10.75-.27,16.46-.27,16.6c.03.42-.33.78-.78.78Z"/>
</svg>