<?xml version="1.0" encoding="UTF-8"?>
<svg id="Camada_1" data-name="Camada 1" xmlns="http://www.w3.org/2000/svg" viewBox="0 0 164.87 512">
  <defs>
    <style>
      .cls-1 {
        fill: #bb7652;
      }

      .cls-1, .cls-2, .cls-3, .cls-4, .cls-5 {
        stroke-width: 0px;
      }

      .cls-2 {
        fill: #2b3448;
      }

      .cls-3 {
        fill: #df895d;
      }

      .cls-4 {
        fill: #dd7470;
      }

      .cls-5 {
        fill: #e79f74;
      }
    </style>
  </defs>
  <path class="cls-2" d="M149.91,95.03c-2.48-2.31-5.29-3.88-8.15-4.7-1.87-.55-4.38-1.43-7.1-2.39-2.22-.82-4.61-1.72-6.89-2.57-5.84-2.22-10.92-4.29-10.92-4.29l-34.2-4.88s-9.78,2.16-19.27,4.44c-2.13.53-4.23,1.02-6.25,1.55-4.26,1.08-7.94,2.07-9.9,2.74-1.2.41-3.12,2.45-5.58,5.72-.79-1.2-1.28-2.57-1.43-4.03-.32-3.12,1.08-6.37,3.59-8.29,1.46-1.11,3.24-1.78,4.35-3.24,2.39-3.21.06-8.09,1.78-11.74,2.01-4.21,8.21-4.47,11.1-8.15,2.07-2.66,1.93-6.37,1.52-9.7-.41-3.33-.96-6.92.55-9.93,2.04-3.97,7.13-5.69,9.02-9.75,1.49-3.15,1.93-15.94,11.36-18.13v-.06c6.72-6.72,17.26-9.32,26.34-6.51s16.32,10.86,18.11,20.24c.32,1.64.5,3.33.7,5.02.38,2.72.85,5.4,2.31,7.68.85,1.34,2.04,2.51,3.15,3.71,1.43,1.52,2.74,3.1,3.15,5.11.93,4.53-3.24,9.29-1.43,13.55,1.37,3.27,5.75,4.73,6.51,8.18.76,3.45-2.63,7.04-1.28,10.31,1.08,2.66,4.79,3.53,5.87,6.19.82,1.93-.06,4.18.18,6.28.23,2.31,1.78,4.26,2.51,6.45.15.38.23.76.29,1.2Z"/>
  <path class="cls-1" d="M86.51,63.31c3.39,4.35,8.15,8.29,14.25,8.5.18.03.32.03.5.03h0c.18,0,.35,0,.5-.03,4.91-.18,8.94-2.74,12.09-5.99l.79,4.06c-14.48,16.44-32.01,6.28-32.01,6.28l3.88-12.85Z"/>
  <path class="cls-5" d="M123.42,42.55c-.18,1.96-.41,4.44-.58,6.28-.09.88-.23,1.75-.44,2.57,0,.03-.03.06-.03.09h.41s-3.04,18.13-19.07,20.12c-.47.06-.96.12-1.46.15-.18,0-.32.03-.47.06-.18.03-.35.03-.5.03h-.03c-.18,0-.32,0-.5-.03-18.05,0-20.44-18.95-20.59-20.15l-.03-.06c-.23-.91-.41-1.84-.5-2.77-.23-2.16-.41-4.38-.58-6.31-.06-.88-.09-1.72-.15-2.45,0-.09.03-.2.06-.35,0,0,2.98-26.69,23.16-26.69,20.18.03,21.9,23.24,21.29,29.52Z"/>
  <path class="cls-4" d="M155.98,237.33c-29.61-.85-54.4,33.96-54.4,33.96-14.31-32.36-63.37-43.04-63.37-43.04.93-4.26,2.13-8.26,3.45-11.97h0c.79.64,48.77,38.14,109.65,3.12h0c1.17,3.91,2.31,8.03,3.39,12.32.5,1.87.91,3.74,1.28,5.61Z"/>
  <path class="cls-4" d="M47.12,142.31c.2-9.34,3.91-20.03,6.48-29.11,3.21-11.48,3.53-30.55,3.53-31.07,1.99-.5,4.12-1.02,6.25-1.52,0,0-4.91,48.33,36.12,48.33s28.27-43.57,28.27-43.57c2.28.88,4.64,1.75,6.89,2.57,0,0,13.7,33.52,14.43,49.29.73,15.74-7.21,27.6-7.21,27.6,0,0-.38,3.21-.88,7.65-39.45-18.72-86.96,0-86.96,0h0c-.09-4.64-.12-8.15-.12-8.15,0,0-3.27-3.83-6.02-14.48-.61-2.37-.85-4.91-.79-7.53Z"/>
  <path class="cls-5" d="M149.91,95.03c4.03,3.71,7.15,9.29,7.97,16.56,1.34,11.71,6.1,77.91,6.1,77.91,0,0,1.34,50.93,0,61.29,0,0,1.52,17.49.58,22.75-.93,5.26-6.95,15.68-6.95,15.68l-.2-.03c1.84-16.94,1.93-34.95-1.46-51.83-.38-1.87-.79-3.74-1.26-5.61-1.08-4.29-2.22-8.41-3.39-12.32-5.81-19.54-11.94-33.35-11.94-33.35.55-4.5,1.14-9.55,1.61-13.61.53-4.41.88-7.65.88-7.65,0,0,7.94-11.86,7.21-27.6-.73-15.77-14.43-49.29-14.43-49.29,2.72.99,5.23,1.84,7.1,2.39,2.86.82,5.69,2.39,8.18,4.7Z"/>
  <path class="cls-5" d="M155.98,237.33c3.39,16.91,3.3,34.9,1.46,51.83-4.29,39.77-18.08,73.71-18.08,73.71,0,0,5.93,36.03,1.66,57.64-4.26,21.61-11.71,36.74-13.43,52.01-1.69,15.27,4.64,27.68,1.72,33.49-2.39,4.73-20.15,2.86-28.53-1.84.76-1.87.91-3.83.67-5.55-.32-2.34-1.75-6.45-3.36-11.39,2.63-5.87,8.38-17.75,8.47-22.31.12-5.99-5.26-89.07-5.26-89.07.15-1.31.23-2.01.23-2.01,0,0,3.15-76.95,0-102.59.03.03,24.82-34.78,54.43-33.93Z"/>
  <path class="cls-5" d="M151.31,219.4c-2.54,1.46-5.08,2.8-7.59,4.03,0,0-15.8,19.33-38.87,19.33s-43.31-15.62-43.31-15.62c-12.29-4.94-19.59-10.63-19.89-10.86,5.52-15.54,13.26-25.58,13.26-25.58-.5-4.64-.73-12.38-.85-18.25,0,0,21.11-8.32,46.9-8.32,12.88,0,26.89,2.07,40.06,8.32-.44,4.03-1.08,9.11-1.61,13.61-.06,0,6.07,13.84,11.89,33.35Z"/>
  <path class="cls-5" d="M127.8,37.06c1.08.38,1.75,1.93,1.66,5.4-.09,4.47-2.89,7.97-4.06,8.82-1.17.82-2.63.23-2.63.23l-.41-.09c.2-.85.35-1.72.44-2.57.18-1.84.44-4.29.61-6.28.93-1.58,1.69-3.27,2.28-5.05.35-.26.7-.47,1.05-.53.38-.09.73-.09,1.05.06Z"/>
  <path class="cls-5" d="M127.8,85.33s12.76,43.57-28.27,43.57-36.12-48.33-36.12-48.33c9.49-2.28,19.27-4.44,19.27-4.44,0,0,17.52,10.16,32.01-6.28l2.19,11.16s5.05,2.07,10.92,4.32Z"/>
  <path class="cls-5" d="M100.79,504.2c-1.64,4-6.04,7.62-15.45,7.62-13.81,0-19.92-6.07-17.81-9.34,2.07-3.27,5.11-22.13,5.11-22.13,0,0-17.46-73.15-18.08-86.2s5.37-31.89,5.37-31.89c-11.36-24.24-18.11-58.55-21.38-78.87-1.66-10.31-2.39-17.02-2.39-17.02,2.25,2.74,4.56,5.61,5.08,6.4,1.11,1.72,7.13,1.17,3.3-8.18-3.83-9.34-6.02-11.8-6.02-11.8,0,0,3.18-7.3-2.1-12.79.32-4.09.93-8,1.75-11.77,0,0,49.06,10.69,63.37,43.04,3.15,25.64,0,102.59,0,102.59,0,0-.09.7-.23,2.01-1.34,12.5-8.5,79.22-7.94,90.29.35,6.89,2.66,14.66,4.73,21.08,1.58,4.94,3.04,9.05,3.36,11.39.23,1.75.09,3.71-.67,5.58Z"/>
  <path class="cls-5" d="M73.69,38.11h0c.5-.99,1.23-1.28,2.1-1.14.35.06.73.26,1.05.53,1.17.93,2.07,2.74,2.07,2.74,0,0,0-.06.03-.15,0-.09.03-.2.06-.35-.03.15-.06.26-.06.35.06.73.12,1.55.15,2.42.15,1.93.32,4.15.58,6.31.09.93.26,1.87.5,2.77-.76.12-2.19.26-3.04-.32-1.17-.85-3.97-4.35-4.06-8.82-.03-2.07.18-3.47.61-4.35Z"/>
  <path class="cls-5" d="M36.19,266.35s.76,6.72,2.39,17.02h0s-3.97-1.4-5.37-4.15-8.44-8.29-8.44-8.29l-.38-1.72c-.38-1.72-.2-10.72-.93-16.15-.73-5.46-20.59-62.84-22.13-68.57C-.22,178.81.01,176.03.01,176.03c7.33-27.04,30.08-70,41.64-85.47,2.42-3.24,4.38-5.29,5.58-5.72,1.96-.67,5.64-1.69,9.9-2.74,0,.53-.32,19.62-3.53,31.07-2.54,9.08-6.28,19.77-6.48,29.11l-20.56,37.96,6.72,57.32c1.28.73,2.34,1.55,3.15,2.42,5.29,5.46,2.1,12.79,2.1,12.79,0,0,2.22,2.45,6.02,11.8,3.83,9.34-2.19,9.9-3.3,8.18-.5-.79-2.8-3.65-5.05-6.4Z"/>
  <path class="cls-1" d="M103.01,51.84c.03.2-.23.38-.53.35-1.49-.18-5.64-.73-5.99-2.28-.32-1.49,3.1-7.88,4.67-10.72.18-.32.85-.23.88.12l.96,12.53Z"/>
  <path class="cls-2" d="M95.94,39.22c-.32,0-.64-.2-.76-.55-.03-.06-.79-1.93-4.15-1.93h-.03c-3.53,0-4.67,1.52-4.73,1.58-.26.35-.76.44-1.11.2-.35-.26-.47-.73-.2-1.11.06-.09,1.58-2.25,6.04-2.28h.03c4.58,0,5.64,2.89,5.69,3.01.15.41-.09.88-.5,1.02-.12.06-.2.06-.29.06Z"/>
  <path class="cls-2" d="M84.73,34.93c-.23,0-.47-.12-.61-.29-.29-.35-.23-.85.12-1.14,1.55-1.26,3.5-2.07,5.49-2.31,1.99-.23,4.09.12,5.9.96.41.2.58.67.38,1.08s-.67.58-1.08.38c-1.55-.73-3.3-1.02-4.99-.82s-3.36.91-4.67,1.96c-.15.12-.35.18-.53.18Z"/>
  <path class="cls-2" d="M92.44,36.07c.32.09.29.64.29,1.02,0,1.08-.88,1.96-1.96,1.96s-1.96-.88-1.96-1.96c0-.35.09-.67.26-.96-.03,0,1.9-.5,3.36-.06Z"/>
  <path class="cls-2" d="M106.6,39.19c-.09,0-.18-.03-.26-.06-.41-.15-.64-.58-.5-1.02.03-.12,1.08-3.04,5.69-3.07h.06c4.41,0,5.96,2.13,6.02,2.22.26.38.15.88-.2,1.11s-.88.18-1.11-.2c-.06-.09-1.2-1.55-4.67-1.55h-.06c-3.39,0-4.15,1.9-4.18,1.99-.15.38-.47.58-.79.58Z"/>
  <path class="cls-2" d="M117.75,34.81c-.18,0-.35-.06-.5-.18-1.34-1.05-3.01-1.75-4.7-1.93s-3.48.12-4.99.88c-.41.2-.88.03-1.08-.38s-.03-.88.38-1.08c1.81-.88,3.88-1.23,5.87-1.02,1.99.2,3.94,1.02,5.52,2.28.35.29.41.79.12,1.14-.12.2-.35.29-.61.29Z"/>
  <path class="cls-2" d="M113.46,36.04c.26.2.26.61.26.96,0,1.08-.88,1.96-1.96,1.96s-1.96-.88-1.96-1.96c0-.38.09-.7.26-1.02,0,.03,2.57-.53,3.39.06Z"/>
  <path class="cls-3" d="M93.34,48.57c.12,1.87-2.1,3.53-4.96,3.71s-5.29-1.17-5.4-3.04,2.1-3.53,4.96-3.71,5.26,1.2,5.4,3.04Z"/>
  <path class="cls-3" d="M118.95,47.37c.12,1.87-2.1,3.53-4.96,3.71s-5.29-1.17-5.4-3.04,2.1-3.53,4.96-3.71c2.89-.2,5.29,1.17,5.4,3.04Z"/>
  <path class="cls-1" d="M78.54,48.8c-.35,0-.67-.23-.79-.58-.73-2.54-1.78-4.99-3.15-7.27-.23-.38-.12-.88.26-1.11s.88-.12,1.11.26c1.46,2.39,2.57,4.96,3.33,7.65.12.44-.12.88-.55.99-.06.06-.15.06-.2.06Z"/>
  <path class="cls-1" d="M124.21,48.45c-.06,0-.12,0-.18-.03-.44-.12-.7-.55-.58-.96.67-2.8,1.78-5.43,3.27-7.88.23-.38.73-.5,1.11-.26s.5.73.26,1.11c-1.4,2.31-2.45,4.79-3.07,7.42-.12.35-.44.61-.82.61Z"/>
  <path class="cls-2" d="M101.28,59.37c-1.49,0-2.57-.23-2.69-.26-.44-.09-.7-.53-.61-.96.09-.44.53-.7.96-.61.06.03,5.96,1.28,9.23-2.66.29-.35.79-.38,1.14-.12.35.29.38.79.12,1.14-2.39,2.92-5.78,3.48-8.15,3.48Z"/>
  <path class="cls-1" d="M157.44,289.98h-.09c-.44-.06-.76-.44-.73-.88,3.01-28.85-1.14-50.43-6.1-69.47-4.58-17.64-11.83-33.06-11.89-33.23-.06-.15-.09-.29-.06-.44l1.61-13.61c.06-.44.5-.76.91-.7.44.06.76.47.7.91l-1.58,13.37c.88,1.93,7.56,16.62,11.91,33.29,4.99,19.19,9.17,40.94,6.13,70.06-.06.41-.41.7-.82.7Z"/>
  <path class="cls-1" d="M101.34,376.71h-.15c-.44-.09-.73-.5-.64-.93,5.9-33.82.26-103.7.2-104.4-.03-.44.29-.85.73-.88.44-.03.85.29.88.73.06.7,5.69,70.79-.23,104.81-.06.38-.41.67-.79.67Z"/>
  <path class="cls-1" d="M87.62,370.17c-1.93,0-3.83-.32-5.67-.96-3.71-1.31-6.89-3.85-8.94-7.21-.23-.38-.12-.88.26-1.11.38-.23.88-.12,1.11.26,1.84,3.01,4.79,5.37,8.12,6.54,3.33,1.17,7.13,1.14,10.43-.06.41-.15.88.06,1.02.5.15.41-.06.88-.5,1.02-1.9.67-3.88,1.02-5.84,1.02Z"/>
  <path class="cls-1" d="M119.89,370.17c-3.62,0-7.18-1.14-10.16-3.21-.35-.26-.44-.76-.2-1.14.26-.38.76-.44,1.14-.2,2.95,2.1,6.57,3.12,10.19,2.89,3.62-.23,7.1-1.69,9.75-4.15.32-.29.85-.29,1.14.06.29.32.26.85-.06,1.14-2.95,2.69-6.77,4.29-10.75,4.56-.32.06-.67.06-1.05.06Z"/>
  <path class="cls-1" d="M100.32,504.7c-.06,0-.12,0-.18-.03-.44-.09-.7-.53-.61-.96,1.23-5.4.41-11.27-2.22-16.12-.2-.38-.06-.88.32-1.11.38-.2.88-.06,1.11.32,2.83,5.2,3.71,11.51,2.39,17.26-.09.41-.44.64-.82.64Z"/>
  <path class="cls-1" d="M91.65,511.65c-.26,0-.5-.12-.67-.35-1.93-2.8-2.51-6.42-1.58-9.7.12-.44.55-.67.99-.55s.67.58.55.99c-.82,2.77-.29,5.96,1.34,8.32.26.38.18.88-.2,1.11-.12.12-.26.18-.44.18Z"/>
  <path class="cls-1" d="M83.59,512c-.35,0-.67-.23-.79-.58-.55-2.01-.7-4.21-.38-6.28.06-.44.5-.76.91-.67.44.06.73.47.67.91-.29,1.84-.15,3.8.35,5.61.12.44-.15.88-.55.99-.06.03-.15.03-.2.03Z"/>
  <path class="cls-1" d="M77.98,511.62c-.44,0-.79-.32-.82-.76-.12-2.01.18-4.09.82-6.02.15-.41.61-.64,1.02-.5s.64.61.5,1.02c-.58,1.72-.85,3.59-.76,5.37.03.44-.32.82-.76.85.03.03,0,.03,0,.03Z"/>
  <path class="cls-1" d="M71.73,509.17h-.03c-.44-.03-.79-.41-.76-.85.09-1.75.41-3.5.93-5.17.15-.41.58-.64,1.02-.53.44.15.67.58.53,1.02-.5,1.55-.79,3.15-.88,4.76-.03.41-.38.76-.82.76Z"/>
  <path class="cls-1" d="M106.92,507.12c-.09,0-.2-.03-.29-.06-.41-.15-.64-.61-.47-1.05.5-1.37.85-2.77.96-4.21.12-1.46-.12-2.45-.7-2.98-.32-.29-.35-.82-.06-1.14.29-.32.82-.35,1.14-.06.99.88,1.4,2.34,1.23,4.32-.15,1.58-.5,3.15-1.05,4.64-.12.32-.44.53-.76.53Z"/>
  <path class="cls-1" d="M113.11,508.64c-.12,0-.26-.03-.38-.09-.41-.2-.55-.7-.35-1.08.85-1.66,1.08-3.62.61-5.43-.12-.44.15-.88.58-.99.44-.12.88.15.99.58.55,2.19.29,4.58-.73,6.57-.15.26-.44.44-.73.44Z"/>
  <path class="cls-1" d="M118.78,509.08c-.12,0-.2-.03-.29-.06-.41-.18-.61-.64-.44-1.05.61-1.49.76-3.15.41-4.73-.09-.44.18-.88.61-.96s.88.18.96.61c.41,1.87.23,3.88-.5,5.67-.15.32-.44.53-.76.53Z"/>
  <path class="cls-1" d="M125.46,508.12c-.09,0-.18,0-.26-.06-.41-.15-.64-.61-.5-1.02.41-1.2.44-2.51.09-3.74-.12-.44.12-.88.53-1.02.44-.12.88.12,1.02.53.47,1.55.44,3.21-.12,4.73-.09.38-.41.58-.76.58Z"/>
  <path class="cls-1" d="M121.43,470.85c-.09,0-.2-.03-.29-.06-2.69-1.05-5.46-1.81-8.32-2.22-.44-.06-.76-.47-.67-.91.06-.44.47-.76.91-.67,2.98.41,5.9,1.2,8.67,2.31.41.18.61.64.47,1.05-.12.29-.44.5-.76.5Z"/>
  <path class="cls-1" d="M76.58,476.49c-.32,0-.61-.18-.73-.5-.18-.41,0-.88.41-1.05,2.28-.99,4.67-1.75,7.13-2.22.41-.09.85.2.93.64s-.2.85-.64.93c-2.34.47-4.61,1.17-6.8,2.1-.09.06-.18.09-.29.09Z"/>
  <path class="cls-1" d="M101.37,209.62c-.18,0-.35-.06-.5-.18-.35-.26-.41-.79-.12-1.14l2.74-3.45c.29-.35.79-.41,1.14-.12.35.26.41.79.12,1.14l-2.74,3.45c-.18.2-.41.29-.64.29Z"/>
  <path class="cls-1" d="M43.55,274.59c-.12,0-.2,0-.29-.03-.58-.12-.93-.55-1.14-.82l-11.07-14.02c-.26-.35-.2-.85.15-1.14.35-.26.85-.2,1.14.15l11.07,14.02c.03.06.15.18.2.23,0-.03.09-.12.2-.29,1.28-1.81,1.46-4.47.47-7.13-.82-2.25-2.34-4.26-3.8-6.22l-.38-.53c-1.14-1.52-2.16-3.04-2.45-4.88-.18-1.2-.03-2.34.15-3.48.06-.47.12-.91.18-1.37.29-3.5-1.11-7.18-3.68-9.58-.32-.29-.35-.82-.03-1.14.29-.32.82-.35,1.14-.03,2.92,2.74,4.53,6.92,4.21,10.89-.03.5-.12.96-.18,1.46-.15,1.05-.29,2.04-.15,3.01.23,1.46,1.14,2.8,2.16,4.15l.38.53c1.52,2.04,3.1,4.15,4,6.63,1.17,3.15.91,6.37-.67,8.61-.61.79-1.2.96-1.61.96ZM43.61,272.98h0Z"/>
  <path class="cls-1" d="M41.04,295.24c-.35,0-.7-.23-.79-.61-2.51-9.7-4.41-19.65-5.64-29.58-.06-.44.26-.85.7-.91s.85.26.91.7c1.23,9.87,3.12,19.77,5.61,29.38.12.44-.15.88-.58.99-.06,0-.15.03-.2.03Z"/>
  <path class="cls-1" d="M36.49,273.42c-.2,0-.38-.06-.55-.2l-4.23-3.91c-.32-.29-.35-.82-.06-1.14.29-.32.82-.35,1.14-.06l4.23,3.91c.32.29.35.82.06,1.14-.15.18-.38.26-.58.26Z"/>
</svg>